<svg id="Слой_1" data-name="Слой 1" xmlns="http://www.w3.org/2000/svg" xmlns:xlink="http://www.w3.org/1999/xlink" viewBox="0 0 1090.16 1090.16"><defs><style>.cls-1{fill:none;}.cls-2{fill:url(#Безымянный_градиент_39);}.cls-3{fill:#333343;}.cls-4{fill:#e4ffdb;}.cls-5{fill:#f9b233;}.cls-6{fill:#fff;}.cls-7{fill:#008d36;}.cls-8{fill:#0050a8;}.cls-9{fill:#d7f2ff;}.cls-10{fill:#3eecff;}.cls-11{fill:#fabc04;}.cls-12{fill:#001b71;}.cls-13{fill:#00a2ff;}.cls-14{fill:#00aeff;}.cls-15{fill:#0093ff;}.cls-16{fill:#00e9ff;}.cls-17{fill:#00caff;}.cls-18{clip-path:url(#clip-path);}.cls-19{fill:#f39200;}.cls-20{fill:#00acff;}.cls-21{fill:#283689;}.cls-22{fill:#60bd87;}.cls-23{fill:#3c3c3b;}.cls-24{fill:#1d1d1b;}.cls-25{fill:#706f6f;}.cls-26{fill:#1c3870;}.cls-27{fill:#55a878;}.cls-28{opacity:0.7;}.cls-29{fill:#575756;}.cls-30{fill:#a8d29f;}.cls-31{fill:#82b378;}.cls-32{fill:#ededed;}.cls-33{fill:#ea9963;}.cls-34{fill:#ffb27d;}.cls-35{fill:#2b478b;}.cls-36{fill:#233862;}.cls-37{fill:#f99746;}.cls-38{fill:#ef873a;}.cls-39{fill:#8c9df4;}.cls-40{fill:#6980e2;}.cls-41{fill:#9fb1ff;}.cls-42{fill:#182d4c;}.cls-43{fill:#b5453c;}.cls-44{fill:#efcbab;}.cls-45{fill:#007d78;}.cls-46{fill:#00a19a;}.cls-47{fill:#699dee;}.cls-48{fill:#548ee2;}.cls-49{fill:#3f7d59;}.cls-50{fill:#9d9d9c;}.cls-51{fill:#c6c6c6;}</style><linearGradient id="Безымянный_градиент_39" x1="542.54" y1="880.69" x2="542.54" y2="984.6" gradientUnits="userSpaceOnUse"><stop offset="0.23" stop-color="#00aa2c"/><stop offset="1" stop-color="#fff" stop-opacity="0"/></linearGradient><clipPath id="clip-path"><ellipse class="cls-1" cx="725.57" cy="677.16" rx="52.94" ry="121.78" transform="translate(-120.8 158.83) rotate(-11.54)"/></clipPath></defs><polygon class="cls-2" points="647.65 894.15 542.1 886.14 542.1 882.28 529.65 884.52 495.53 880.09 497.37 890.33 437.35 895.63 300.69 998.58 516.81 998.58 542.1 998.58 784.38 998.58 647.65 894.15"/><path class="cls-3" d="M716.34,344.45h-.64V278a39.9,39.9,0,0,0-39.9-39.9H433.94A39.91,39.91,0,0,0,394,278v66.47h-.63a5.21,5.21,0,0,0-5.21,5.21v46a5.21,5.21,0,0,0,5.21,5.21H394v11h-.63a5.2,5.2,0,0,0-5.21,5.2v46a5.21,5.21,0,0,0,5.21,5.21H394V870.83a39.9,39.9,0,0,0,39.9,39.9H675.8a39.9,39.9,0,0,0,39.9-39.9V429h.64a5.21,5.21,0,0,0,5.21-5.21V349.66A5.21,5.21,0,0,0,716.34,344.45Z"/><rect class="cls-4" x="405.65" y="247.95" width="298.44" height="652.91" rx="36.05"/><path class="cls-5" d="M733.5,307.57a55,55,0,0,0-36,96.74l-8.24,23.89,25.89-13.64a55.07,55.07,0,1,0,18.34-107Z"/><path class="cls-6" d="M767.63,357.22a18.87,18.87,0,0,0-34.13-11.13A18.88,18.88,0,1,0,707,372.34h0L733.5,393,760,372.35h0A18.86,18.86,0,0,0,767.63,357.22Z"/><path class="cls-6" d="M718.25,338.86a18.86,18.86,0,0,1,15.25,7.76,18.87,18.87,0,0,1,34.12,10.85c0-.09,0-.16,0-.25a18.87,18.87,0,0,0-34.13-11.13,18.88,18.88,0,0,0-34.14,11.13c0,.09,0,.16,0,.25A18.9,18.9,0,0,1,718.25,338.86Z"/><path class="cls-7" d="M334,343.92a21.87,21.87,0,0,1,14.3,38.44l3.27,9.49-10.28-5.42A21.88,21.88,0,1,1,334,343.92Z"/><path class="cls-6" d="M320.43,363.65A7.5,7.5,0,0,1,334,359.23a7.5,7.5,0,1,1,10.55,10.42h0L334,377.88l-10.54-8.22h0A7.46,7.46,0,0,1,320.43,363.65Z"/><path class="cls-6" d="M340.05,356.35a7.5,7.5,0,0,0-6.06,3.09,7.49,7.49,0,0,0-13.55,4.31s0-.07,0-.1A7.5,7.5,0,0,1,334,359.23a7.5,7.5,0,0,1,13.57,4.42s0,.06,0,.1A7.5,7.5,0,0,0,340.05,356.35Z"/><path class="cls-7" d="M668.8,91.59a80.14,80.14,0,0,0-52.39,140.82l-12,34.78,37.69-19.86A80.16,80.16,0,1,0,668.8,91.59Z"/><rect class="cls-6" x="692.54" y="155.51" width="22.03" height="53.37"/><rect class="cls-6" x="692.54" y="155.51" width="22.03" height="0.86"/><path class="cls-6" d="M675.57,121a10.77,10.77,0,0,0-10.78,10.78v17h-37.6a10.78,10.78,0,0,0,0,21.56h3.57v24.35a16.48,16.48,0,0,0,16.48,16.48h31.21a7.9,7.9,0,0,0,7.9-7.9V131.73A10.78,10.78,0,0,0,675.57,121Z"/><path class="cls-6" d="M627.19,149.26h37.6v-.55h-37.6a10.78,10.78,0,0,0-10.78,10.78c0,.09,0,.18,0,.28A10.76,10.76,0,0,1,627.19,149.26Z"/><path class="cls-6" d="M675.57,121a10.77,10.77,0,0,0-10.78,10.78v.55a10.78,10.78,0,1,1,21.56,0v-.55A10.78,10.78,0,0,0,675.57,121Z"/><path class="cls-5" d="M401.92,180A64.34,64.34,0,0,1,444,293.05L453.6,321,423.35,305a64.37,64.37,0,1,1-21.43-125Z"/><path class="cls-8" d="M444.35,294.13,453.61,321l-.6-.32-9-26.18Z"/><path class="cls-9" d="M424,249.21a34.52,34.52,0,0,0-23.29-32.64,24.95,24.95,0,1,1,34.94,34.88c1.15,2,3.65,4.16,9,2.78,0,0-7.74,9.25-18.62,1.63a25.36,25.36,0,0,1-2.77.44A34.52,34.52,0,0,0,424,249.21Z"/><path class="cls-9" d="M389.43,218.11a31.23,31.23,0,0,0-18.69,56.27c-1.45,2.52-4.57,5.2-11.28,3.48,0,0,9.69,11.57,23.31,2a31.75,31.75,0,0,0,6.66.72,31.26,31.26,0,1,0,0-62.51Z"/><path class="cls-6" d="M424,249.21a34.52,34.52,0,0,0-23.29-32.64,24.95,24.95,0,1,1,34.94,34.88c1.15,2,3.65,4.16,9,2.78,0,0-7.74,9.25-18.62,1.63a25.36,25.36,0,0,1-2.77.44A34.52,34.52,0,0,0,424,249.21Z"/><path class="cls-6" d="M389.43,218.11a31.23,31.23,0,0,0-18.69,56.27c-1.45,2.52-4.57,5.2-11.28,3.48,0,0,9.69,11.57,23.31,2a31.75,31.75,0,0,0,6.66.72,31.26,31.26,0,1,0,0-62.51Z"/><path class="cls-6" d="M420.69,249.37c0,.12,0,.24,0,.36a31.24,31.24,0,0,0-62.48,0c0-.11,0-.22,0-.33a31.26,31.26,0,1,1,62.52,0Z"/><path class="cls-6" d="M420.69,207.23a24.9,24.9,0,0,0-19.55,9.52l-.46-.18a25,25,0,0,1,45,14.9c0,.11,0,.22,0,.34A25,25,0,0,0,420.69,207.23Z"/><path class="cls-6" d="M370.43,274.85c.11.08.2.18.31.26-1.38,2.41-4.32,4.91-10.4,3.65-.56-.54-.88-.9-.88-.9C365.75,279.47,368.87,277.22,370.43,274.85Z"/><path class="cls-6" d="M424,249.94a34.85,34.85,0,0,1-.61,6.34l-.12,0a35.17,35.17,0,0,0,.72-6.77C424,249.67,424,249.8,424,249.94Z"/><path class="cls-6" d="M435.62,252.19c.11-.08.2-.18.31-.27,1.27,1.86,3.76,3.58,8.7,2.31a10.25,10.25,0,0,1-.91.91C439,256.05,436.7,254.08,435.62,252.19Z"/><path class="cls-5" d="M382.22,440.31a51.82,51.82,0,0,1,33.87,91.06l7.75,22.48L399.48,541a51.83,51.83,0,1,1-17.26-100.7Z"/><path class="cls-5" d="M416.39,532.24l7.45,21.61-.48-.26-7.27-21.08Z"/><path class="cls-6" d="M370.69,518.7h0a4.15,4.15,0,0,1-4.13-4.14V472a4.15,4.15,0,0,1,4.13-4.14h0a4.15,4.15,0,0,1,4.14,4.14v42.55A4.15,4.15,0,0,1,370.69,518.7Z"/><path class="cls-6" d="M393.74,518.7h0a4.15,4.15,0,0,1-4.13-4.14V472a4.15,4.15,0,0,1,4.13-4.14h0a4.15,4.15,0,0,1,4.14,4.14v42.55A4.15,4.15,0,0,1,393.74,518.7Z"/><path class="cls-6" d="M407.63,504.81h0a4.15,4.15,0,0,1-4.14,4.14H360.94a4.15,4.15,0,0,1-4.13-4.14h0a4.15,4.15,0,0,1,4.13-4.14h42.55A4.15,4.15,0,0,1,407.63,504.81Z"/><path class="cls-6" d="M407.63,481.76h0a4.15,4.15,0,0,1-4.14,4.14H360.94a4.15,4.15,0,0,1-4.13-4.14h0a4.15,4.15,0,0,1,4.13-4.14h42.55A4.15,4.15,0,0,1,407.63,481.76Z"/><rect class="cls-10" x="389.23" y="718.83" width="67.4" height="32.96" rx="6.29" transform="translate(-138.55 99.47) rotate(-11.54)"/><rect class="cls-11" x="456.07" y="725.1" width="47.18" height="133.03" rx="9" transform="translate(-148.64 111.94) rotate(-11.54)"/><path class="cls-12" d="M485.78,755.14l-8.78-.49L451.11,769.7s25,4.31,50.22,10.11c-4-16.08-7.47-22-7.47-22S494.55,755.63,485.78,755.14Z"/><rect class="cls-10" x="492.78" y="757.95" width="15.37" height="39.86" rx="2.93" transform="translate(-145.53 115.87) rotate(-11.54)"/><path class="cls-5" d="M737.34,638.42S708.63,594.79,683,549.73c-84.76,113.45-266.09,156-266.09,156v.06c-8.36,1.7-12.12,17.88-8.39,36.13s13.52,31.65,21.88,29.94h0c1.48-.26,184-31.66,305.9,39.19,6-51.51,15.26-102.91,15.26-102.91l-26-31Z"/><path class="cls-13" d="M417.13,706.92v-.06s181.33-42.53,266.08-156c23.92,42,50.47,82.73,54,88.09l.16-.55S708.63,594.79,683,549.73c-84.76,113.45-266.09,156-266.09,156v.06c-8.36,1.7-12.12,17.88-8.39,36.13,0,.19.09.38.13.57C405.1,724.46,408.86,708.61,417.13,706.92Z"/><path class="cls-13" d="M725.82,678.29l25.62,30.55c.08-.46.13-.72.13-.72L726,677.65Z"/><path class="cls-14" d="M468.43,690c-6.67,2.35-12.89,4.43-18.51,6.23-2.36,10.28-2.37,23.17.47,37.12s7.89,25.75,14.08,34.28c5.86-.54,12.37-1.06,19.41-1.52-5.73-3.21-14.52-15.05-18.75-35.77S464.39,695.12,468.43,690Z"/><path class="cls-10" d="M444.08,698.06c-1.51.47-3,.92-4.39,1.34-4.75,7.53-6.17,21.35-3,36.75s9.81,27.46,17.11,32.56l4.51-.48c-7.64-2.75-15.75-16-19.13-32.59S438.06,703.5,444.08,698.06Z"/><path class="cls-7" d="M539.51,660.3q-9.5,4.65-18.72,8.77c-3.54,13.34-3.73,30.82.16,49.87s10.89,35,19.36,45.87c6.7.13,13.58.36,20.6.73-9.17-4.67-21.2-21.87-26.8-49.29S532.86,668.13,539.51,660.3Z"/><path class="cls-7" d="M578,639.59q-9.54,5.64-19.07,10.74c-4.29,16.16-4.5,37.5.26,60.8s13.28,42.79,23.55,56c7.15.65,14.38,1.43,21.68,2.4-12.07-7.31-25.82-29.58-32.24-61S569.71,651,578,639.59Z"/><ellipse class="cls-15" cx="712.19" cy="679.89" rx="62.48" ry="136.37" transform="translate(-121.61 156.21) rotate(-11.54)"/><ellipse class="cls-16" cx="721.65" cy="677.96" rx="63.28" ry="136.37" transform="translate(-121.03 158.06) rotate(-11.54)"/><ellipse class="cls-17" cx="722.44" cy="677.8" rx="62.48" ry="136.37" transform="translate(-120.99 158.22) rotate(-11.54)"/><path class="cls-10" d="M695.16,544.19c-.2,0-.38.1-.57.15,33.68-6.18,72.94,47.82,87.92,121.19s0,138.44-33.37,146c.19,0,.38,0,.57-.08,33.81-6.9,49-72.32,33.94-146.11S729,537.29,695.16,544.19Z"/><ellipse class="cls-7" cx="725.57" cy="677.16" rx="52.94" ry="121.78" transform="translate(-120.8 158.83) rotate(-11.54)"/><g class="cls-18"><circle class="cls-5" cx="667.09" cy="689.1" r="59.69" transform="translate(-291.88 673.54) rotate(-45)"/><path class="cls-19" d="M667.22,689.73a47.67,47.67,0,0,1,27.88-53.34,59.7,59.7,0,1,0,17.41,91.41A47.64,47.64,0,0,1,667.22,689.73Z"/><path class="cls-20" d="M655.15,630.61l-.92.22A59.67,59.67,0,0,1,678.1,747.75c.31-.06.62-.1.93-.17a59.69,59.69,0,0,0-23.88-117Z"/></g><rect class="cls-4" x="453.4" y="514.68" width="202.21" height="49.36"/><path d="M457.77,574.41a1.21,1.21,0,0,1-1.36-1.37V553.72a1.2,1.2,0,0,1,1.36-1.36h7.84q4.25,0,6.25,2t2,6.25v5.53c0,2.83-.67,4.91-2,6.25s-3.42,2-6.27,2Zm1.37-2.73h6.47a8.64,8.64,0,0,0,3.29-.52,3.09,3.09,0,0,0,1.72-1.72,8.48,8.48,0,0,0,.52-3.29v-5.53a8.42,8.42,0,0,0-.52-3.28,3.17,3.17,0,0,0-1.72-1.73,8.45,8.45,0,0,0-3.29-.52h-6.47Z"/><path d="M480.76,555.25a1.37,1.37,0,0,1-1.54-1.56v-1a1.35,1.35,0,0,1,1.54-1.52h.94a1.32,1.32,0,0,1,1.48,1.52v1c0,1-.49,1.56-1.48,1.56Zm.46,19.16a1.21,1.21,0,0,1-1.37-1.37V559.29a1.37,1.37,0,1,1,2.73,0V573A1.21,1.21,0,0,1,481.22,574.41Z"/><path d="M493.22,574.41a5.54,5.54,0,0,1-3.27-.86A4,4,0,0,1,488.4,571a1.2,1.2,0,0,1,.27-1.07,1.44,1.44,0,0,1,1.07-.39,1.24,1.24,0,0,1,1,.33,2.59,2.59,0,0,1,.5,1,1.06,1.06,0,0,0,.66.65,4.25,4.25,0,0,0,1.36.17h5.33a2.56,2.56,0,0,0,1.71-.42,2.45,2.45,0,0,0,.44-1.73,2.48,2.48,0,0,0-.44-1.73,2.56,2.56,0,0,0-1.71-.42h-5.24a4.18,4.18,0,0,1-4.71-4.71,4.91,4.91,0,0,1,1.16-3.57,4.78,4.78,0,0,1,3.55-1.18h5.08q3.81,0,4.52,3.22a1.12,1.12,0,0,1-.26,1.06,1.49,1.49,0,0,1-1.08.37,1.24,1.24,0,0,1-.94-.33,2.38,2.38,0,0,1-.49-.94,1,1,0,0,0-.59-.52,3.85,3.85,0,0,0-1.16-.13h-5.08a2.39,2.39,0,0,0-1.61.38,2.43,2.43,0,0,0-.37,1.64,2.25,2.25,0,0,0,.4,1.57,2.19,2.19,0,0,0,1.58.41h5.24a4.9,4.9,0,1,1,0,9.76Z"/><path d="M510.58,580.91a1.21,1.21,0,0,1-1.37-1.37V559.29a1.37,1.37,0,0,1,2.74,0v.4a5.58,5.58,0,0,1,2.17-1.32,8.78,8.78,0,0,1,2.9-.45h1.23a5.57,5.57,0,0,1,6.38,6.37V568a5.58,5.58,0,0,1-6.38,6.38H512v5.13A1.21,1.21,0,0,1,510.58,580.91Zm1.37-9.23h6.3a4.09,4.09,0,0,0,2.89-.77,4.15,4.15,0,0,0,.76-2.88v-3.74a3,3,0,0,0-3.65-3.64H517a11.05,11.05,0,0,0-3.51.49c-1,.32-1.51.84-1.56,1.54Z"/><path d="M535.52,574.41a5,5,0,0,1-3.7-1.23,5.09,5.09,0,0,1-1.21-3.72V552.88a1.37,1.37,0,1,1,2.73,0v16.58a2.67,2.67,0,0,0,.43,1.77,2.47,2.47,0,0,0,1.75.45,1.22,1.22,0,0,1,1.4,1.36C537,574,536.49,574.41,535.52,574.41Z"/><path d="M546.19,574.41a5.42,5.42,0,1,1,0-10.8h6.87a3,3,0,0,0-.89-2.33,4.49,4.49,0,0,0-2.73-.63h-1.89a9.65,9.65,0,0,0-2.42.22,1.74,1.74,0,0,0-1.12.79,2.71,2.71,0,0,1-.6.94,1.39,1.39,0,0,1-.93.26,1.43,1.43,0,0,1-1.07-.38,1,1,0,0,1-.23-1,4.11,4.11,0,0,1,2-2.69,9.06,9.06,0,0,1,4.33-.85h1.89a5.56,5.56,0,0,1,6.37,6.37V573a1.37,1.37,0,1,1-2.73,0v-.73a6.21,6.21,0,0,1-5.07,2.1Zm0-2.73H548a11.63,11.63,0,0,0,2.26-.22,4.41,4.41,0,0,0,1.81-.81,2.82,2.82,0,0,0,1-1.67v-2.64h-6.89a3,3,0,0,0-2.14.54,2.71,2.71,0,0,0,2.14,4.8Z"/><path d="M566.61,580.91a4.72,4.72,0,0,1-3.52-1.18,4.81,4.81,0,0,1-1.16-3.54,1.37,1.37,0,0,1,2.73,0,2.49,2.49,0,0,0,.36,1.61,2.34,2.34,0,0,0,1.59.38h6.31a2.3,2.3,0,0,0,1.57-.38,2.41,2.41,0,0,0,.38-1.61v-4.12a4.55,4.55,0,0,1-2.27,1.9,8.76,8.76,0,0,1-2.81.44H568.2a5.45,5.45,0,0,1-6.27-6.25v-8.87a1.37,1.37,0,1,1,2.73,0v8.87a3.88,3.88,0,0,0,.74,2.78,4,4,0,0,0,2.8.74h1.59a6.62,6.62,0,0,0,3.87-.88,3,3,0,0,0,1.21-2.64v-8.87a1.37,1.37,0,1,1,2.73,0v16.9a4.81,4.81,0,0,1-1.17,3.54,4.73,4.73,0,0,1-3.51,1.18Z"/><path d="M593.53,574.28a1.21,1.21,0,0,1-.78-1.79l7.74-19.06a1.62,1.62,0,0,1,1.53-1.07h.06a1.5,1.5,0,0,1,1.44,1.07l7.86,19.06a1.21,1.21,0,0,1-.74,1.79,1.22,1.22,0,0,1-1.79-.75l-1.76-4.26H597l-1.67,4.26A1.19,1.19,0,0,1,593.53,574.28Zm4.51-7.74H606l-4.05-9.86Z"/><path d="M621.17,574.41A5.59,5.59,0,0,1,614.8,568v-3.74a5.57,5.57,0,0,1,6.37-6.37h6.31v-5a1.37,1.37,0,1,1,2.73,0V573a1.37,1.37,0,1,1-2.73,0v-.23a4.83,4.83,0,0,1-2,1.19,10,10,0,0,1-3.07.41Zm0-2.73h1.24a10.25,10.25,0,0,0,3.61-.56c1-.37,1.46-.93,1.46-1.69v-8.78h-6.31a4.09,4.09,0,0,0-2.88.77,4.15,4.15,0,0,0-.76,2.87V568a3,3,0,0,0,3.64,3.65Z"/><path d="M640.52,574.41a5.54,5.54,0,0,1-3.27-.86,3.94,3.94,0,0,1-1.54-2.56,1.15,1.15,0,0,1,.27-1.07,1.41,1.41,0,0,1,1.06-.39,1.25,1.25,0,0,1,1,.33,2.59,2.59,0,0,1,.49,1,1.06,1.06,0,0,0,.66.65,4.25,4.25,0,0,0,1.36.17h5.33a2.53,2.53,0,0,0,1.71-.42,2.45,2.45,0,0,0,.44-1.73,2.48,2.48,0,0,0-.44-1.73,2.53,2.53,0,0,0-1.71-.42h-5.23a4.18,4.18,0,0,1-4.72-4.71,4.87,4.87,0,0,1,1.17-3.57,4.77,4.77,0,0,1,3.55-1.18h5.07q3.82,0,4.52,3.22a1.09,1.09,0,0,1-.26,1.06,1.48,1.48,0,0,1-1.07.37,1.21,1.21,0,0,1-.94-.33,2.38,2.38,0,0,1-.49-.94,1,1,0,0,0-.6-.52,3.8,3.8,0,0,0-1.16-.13h-5.07A2.37,2.37,0,0,0,639,561a2.42,2.42,0,0,0-.38,1.64,2.3,2.3,0,0,0,.4,1.57,2.23,2.23,0,0,0,1.59.41h5.23a4.9,4.9,0,1,1,0,9.76Z"/><path class="cls-21" d="M511.17,442.56l-.59-.07a6.22,6.22,0,0,1,2.81-4.14c2.15-1.37,1.42-5.64,1.41-5.69l.58-.1a10.89,10.89,0,0,1,.11,2.51,4.63,4.63,0,0,1-1.79,3.78A5.66,5.66,0,0,0,511.17,442.56Z"/><path class="cls-21" d="M514.93,442.66a3.23,3.23,0,0,1,1.12-4.31c2.12-1.34.24-5.49.22-5.54l.54-.24a10.89,10.89,0,0,1,.74,2.47c.3,1.81-.11,3.13-1.18,3.81a2.61,2.61,0,0,0-.93,3.53Z"/><polygon class="cls-22" points="637.26 472.27 470.21 472.27 487.04 455.09 622.59 455.09 637.26 472.27"/><rect class="cls-23" x="470.21" y="472.27" width="167.06" height="2.19"/><rect class="cls-24" x="488.01" y="458.69" width="133.15" height="0.59"/><rect class="cls-24" x="483.49" y="462.28" width="141.23" height="0.59"/><rect class="cls-24" x="479.73" y="466.25" width="148.75" height="0.59"/><rect class="cls-24" x="488.68" y="456.05" width="6.02" height="1.81"/><rect class="cls-24" x="534.79" y="456.05" width="6.02" height="1.81"/><rect class="cls-24" x="544.47" y="456.05" width="6.02" height="1.81"/><rect class="cls-24" x="570.21" y="456.05" width="6.02" height="1.81"/><rect class="cls-24" x="579.16" y="456.05" width="6.02" height="1.81"/><rect class="cls-24" x="588.84" y="456.05" width="6.02" height="1.81"/><path class="cls-23" d="M699.36,442.52h-1.18c-2.67-3.9-5-4.09-9.47-4.43-1.38-.11-2.94-.23-4.77-.48-4.08-.55-5.42-2.74-7-5.28a23.07,23.07,0,0,0-2.49-3.55c-3.26-3.69-10.58-2.61-10.66-2.6l-.15-1c.32-.05,7.93-1.17,11.55,2.93a24.86,24.86,0,0,1,2.59,3.68c1.54,2.52,2.65,4.33,6.27,4.82,1.81.24,3.35.37,4.72.47C693.66,437.48,696.27,437.68,699.36,442.52Z"/><rect class="cls-22" x="634.3" y="419.9" width="29.36" height="29.4" rx="9.39"/><path class="cls-25" d="M659.05,434a10,10,0,0,1-.12,1.55c0,.12,0,.24-.07.36a9.39,9.39,0,0,1-.82,2.48,2.26,2.26,0,0,1-.11.22,10,10,0,0,1-2.68,3.28,1.33,1.33,0,0,1-.19.14,9.89,9.89,0,0,1-3.88,1.81h0l-.26.06h0a10.4,10.4,0,0,1-1.12.15l-.36,0H649a10.13,10.13,0,0,1-3.08-.48l-.45-.16a10,10,0,0,1-1-.44l-.22-.11a10.13,10.13,0,0,1-3.5-3.13l-.14-.19a10,10,0,0,1-1.37-3.1c0-.15-.07-.31-.1-.46a8.76,8.76,0,0,1-.17-1.16,2.64,2.64,0,0,1,0-.29h0c0-.19,0-.38,0-.57a10,10,0,0,1,.46-3,2.41,2.41,0,0,1,.08-.25,10.25,10.25,0,0,1,2.22-3.68c.06-.05.11-.11.16-.16a10.08,10.08,0,0,1,3.55-2.32l.23-.09a10.21,10.21,0,0,1,3.38-.58,10,10,0,0,1,1.66.14l.29.05.2,0,.4.1a10.14,10.14,0,0,1,3.9,2l.18.15a10.2,10.2,0,0,1,2.72,3.84l.09.22a10.93,10.93,0,0,1,.53,2.06c0,.14,0,.27,0,.4h0A9.51,9.51,0,0,1,659.05,434Z"/><path class="cls-26" d="M655.25,441.84a1.33,1.33,0,0,1-.19.14l-1.34-1.5-.15-.17-2.76-3.08-.15-.17-3.12-3.48-.15-.17L644.31,430l-.15-.18-2.51-2.8c.06-.05.11-.11.16-.16l2.52,2.81.16.17,3.07,3.44.15.17,3.12,3.48.15.17,2.76,3.08.15.17Z"/><path class="cls-26" d="M658,438.34a2.26,2.26,0,0,1-.11.22l-.92-1-.15-.17-2.76-3.08-.16-.17-3.11-3.48-.16-.17L647.6,427l-.15-.17-2.09-2.33.23-.09,2,2.27.15.17,3.08,3.43.15.18,3.11,3.47.16.17,2.76,3.09.15.17Z"/><path class="cls-26" d="M658.94,432.46c0,.14,0,.27,0,.4l-1.48-1.65-.15-.17-3.12-3.48-.15-.17-3-3.31.4.1,2.74,3.06.15.17,3.12,3.48.15.17Z"/><path class="cls-26" d="M651.18,443.79l-.26.06h0l-.42-.47-.16-.17-2.76-3.08-.15-.17-3.11-3.48-.16-.17-3.07-3.43-.16-.18-1.58-1.77a2.41,2.41,0,0,1,.08-.25l1.67,1.87.16.17,3.07,3.44.16.17,3.11,3.47.16.17,2.75,3.09.16.17Z"/><path class="cls-26" d="M650.92,424l-3.15,2.83-.17.15-3.11,2.8-.18.16-3,2.74-.17.16-2.16,1.93a2.64,2.64,0,0,1,0-.29h0l2-1.82.17-.15,3.06-2.75.17-.15,3.12-2.8.17-.15,3-2.71Z"/><path class="cls-26" d="M655.6,426.34l-1.19,1.07-.17.15L651,430.48l-.17.15-3.12,2.8-.17.15-3,2.75-.17.15-2.64,2.37-.17.16-.8.71-.14-.19.78-.7.17-.15,2.64-2.37.17-.15,3.06-2.75.17-.15,3.11-2.8.18-.16,3.24-2.91.17-.15,1.16-1.05Z"/><path class="cls-26" d="M658.41,430.4l-.73.66-.17.15-3.24,2.91-.17.16-3.12,2.8-.17.15-3,2.74-.18.16-2.64,2.37-.17.15-.34.31-.22-.11.41-.37.17-.15,2.64-2.37.17-.16,3.06-2.74.17-.15,3.11-2.8.17-.16,3.25-2.91.17-.15.79-.71Z"/><path class="cls-26" d="M658.93,435.5c0,.12,0,.24-.07.36l-1.68,1.52-.17.15-3.12,2.8-.17.15-3.05,2.75-.17.15-.7.62-.36,0,.9-.82.17-.15,3.06-2.75.17-.15,3.12-2.8.17-.15Z"/><path class="cls-26" d="M645.89,443.56l-.45-.16-.67-.75-.15-.17L641.51,439l-.16-.18-2.15-2.4c0-.15-.07-.31-.1-.46l2.42,2.71.16.17,3.11,3.48.15.17Z"/><rect class="cls-22" x="634.3" y="390.6" width="29.36" height="29.4" rx="9.39"/><path class="cls-25" d="M659.05,404.64a10,10,0,0,1-.12,1.55c0,.12,0,.24-.07.37A9.44,9.44,0,0,1,658,409a1.51,1.51,0,0,1-.11.22,10,10,0,0,1-2.68,3.28,1.33,1.33,0,0,1-.19.14,9.89,9.89,0,0,1-3.88,1.81h0l-.26.06h0a10.4,10.4,0,0,1-1.12.15l-.36,0H649a10.13,10.13,0,0,1-3.08-.48l-.45-.16a10,10,0,0,1-1-.44l-.22-.11a10.13,10.13,0,0,1-3.5-3.13l-.14-.19a10,10,0,0,1-1.37-3.1c0-.15-.07-.31-.1-.46a8.76,8.76,0,0,1-.17-1.16,2.64,2.64,0,0,1,0-.29h0c0-.19,0-.38,0-.57a10.09,10.09,0,0,1,.46-3c0-.08,0-.16.08-.25a10.13,10.13,0,0,1,2.22-3.67l.16-.17a10.08,10.08,0,0,1,3.55-2.32l.23-.09a10.21,10.21,0,0,1,3.38-.58,10,10,0,0,1,1.66.14l.29.05.2,0,.4.1a10.14,10.14,0,0,1,3.9,2l.18.16a10.09,10.09,0,0,1,2.72,3.83l.09.23a10.63,10.63,0,0,1,.53,2c0,.14,0,.27,0,.41h0A9.51,9.51,0,0,1,659.05,404.64Z"/><path class="cls-26" d="M655.25,412.53a1.33,1.33,0,0,1-.19.14l-1.34-1.5-.15-.17-2.76-3.08-.15-.17-3.12-3.48-.15-.17-3.08-3.43-.15-.17-2.51-2.8.16-.17,2.52,2.81.16.17,3.07,3.44.15.17,3.12,3.48.15.17,2.76,3.08.15.17Z"/><path class="cls-26" d="M658,409a1.51,1.51,0,0,1-.11.22l-.92-1-.15-.17L654.1,405l-.16-.17-3.11-3.48-.16-.17-3.07-3.44-.15-.17-2.09-2.33.23-.09,2,2.27.15.17,3.08,3.44.15.17,3.11,3.47.16.17L657,407.9l.15.17Z"/><path class="cls-26" d="M658.94,403.15c0,.14,0,.27,0,.41l-1.48-1.66-.15-.17-3.12-3.48-.15-.17-3-3.31.4.1,2.74,3.06.15.17,3.12,3.48.15.17Z"/><path class="cls-26" d="M651.18,414.48l-.26.06h0l-.42-.47-.16-.17-2.76-3.08-.15-.17-3.11-3.48-.16-.17-3.07-3.43-.16-.18-1.58-1.77c0-.08,0-.16.08-.25l1.67,1.87.16.17,3.07,3.44.16.17,3.11,3.47.16.18,2.75,3.08.16.17Z"/><path class="cls-26" d="M650.92,394.73l-3.15,2.83-.17.15-3.11,2.8-.18.16-3,2.74-.17.16-2.16,1.93a2.64,2.64,0,0,1,0-.29h0l2-1.82.17-.15,3.06-2.74.17-.16,3.12-2.8.17-.15,3-2.71Z"/><path class="cls-26" d="M655.6,397l-1.19,1.06-.17.15L651,401.17l-.17.15-3.12,2.8-.17.15-3,2.75-.17.15-2.64,2.37-.17.16-.8.71-.14-.19.78-.7.17-.15,2.64-2.37.17-.15,3.06-2.75.17-.15,3.11-2.8.18-.15,3.24-2.92.17-.15,1.16-1.05Z"/><path class="cls-26" d="M658.41,401.1l-.73.65-.17.15-3.24,2.91-.17.16-3.12,2.8-.17.15-3,2.75-.18.15-2.64,2.37-.17.15-.34.31-.22-.11.41-.37.17-.15,2.64-2.37.17-.16,3.06-2.74.17-.15,3.11-2.8.17-.16,3.25-2.91.17-.15.79-.71Z"/><path class="cls-26" d="M658.93,406.19c0,.12,0,.24-.07.37l-1.68,1.51-.17.15-3.12,2.8-.17.15-3.05,2.75-.17.15-.7.62-.36,0,.9-.82.17-.15,3.06-2.75.17-.15,3.12-2.8.17-.15Z"/><path class="cls-26" d="M645.89,414.25l-.45-.16-.67-.75-.15-.17-3.11-3.47-.16-.18-2.15-2.4c0-.15-.07-.31-.1-.46l2.42,2.71.16.17,3.11,3.48.15.17Z"/><rect class="cls-22" x="480.04" y="346.62" width="147.39" height="86.66"/><rect class="cls-23" x="480.04" y="346.62" width="147.39" height="72.82"/><path class="cls-27" d="M573,447.41v2.1H529.75v-2.1a5.82,5.82,0,0,0,5.79-5.37c0-.15,0-.3,0-.45v-8.3h31.65v8.3c0,.15,0,.3,0,.45a5.82,5.82,0,0,0,5.79,5.37Z"/><g class="cls-28"><rect class="cls-29" x="535.56" y="433.29" width="31.65" height="1.73"/></g><g class="cls-28"><path class="cls-29" d="M573,447.41H529.75a5.82,5.82,0,0,0,5.79-5.37h31.69a5.82,5.82,0,0,0,5.79,5.37Z"/></g><path class="cls-30" d="M448.23,420.91s-1.53-13.61,4.35-25.08a1.27,1.27,0,0,1,2.43.49,47.35,47.35,0,0,1-2.39,25.54C446.62,436.93,448.23,420.91,448.23,420.91Z"/><path class="cls-30" d="M455.25,423.6s1-13.66,8.82-23.87a1.27,1.27,0,0,1,2.3.92,47.24,47.24,0,0,1-7,24.68C450.77,439.06,455.25,423.6,455.25,423.6Z"/><path class="cls-31" d="M451.34,420.88s0-13.7,7.17-24.42a1.27,1.27,0,0,1,2.36.76,47.27,47.27,0,0,1-5.28,25.1C447.92,436.61,451.34,420.88,451.34,420.88Z"/><path class="cls-31" d="M456,421.57s2.7-10.34,10.19-17.05c.8-.71,1.84,0,1.64,1a36.94,36.94,0,0,1-8.9,17.94C450.3,432.79,456,421.57,456,421.57Z"/><path class="cls-30" d="M445.87,422.5s1.53-13.6-4.34-25.07a1.27,1.27,0,0,0-2.43.48,47.24,47.24,0,0,0,2.39,25.54C447.48,438.52,445.87,422.5,445.87,422.5Z"/><path class="cls-30" d="M438.85,425.2s-1-13.67-8.82-23.87a1.27,1.27,0,0,0-2.3.91,47.37,47.37,0,0,0,7,24.69C443.34,440.65,438.85,425.2,438.85,425.2Z"/><path class="cls-31" d="M442.76,422.47s0-13.69-7.17-24.41a1.27,1.27,0,0,0-2.36.75,47.31,47.31,0,0,0,5.28,25.11C446.18,438.2,442.76,422.47,442.76,422.47Z"/><path class="cls-31" d="M450.72,423.21s2.58-13.45-2.39-25.34a1.27,1.27,0,0,0-2.46.3,47.17,47.17,0,0,0,.41,25.65C451.09,439.3,450.72,423.21,450.72,423.21Z"/><path class="cls-31" d="M438.14,423.17s-2.69-10.35-10.19-17.05c-.8-.71-1.84-.05-1.63,1a36.91,36.91,0,0,0,8.89,17.94C443.81,434.38,438.14,423.17,438.14,423.17Z"/><path class="cls-29" d="M429.42,420.51H465.8a0,0,0,0,1,0,0v13.35A11.84,11.84,0,0,1,454,445.71H440.64a11.84,11.84,0,0,1-11.84-11.84V421.13A.62.62,0,0,1,429.42,420.51Z"/><rect class="cls-32" x="481.95" y="348.54" width="143.28" height="68.16"/><path class="cls-33" d="M603.37,455.48s-2.12,5.26-1.37,5.81,3.32-1.68,4-4S603.37,455.48,603.37,455.48Z"/><path class="cls-34" d="M646.81,491h-28.5q-.54-1.31-1.14-2.7c-2.57-6-5.8-12.76-7.6-13.57-3.3-1.48-5.3-.18-9.41-5s-6.73-6.45-5.12-7.56,7,3.07,8.44,2.89c1.19-.15,1.81-3,1.71-6.08a18.63,18.63,0,0,0-.23-2.38h0c-.06-.39-.14-.77-.23-1.13a9.56,9.56,0,0,0-.52-1.59,1.93,1.93,0,0,1-.06-2c.92-1.27,4.29-.66,5.57-.36.57.14,2.32-.93,3.55-.32,1.92.94,3-.14,4.3.67.89.58,2.74.85,3.38,1.69,1.21,1.58,1.51,4.94,2.69,8,1.09,2.88,1.47,5.89,5.22,11,1.67,2.26,6.84,7.52,12.06,12.66C642.94,487.23,645,489.2,646.81,491Z"/><path class="cls-34" d="M604.13,451.87s-7.85,6.44-6.83,7.3,3.6,0,7.84-2.7S604.13,451.87,604.13,451.87Z"/><path class="cls-24" d="M649.16,491H615.53l-.32-.67a14.58,14.58,0,0,1,2-2c3.43-3,11.35-7.79,23.75-3q.83.31,1.68.69Z"/><path class="cls-33" d="M521,459s1.36,5.51.54,6-3-2.14-3.39-4.57S521,459,521,459Z"/><path class="cls-34" d="M522.18,473.56c-4.75,4.18-6.54,2.62-10,3.61-1.89.55-6,6.78-9.44,12.36l-.85,1.41-32.79-.11c2.8-2,6.69-4.81,10.56-7.66,5.89-4.35,11.75-8.82,13.73-10.83,4.42-4.51,5.22-7.44,6.71-10.13,1.59-2.86,1.54-6.24,3.73-6.2,1.08,0,2-1.4,3-1.85,1.37-.63,2.68.77,4.71.11,1.3-.43,3.09.72,3.67.67,1.12-.1,3.83-.52,5,.11.68.35.91,1,.15,2.25a10.34,10.34,0,0,0-.74,1.49c-.13.31-.24.63-.35,1a19.47,19.47,0,0,0-.6,2.45c-.53,3-.32,5.94.84,6.25,1.43.39,7.39-3.61,8.84-2.28S526.93,469.38,522.18,473.56Z"/><path class="cls-34" d="M520.14,455s11.85,3.53,11.23,4.72-6.82,1-11.76.08S520.14,455,520.14,455Z"/><path class="cls-24" d="M503.82,491h-1.95l-32.79-.11-4,0,12.77-7.2c.6-.16,1.18-.31,1.76-.44,12.94-3,20.11,2.9,23.08,6.36A17.17,17.17,0,0,1,503.82,491Z"/><path class="cls-35" d="M564.44,481.83a1.62,1.62,0,0,0,0,.22,1.94,1.94,0,0,0,.21.67,1.87,1.87,0,0,0,.32.42,1.82,1.82,0,0,0,1.31.54h26.05a1.86,1.86,0,1,0,0-3.71H566.29A1.85,1.85,0,0,0,564.44,481.83Z"/><path class="cls-35" d="M566.42,479.64h8.94a.29.29,0,0,0,.28-.29h0a.28.28,0,0,0-.28-.28h-8.94a.28.28,0,0,0-.28.28h0A.29.29,0,0,0,566.42,479.64Z"/><rect class="cls-36" x="566.92" y="479.64" width="0.97" height="0.34" transform="translate(1134.8 959.61) rotate(180)"/><path class="cls-36" d="M564.66,482.72a1.87,1.87,0,0,0,.32.42,1.82,1.82,0,0,0,1.31.54h5.52v-1Z"/><path class="cls-37" d="M597.65,481.28v1.09a1.34,1.34,0,0,1,0,.35,1.31,1.31,0,0,1-1.26,1H569.19a1.31,1.31,0,0,1-1.26-1,1.34,1.34,0,0,1,0-.35v-1.09a1.31,1.31,0,0,1,1.31-1.31h27.15A1.31,1.31,0,0,1,597.65,481.28Z"/><path class="cls-38" d="M597.6,482.72a1.31,1.31,0,0,1-1.26,1H569.19a1.31,1.31,0,0,1-1.26-1Z"/><path class="cls-39" d="M595,481.83a2.07,2.07,0,0,0,.54,1.44l0,0a1.35,1.35,0,0,0,.93.41,8.8,8.8,0,0,0,2.76-1.38l.71-.49-.71-.48a8.8,8.8,0,0,0-2.76-1.38,1.13,1.13,0,0,0-.45.09,1.45,1.45,0,0,0-.63.5,2.07,2.07,0,0,0-.38.91h0A2,2,0,0,0,595,481.83Z"/><path class="cls-40" d="M595,481.83a2.07,2.07,0,0,0,.54,1.44l4.18-1.44-4.69-.35A2,2,0,0,0,595,481.83Z"/><path class="cls-41" d="M595.36,480.56l4.17,1.14L596,480.06A1.45,1.45,0,0,0,595.36,480.56Z"/><path class="cls-42" d="M598.93,481.83a.52.52,0,0,0,.27.49l.71-.49-.71-.48A.51.51,0,0,0,598.93,481.83Z"/><rect class="cls-43" x="454.38" y="428.24" width="1.85" height="21.8" transform="matrix(0.99, -0.16, 0.16, 0.99, -63.98, 77.91)"/><polygon class="cls-44" points="452.97 424.58 452.66 428.52 454.49 428.23 452.97 424.58"/><rect class="cls-43" x="470.42" y="430.03" width="1.85" height="21.8" transform="translate(88.61 -78.78) rotate(10.54)"/><polygon class="cls-44" points="474.03 426.44 472.42 430.05 474.24 430.38 474.03 426.44"/><rect class="cls-43" x="468.12" y="423.75" width="1.85" height="21.8" transform="translate(87.43 -78.47) rotate(10.54)"/><polygon class="cls-44" points="471.73 420.15 470.12 423.76 471.94 424.1 471.73 420.15"/><rect class="cls-45" x="459.5" y="437.31" width="14.54" height="20.99"/><rect class="cls-46" x="452.23" y="437.31" width="14.54" height="20.99"/><rect class="cls-30" x="600.89" y="425.11" width="17.62" height="15.9" transform="translate(91.79 -106.43) rotate(10.78)"/><rect class="cls-31" x="600.89" y="426.53" width="17.62" height="2.29" transform="translate(90.79 -106.52) rotate(10.78)"/><rect class="cls-39" x="487.65" y="423.08" width="17.58" height="15.87" transform="translate(-86.81 127.62) rotate(-13.48)"/><rect class="cls-40" x="486.21" y="423.25" width="17.58" height="3.49" transform="translate(-85.44 127.11) rotate(-13.48)"/><rect class="cls-47" x="613.2" y="413.03" width="17.62" height="15.9" transform="translate(-63.38 113.79) rotate(-9.95)"/><rect class="cls-48" x="612.14" y="413.12" width="17.62" height="3.5" transform="translate(-62.34 113.51) rotate(-9.95)"/><rect class="cls-49" x="489.04" y="352.22" width="78.74" height="11.36"/><rect class="cls-49" x="570.5" y="363.59" width="46.73" height="28.81"/><rect class="cls-49" x="489.04" y="407.44" width="78.74" height="5.8"/><rect class="cls-50" x="489.04" y="365.51" width="78.74" height="2.36"/><rect class="cls-50" x="489.04" y="370.03" width="78.74" height="2.36"/><rect class="cls-50" x="489.04" y="397.14" width="78.74" height="2.36"/><rect class="cls-50" x="489.04" y="401.66" width="78.74" height="2.36"/><rect class="cls-50" x="528.41" y="374.54" width="39.37" height="2.36"/><rect class="cls-50" x="528.41" y="379.06" width="39.37" height="2.36"/><rect class="cls-50" x="528.41" y="383.58" width="39.37" height="2.36"/><rect class="cls-50" x="528.41" y="388.1" width="39.37" height="2.36"/><rect class="cls-50" x="528.41" y="392.62" width="39.37" height="2.36"/><rect class="cls-50" x="570.5" y="397.43" width="46.73" height="2.22"/><rect class="cls-50" x="570.5" y="401.69" width="46.73" height="2.22"/><rect class="cls-51" x="489.04" y="374.54" width="37.61" height="20.53"/><path class="cls-6" d="M516.85,361a.33.33,0,0,1-.21-.49l2.11-5.22a.45.45,0,0,1,.42-.29h0a.42.42,0,0,1,.39.29l2.16,5.22a.38.38,0,0,1-.7.29l-.48-1.17h-2.77l-.46,1.17A.32.32,0,0,1,516.85,361Zm1.23-2.12h2.17l-1.1-2.7Z"/><path class="cls-6" d="M523.44,361a.34.34,0,0,1-.38-.38v-5.29a.33.33,0,0,1,.38-.37h2.14a2.3,2.3,0,0,1,1.71.55,2.33,2.33,0,0,1,.55,1.71v1.51a2,2,0,0,1-2.26,2.27Zm.37-.75h1.77a2.42,2.42,0,0,0,.9-.14.92.92,0,0,0,.48-.47,2.52,2.52,0,0,0,.14-.91v-1.51a2.46,2.46,0,0,0-.14-.9.88.88,0,0,0-.48-.47,2.42,2.42,0,0,0-.9-.14h-1.77Z"/><path class="cls-6" d="M531,361a2.05,2.05,0,0,1-1.19-.31,1.41,1.41,0,0,1-.53-1,.36.36,0,0,1,.08-.29.38.38,0,0,1,.29-.1.37.37,0,0,1,.27.09.48.48,0,0,1,.12.27.54.54,0,0,0,.29.42,1.43,1.43,0,0,0,.67.12h1.28a1.09,1.09,0,0,0,.78-.21,1.08,1.08,0,0,0,.21-.77,1.13,1.13,0,0,0-.21-.79,1.12,1.12,0,0,0-.78-.21h-1.1a1.46,1.46,0,0,1-1.66-1.66,1.43,1.43,0,0,1,1.65-1.65h1.06a1.9,1.9,0,0,1,1.11.29,1.31,1.31,0,0,1,.51.89.35.35,0,0,1-.07.29.45.45,0,0,1-.3.1.33.33,0,0,1-.26-.1.48.48,0,0,1-.12-.27.57.57,0,0,0-.27-.36,1.51,1.51,0,0,0-.6-.09h-1.06a1,1,0,0,0-.72.19,1.47,1.47,0,0,0,0,1.43,1,1,0,0,0,.72.19h1.1A1.53,1.53,0,0,1,534,359.3a1.73,1.73,0,0,1-.43,1.3,1.75,1.75,0,0,1-1.31.43Z"/><path class="cls-6" d="M585.13,381.39a.33.33,0,0,1-.21-.49l2.12-5.22a.43.43,0,0,1,.41-.29h0a.41.41,0,0,1,.39.29L590,380.9a.38.38,0,1,1-.7.28l-.48-1.16h-2.77l-.46,1.16A.32.32,0,0,1,585.13,381.39Zm1.23-2.12h2.18l-1.11-2.7Z"/><path class="cls-6" d="M591.72,381.42a.33.33,0,0,1-.38-.37v-5.29a.33.33,0,0,1,.38-.37h2.14a2,2,0,0,1,2.26,2.26v1.51a2,2,0,0,1-2.26,2.26Zm.37-.74h1.77a2.52,2.52,0,0,0,.91-.14.88.88,0,0,0,.47-.48,2.42,2.42,0,0,0,.14-.9v-1.51a2.42,2.42,0,0,0-.14-.9.87.87,0,0,0-.47-.47,2.32,2.32,0,0,0-.91-.14h-1.77Z"/><path class="cls-6" d="M599.27,381.42a2.05,2.05,0,0,1-1.19-.3,1.41,1.41,0,0,1-.53-.95.36.36,0,0,1,.08-.29.38.38,0,0,1,.29-.1.37.37,0,0,1,.27.09.48.48,0,0,1,.12.27.54.54,0,0,0,.29.42,1.43,1.43,0,0,0,.67.12h1.28a1.07,1.07,0,0,0,.78-.21,1.09,1.09,0,0,0,.21-.77,1.12,1.12,0,0,0-.21-.79,1.1,1.1,0,0,0-.78-.21h-1.1a1.77,1.77,0,0,1-1.25-2.91,1.67,1.67,0,0,1,1.24-.4h1.06a1.83,1.83,0,0,1,1.11.29,1.31,1.31,0,0,1,.51.88.33.33,0,0,1-.07.29.39.39,0,0,1-.3.11.36.36,0,0,1-.26-.1.48.48,0,0,1-.12-.27.54.54,0,0,0-.27-.36,1.51,1.51,0,0,0-.6-.09h-1.06a1,1,0,0,0-.72.19,1.47,1.47,0,0,0,0,1.43,1,1,0,0,0,.72.19h1.1a1.81,1.81,0,0,1,1.31.43,1.76,1.76,0,0,1,.43,1.32,1.73,1.73,0,0,1-.43,1.3,1.79,1.79,0,0,1-1.31.42Z"/><path class="cls-6" d="M520.67,412.11c-.14-.05-.17-.14-.12-.28l1.18-2.9a.25.25,0,0,1,.23-.17h0a.23.23,0,0,1,.22.17l1.2,2.9a.19.19,0,0,1-.12.28A.18.18,0,0,1,523,412l-.27-.65h-1.54l-.26.65A.18.18,0,0,1,520.67,412.11Zm.68-1.18h1.21l-.61-1.5Z"/><path class="cls-6" d="M524.34,412.13a.19.19,0,0,1-.21-.21V409a.19.19,0,0,1,.21-.21h1.19a1.31,1.31,0,0,1,1,.31,1.28,1.28,0,0,1,.31.95v.85a1.3,1.3,0,0,1-.3.95,1.29,1.29,0,0,1-1,.31Zm.2-.42h1a1.34,1.34,0,0,0,.5-.08.49.49,0,0,0,.27-.26,1.36,1.36,0,0,0,.07-.5V410a1.3,1.3,0,0,0-.07-.49.48.48,0,0,0-.27-.27,1.34,1.34,0,0,0-.5-.08h-1Z"/><path class="cls-6" d="M528.54,412.13a1.15,1.15,0,0,1-.66-.17.78.78,0,0,1-.29-.53.19.19,0,0,1,0-.17.25.25,0,0,1,.16-.05.21.21,0,0,1,.15.05.26.26,0,0,1,.07.15.31.31,0,0,0,.16.24.86.86,0,0,0,.37.06h.72a.64.64,0,0,0,.43-.11.6.6,0,0,0,.12-.43.61.61,0,0,0-.12-.44.6.6,0,0,0-.43-.12h-.62a.94.94,0,0,1-.69-.23,1,1,0,0,1-.23-.7A.9.9,0,0,1,528,409a.92.92,0,0,1,.69-.23h.59a1,1,0,0,1,.62.17.71.71,0,0,1,.28.49.16.16,0,0,1,0,.16.21.21,0,0,1-.16.06.21.21,0,0,1-.15-.05.34.34,0,0,1-.07-.16.28.28,0,0,0-.15-.2.87.87,0,0,0-.33-.05h-.59a.56.56,0,0,0-.4.11.55.55,0,0,0-.1.39.57.57,0,0,0,.1.4.52.52,0,0,0,.4.11h.62a1,1,0,0,1,.73.24,1,1,0,0,1,.23.74,1,1,0,0,1-.23.72,1,1,0,0,1-.73.24Z"/><rect class="cls-1" x="435.63" y="251.02" width="239.86" height="239.86"/></svg>