<svg id="Слой_1" data-name="Слой 1" xmlns="http://www.w3.org/2000/svg" xmlns:xlink="http://www.w3.org/1999/xlink" viewBox="0 0 2181.91 2181.91"><defs><style>.cls-1{fill:none;}.cls-2{fill:url(#Degradado_sin_nombre_18);}.cls-3{fill:#333343;}.cls-4{fill:#d7f2ff;}.cls-5{fill:#0080ff;}.cls-6{fill:#fff;}.cls-7{fill:#3eecff;}.cls-8{fill:#012698;}.cls-9{fill:#001b71;}.cls-10{fill:#00a2ff;}.cls-11{fill:#00aeff;}.cls-12{fill:#0131bb;}.cls-13{fill:#0093ff;}.cls-14{fill:#00e9ff;}.cls-15{fill:#00caff;}.cls-16{fill:#0042d3;}.cls-17{clip-path:url(#clip-path);}.cls-18{fill:#0071f6;}.cls-19{fill:#00acff;}.cls-20{fill:#00164c;}.cls-21{fill:#0050a8;}</style><linearGradient id="Degradado_sin_nombre_18" x1="1075.19" y1="1426.56" x2="1075.19" y2="1530.48" gradientUnits="userSpaceOnUse"><stop offset="0" stop-color="#005edc"/><stop offset="1" stop-color="#0080ff" stop-opacity="0"/></linearGradient><clipPath id="clip-path"><ellipse class="cls-1" cx="1284.66" cy="1223.03" rx="52.94" ry="121.78" transform="translate(-218.69 281.71) rotate(-11.54)"/></clipPath></defs><polygon class="cls-2" points="1180.31 1440.02 1074.75 1432.01 1074.75 1428.15 1062.31 1430.39 1028.18 1425.96 1030.02 1436.2 970 1441.51 833.35 1544.45 1049.46 1544.45 1074.75 1544.45 1317.03 1544.45 1180.31 1440.02"/><path class="cls-3" d="M1249,890.32h-.63V823.86a39.91,39.91,0,0,0-39.9-39.91H966.6a39.9,39.9,0,0,0-39.9,39.91v66.46h-.64a5.21,5.21,0,0,0-5.21,5.21v46a5.21,5.21,0,0,0,5.21,5.21h.64v11h-.64a5.21,5.21,0,0,0-5.21,5.21v46a5.21,5.21,0,0,0,5.21,5.21h.64V1416.7a39.9,39.9,0,0,0,39.9,39.9h241.86a39.9,39.9,0,0,0,39.9-39.9V974.91h.63a5.21,5.21,0,0,0,5.21-5.21V895.53A5.21,5.21,0,0,0,1249,890.32Z"/><rect class="cls-4" x="938.31" y="793.82" width="298.44" height="652.91" rx="36.05"/><path class="cls-5" d="M1004.61,962.58a89.24,89.24,0,1,1,89.25,89.24A89.21,89.21,0,0,1,1004.61,962.58Z"/><path class="cls-6" d="M1118,962.61h-15.8v56.29h-23.35V962.61h-11.15V942.74h11.15V929.88c0-9.23,4.36-23.6,23.56-23.6l17.36.06v19.32h-12.58c-2.06,0-5,1-5,5.36v11.72H1120Zm0,0"/><rect class="cls-7" x="948.32" y="1264.7" width="67.4" height="32.96" rx="6.29" transform="translate(-236.44 222.34) rotate(-11.54)"/><rect class="cls-8" x="1015.16" y="1270.97" width="47.18" height="133.03" rx="9" transform="translate(-246.53 234.8) rotate(-11.54)"/><path class="cls-9" d="M1044.87,1301l-8.78-.49-25.89,15s25,4.31,50.22,10.11c-4-16.07-7.47-22-7.47-22S1053.64,1301.5,1044.87,1301Z"/><rect class="cls-7" x="1051.87" y="1303.83" width="15.37" height="39.86" rx="2.93" transform="translate(-243.44 238.77) rotate(-11.54)"/><path class="cls-5" d="M1296.43,1184.3s-28.7-43.64-54.37-88.7c-84.76,113.45-266.09,156-266.09,156v.06c-8.36,1.7-12.11,17.88-8.39,36.13s13.52,31.65,21.88,30h0c1.48-.26,184-31.66,305.9,39.2,5.95-51.52,15.26-102.92,15.26-102.92l-26-31Z"/><path class="cls-10" d="M976.22,1252.79v0s181.33-42.54,266.08-156c23.92,42,50.47,82.73,54,88.09l.16-.54s-28.7-43.64-54.37-88.7c-84.76,113.45-266.09,156-266.09,156v.06c-8.36,1.7-12.11,17.88-8.39,36.13,0,.19.09.38.13.57C964.19,1270.33,968,1254.48,976.22,1252.79Z"/><path class="cls-10" d="M1284.91,1224.16l25.62,30.55c.08-.46.13-.72.13-.72l-25.56-30.47Z"/><path class="cls-11" d="M1027.52,1235.86c-6.67,2.35-12.89,4.43-18.51,6.23-2.36,10.29-2.37,23.18.47,37.12s7.89,25.75,14.08,34.29c5.86-.55,12.37-1.07,19.41-1.52-5.73-3.22-14.52-15-18.75-35.77S1023.48,1241,1027.52,1235.86Z"/><path class="cls-7" d="M1003.17,1243.93c-1.51.47-3,.92-4.39,1.34-4.75,7.53-6.17,21.36-3,36.75s9.81,27.47,17.11,32.56l4.51-.48c-7.64-2.75-15.75-16-19.13-32.59S997.15,1249.37,1003.17,1243.93Z"/><path class="cls-12" d="M1098.6,1206.17q-9.49,4.65-18.72,8.78c-3.54,13.34-3.73,30.81.16,49.86s10.89,35,19.36,45.88c6.7.12,13.58.36,20.6.72-9.17-4.67-21.2-21.87-26.8-49.29S1092,1214,1098.6,1206.17Z"/><path class="cls-12" d="M1137.1,1185.46q-9.54,5.64-19.07,10.74c-4.29,16.16-4.5,37.5.26,60.8s13.28,42.79,23.55,56q10.73,1,21.68,2.4c-12.07-7.31-25.82-29.58-32.24-61S1128.8,1196.86,1137.1,1185.46Z"/><ellipse class="cls-13" cx="1271.28" cy="1225.76" rx="62.48" ry="136.37" transform="translate(-219.51 279.09) rotate(-11.54)"/><ellipse class="cls-14" cx="1280.74" cy="1223.83" rx="63.28" ry="136.37" transform="translate(-218.93 280.94) rotate(-11.54)"/><ellipse class="cls-15" cx="1281.53" cy="1223.67" rx="62.48" ry="136.37" transform="translate(-218.88 281.09) rotate(-11.54)"/><path class="cls-7" d="M1254.25,1090.06l-.57.15c33.68-6.18,72.94,47.82,87.92,121.2s0,138.44-33.37,146c.19,0,.38,0,.58-.09,33.8-6.9,49-72.32,33.93-146.11S1288.05,1083.16,1254.25,1090.06Z"/><ellipse class="cls-16" cx="1284.66" cy="1223.03" rx="52.94" ry="121.78" transform="translate(-218.69 281.71) rotate(-11.54)"/><g class="cls-17"><circle class="cls-5" cx="1226.18" cy="1234.97" r="59.69" transform="translate(-514.12 1228.75) rotate(-45)"/><path class="cls-18" d="M1226.31,1235.6a47.67,47.67,0,0,1,27.88-53.34,59.71,59.71,0,1,0,17.41,91.41A47.64,47.64,0,0,1,1226.31,1235.6Z"/><path class="cls-19" d="M1214.24,1176.49c-.31.06-.61.14-.92.21a59.67,59.67,0,0,1,23.87,116.92l.93-.16a59.69,59.69,0,0,0-23.88-117Z"/></g><path class="cls-9" d="M1266.15,853.45a55,55,0,0,0-36,96.73l-8.23,23.89,25.89-13.64a55.06,55.06,0,1,0,18.33-107Z"/><path class="cls-20" d="M1320.54,917.28l-23.69-23.69-15.91,7-10.83,3.51-4,34.77,20.69,20.69A55.15,55.15,0,0,0,1320.54,917.28Z"/><path class="cls-21" d="M1229.84,951.11l-7.91,23,.51-.27,7.72-22.4Z"/><path class="cls-21" d="M1266.15,854.66a55.08,55.08,0,0,1,55.07,54.48c0-.2,0-.4,0-.61a55.09,55.09,0,0,0-110.18,0c0,.2,0,.39,0,.58A55.08,55.08,0,0,1,1266.15,854.66Z"/><path class="cls-4" d="M1300.29,903.1A18.88,18.88,0,0,0,1266.15,892a18.88,18.88,0,1,0-26.55,26.25h0l26.55,20.68,26.55-20.68h0A18.84,18.84,0,0,0,1300.29,903.1Z"/><path class="cls-6" d="M1250.91,884.73a18.86,18.86,0,0,1,15.24,7.76,18.87,18.87,0,0,1,34.12,10.85c0-.08,0-.16,0-.24A18.88,18.88,0,0,0,1266.15,892,18.88,18.88,0,0,0,1232,903.1c0,.08,0,.16,0,.24A18.89,18.89,0,0,1,1250.91,884.73Z"/><path class="cls-9" d="M866.65,889.8A21.87,21.87,0,0,1,881,928.23l3.27,9.49-10.29-5.42a21.67,21.67,0,0,1-7.28,1.27,21.89,21.89,0,1,1,0-43.77Z"/><path class="cls-20" d="M845,915.16l9.41-9.41,6.32,2.79,4.3,1.39,1.58,13.82L858.43,932A21.91,21.91,0,0,1,845,915.16Z"/><path class="cls-21" d="M881.07,928.6l3.15,9.12-.21-.11-3.06-8.9Z"/><path class="cls-21" d="M866.65,890.28a21.88,21.88,0,0,0-21.88,21.64c0-.08,0-.16,0-.24a21.89,21.89,0,0,1,43.77,0v.23A21.88,21.88,0,0,0,866.65,890.28Z"/><path class="cls-4" d="M853.09,909.52a7.5,7.5,0,0,1,13.56-4.42,7.5,7.5,0,1,1,10.54,10.43h0l-10.54,8.22-10.55-8.22h0A7.49,7.49,0,0,1,853.09,909.52Z"/><path class="cls-6" d="M872.7,902.23a7.46,7.46,0,0,0-6.05,3.08,7.5,7.5,0,0,0-13.56,4.31v-.1a7.5,7.5,0,0,1,13.56-4.42,7.5,7.5,0,0,1,13.56,4.42.34.34,0,0,1,0,.1A7.5,7.5,0,0,0,872.7,902.23Z"/><path class="cls-9" d="M1201.45,637.46a80.14,80.14,0,0,0-52.38,140.83l-12,34.77,37.68-19.86a80.16,80.16,0,1,0,26.69-155.74Z"/><path class="cls-20" d="M1280.12,733.29,1215,669.19l-6.74,3.3-6.77,24.69L1195.1,715l-14.61,3.5-12,33.88L1213.12,797A80.27,80.27,0,0,0,1280.12,733.29Z"/><path class="cls-21" d="M1148.6,779.63l-11.52,33.43.74-.39,11.25-32.61Z"/><path class="cls-21" d="M1201.45,639.23a80.19,80.19,0,0,1,80.18,79.31c0-.3,0-.59,0-.89a80.2,80.2,0,0,0-160.39,0c0,.29,0,.57,0,.85A80.19,80.19,0,0,1,1201.45,639.23Z"/><rect class="cls-4" x="1225.2" y="701.38" width="22.03" height="53.37"/><rect class="cls-6" x="1225.2" y="701.38" width="22.03" height="0.86"/><path class="cls-4" d="M1208.22,666.82a10.78,10.78,0,0,0-10.78,10.78v17h-37.59a10.78,10.78,0,0,0,0,21.56h3.56v24.35A16.48,16.48,0,0,0,1179.89,757h31.22a7.89,7.89,0,0,0,7.89-7.9V677.6A10.78,10.78,0,0,0,1208.22,666.82Z"/><path class="cls-6" d="M1159.85,695.13h37.59v-.55h-37.59a10.78,10.78,0,0,0-10.78,10.78c0,.1,0,.18,0,.28A10.77,10.77,0,0,1,1159.85,695.13Z"/><path class="cls-6" d="M1208.22,666.82a10.78,10.78,0,0,0-10.78,10.78v.55a10.78,10.78,0,0,1,21.56,0v-.55A10.78,10.78,0,0,0,1208.22,666.82Z"/><path class="cls-9" d="M1236.21,741.35a4.59,4.59,0,1,1-4.59,4.59A4.59,4.59,0,0,1,1236.21,741.35Z"/><path class="cls-9" d="M934.57,725.85a64.34,64.34,0,0,1,42.06,113.07l9.63,27.92L956,850.9a64.37,64.37,0,1,1-21.43-125Z"/><path class="cls-20" d="M975.63,800.1l-53.34,53.35a64.44,64.44,0,0,1-51.38-53.56l29.34-28.24,13-1.47,15.2-5.16L934,759.5l10.84,1.4L955,764l13.72,13.7L961.62,791l-1.18,4.45,6.18-1.32-4.12,7.16,4.12.93Z"/><path class="cls-21" d="M977,840l9.25,26.84-.6-.32-9-26.18Z"/><path class="cls-21" d="M934.57,727.28A64.37,64.37,0,0,0,870.2,791c0-.24,0-.47,0-.71a64.39,64.39,0,1,1,128.78,0c0,.23,0,.45,0,.68A64.37,64.37,0,0,0,934.57,727.28Z"/><path class="cls-4" d="M956.63,795.08a34.53,34.53,0,0,0-23.3-32.63,24.95,24.95,0,1,1,34.94,34.88c1.16,2,3.65,4.15,9,2.77,0,0-7.74,9.25-18.62,1.63a25,25,0,0,1-2.77.44A34.52,34.52,0,0,0,956.63,795.08Z"/><path class="cls-4" d="M922.08,764a31.23,31.23,0,0,0-18.68,56.27c-1.45,2.53-4.58,5.2-11.28,3.48,0,0,9.69,11.57,23.3,2a31.83,31.83,0,0,0,6.66.73,31.26,31.26,0,1,0,0-62.52Z"/><path class="cls-4" d="M956.63,795.08a34.53,34.53,0,0,0-23.3-32.63,24.95,24.95,0,1,1,34.94,34.88c1.16,2,3.65,4.15,9,2.77,0,0-7.74,9.25-18.62,1.63a25,25,0,0,1-2.77.44A34.52,34.52,0,0,0,956.63,795.08Z"/><path class="cls-4" d="M922.08,764a31.23,31.23,0,0,0-18.68,56.27c-1.45,2.53-4.58,5.2-11.28,3.48,0,0,9.69,11.57,23.3,2a31.83,31.83,0,0,0,6.66.73,31.26,31.26,0,1,0,0-62.52Z"/><path class="cls-6" d="M953.34,795.24c0,.12,0,.24,0,.37a31.24,31.24,0,0,0-62.47,0c0-.12,0-.23,0-.34a31.26,31.26,0,1,1,62.51,0Z"/><path class="cls-6" d="M953.34,753.11a24.85,24.85,0,0,0-19.54,9.52c-.16-.06-.31-.13-.47-.18a24.95,24.95,0,0,1,45,14.89c0,.12,0,.22,0,.34A25,25,0,0,0,953.34,753.11Z"/><path class="cls-6" d="M903.08,820.72l.32.27c-1.39,2.4-4.33,4.9-10.41,3.64a12,12,0,0,1-.87-.9C898.4,825.34,901.52,823.09,903.08,820.72Z"/><path class="cls-6" d="M956.63,795.82a34.74,34.74,0,0,1-.62,6.33l-.12,0a34.32,34.32,0,0,0,.72-6.77C956.61,795.54,956.63,795.68,956.63,795.82Z"/><path class="cls-6" d="M968.27,798.06c.11-.08.21-.18.31-.26,1.27,1.85,3.76,3.57,8.7,2.3a10.86,10.86,0,0,1-.9.91C971.66,801.92,969.36,800,968.27,798.06Z"/><path class="cls-9" d="M914.87,986.18a51.82,51.82,0,0,1,33.87,91.06l7.76,22.48-24.37-12.84a51.83,51.83,0,1,1-17.26-100.7Z"/><path class="cls-20" d="M965.13,1050.73l-36.47-36.47L926.4,1022l-2.41,4.11-9.12,2.3-10.13-.78-3.12,2.1,1.73,14.15-2.66,19.7,25.11,25.11a52.12,52.12,0,0,0,6.33-1.81l24.37,12.84-7.76-22.48A51.94,51.94,0,0,0,965.13,1050.73Z"/><path class="cls-21" d="M949.05,1078.11l7.45,21.61-.48-.25-7.28-21.09Z"/><path class="cls-21" d="M914.87,987.33A51.84,51.84,0,0,0,863,1038.61c0-.19,0-.38,0-.57a51.85,51.85,0,1,1,103.7,0c0,.18,0,.36,0,.54A51.84,51.84,0,0,0,914.87,987.33Z"/><path class="cls-4" d="M903.35,1064.57h0a4.15,4.15,0,0,1-4.14-4.14v-42.55a4.15,4.15,0,0,1,4.14-4.13h0a4.15,4.15,0,0,1,4.14,4.13v42.55A4.15,4.15,0,0,1,903.35,1064.57Z"/><path class="cls-4" d="M926.4,1064.57h0a4.15,4.15,0,0,1-4.14-4.14v-42.55a4.15,4.15,0,0,1,4.14-4.13h0a4.15,4.15,0,0,1,4.14,4.13v42.55A4.15,4.15,0,0,1,926.4,1064.57Z"/><path class="cls-4" d="M940.29,1050.68h0a4.15,4.15,0,0,1-4.14,4.14H893.6a4.15,4.15,0,0,1-4.14-4.14h0a4.15,4.15,0,0,1,4.14-4.13h42.55A4.15,4.15,0,0,1,940.29,1050.68Z"/><path class="cls-4" d="M940.29,1027.63h0a4.15,4.15,0,0,1-4.14,4.14H893.6a4.15,4.15,0,0,1-4.14-4.14h0a4.15,4.15,0,0,1,4.14-4.13h42.55A4.15,4.15,0,0,1,940.29,1027.63Z"/><path d="M984.49,1081.12H999v2.93H988v9h10.22v2.88H988v12.22h-3.48Z"/><path d="M1012.81,1108.12l-.28-2.44h-.12a7.22,7.22,0,0,1-5.93,2.88,5.52,5.52,0,0,1-5.92-5.57c0-4.68,4.16-7.25,11.65-7.21v-.4c0-1.6-.44-4.48-4.4-4.48a9.65,9.65,0,0,0-5,1.44l-.8-2.32a11.94,11.94,0,0,1,6.37-1.73c5.92,0,7.37,4,7.37,7.93v7.25a27.31,27.31,0,0,0,.32,4.65Zm-.52-9.89c-3.84-.08-8.21.6-8.21,4.36a3.12,3.12,0,0,0,3.32,3.37,4.82,4.82,0,0,0,4.69-3.25,3.67,3.67,0,0,0,.2-1.12Z"/><path d="M1035.21,1107.4a13.06,13.06,0,0,1-5.57,1.12c-5.85,0-9.66-4-9.66-9.89s4.09-10.3,10.42-10.3a11.86,11.86,0,0,1,4.89,1l-.81,2.73a8.16,8.16,0,0,0-4.08-.92c-4.45,0-6.85,3.28-6.85,7.33,0,4.48,2.88,7.25,6.73,7.25a10,10,0,0,0,4.32-1Z"/><path d="M1041.06,1099.07c.08,4.76,3.12,6.73,6.65,6.73a12.73,12.73,0,0,0,5.36-1l.6,2.52a15.68,15.68,0,0,1-6.44,1.2c-6,0-9.54-3.92-9.54-9.77s3.45-10.46,9.09-10.46c6.33,0,8,5.57,8,9.14a13.28,13.28,0,0,1-.12,1.64Zm10.33-2.53c0-2.24-.92-5.72-4.89-5.72-3.56,0-5.12,3.28-5.4,5.72Z"/><path d="M1059,1108.12c.08-1.32.16-3.28.16-5v-23.43h3.49v12.18h.08a7.22,7.22,0,0,1,6.61-3.57c4.81,0,8.21,4,8.17,9.9,0,6.93-4.37,10.37-8.69,10.37a6.9,6.9,0,0,1-6.49-3.64h-.12l-.16,3.2Zm3.65-7.77a6.59,6.59,0,0,0,.16,1.28,5.44,5.44,0,0,0,5.29,4.13c3.68,0,5.89-3,5.89-7.45,0-3.89-2-7.21-5.77-7.21a5.61,5.61,0,0,0-5.37,4.32,6.94,6.94,0,0,0-.2,1.45Z"/><path d="M1099.5,1098.27c0,7.17-5,10.29-9.65,10.29-5.25,0-9.29-3.84-9.29-10,0-6.49,4.24-10.3,9.61-10.3C1095.74,1088.29,1099.5,1092.34,1099.5,1098.27Zm-15.38.2c0,4.24,2.45,7.45,5.89,7.45s5.89-3.17,5.89-7.53c0-3.29-1.64-7.45-5.81-7.45S1084.12,1094.78,1084.12,1098.47Z"/><path d="M1121.5,1098.27c0,7.17-5,10.29-9.66,10.29-5.24,0-9.29-3.84-9.29-10,0-6.49,4.25-10.3,9.61-10.3C1117.73,1088.29,1121.5,1092.34,1121.5,1098.27Zm-15.38.2c0,4.24,2.44,7.45,5.88,7.45s5.89-3.17,5.89-7.53c0-3.29-1.64-7.45-5.81-7.45S1106.12,1094.78,1106.12,1098.47Z"/><path d="M1129.43,1097.63h.08c.48-.68,1.16-1.53,1.72-2.21l5.69-6.69h4.25l-7.49,8,8.53,11.42h-4.29l-6.69-9.29-1.8,2v7.29H1126v-28.44h3.48Z"/><path d="M1157.71,1099.63l-2.8,8.49h-3.6l9.17-27h4.2l9.22,27h-3.73l-2.88-8.49Zm8.86-2.72-2.65-7.78c-.6-1.76-1-3.36-1.4-4.92h-.08c-.4,1.6-.84,3.24-1.36,4.88l-2.64,7.82Z"/><path d="M1194,1079.68v23.43c0,1.73,0,3.69.16,5H1191l-.16-3.36h-.08a7.16,7.16,0,0,1-6.6,3.8c-4.69,0-8.3-4-8.3-9.85,0-6.45,4-10.42,8.7-10.42a6.48,6.48,0,0,1,5.84,3h.08v-11.58Zm-3.53,16.94a6.21,6.21,0,0,0-.16-1.48,5.18,5.18,0,0,0-5.08-4.08c-3.65,0-5.81,3.2-5.81,7.49,0,3.92,1.92,7.17,5.73,7.17a5.3,5.3,0,0,0,5.16-4.21,6.11,6.11,0,0,0,.16-1.52Z"/><path d="M1199.38,1104.52a9.23,9.23,0,0,0,4.65,1.4c2.56,0,3.76-1.28,3.76-2.89s-1-2.6-3.6-3.56c-3.49-1.24-5.13-3.17-5.13-5.49,0-3.12,2.52-5.69,6.69-5.69a9.74,9.74,0,0,1,4.77,1.2l-.89,2.57a7.53,7.53,0,0,0-4-1.12c-2.08,0-3.25,1.2-3.25,2.64,0,1.6,1.17,2.32,3.69,3.29,3.36,1.28,5.09,3,5.09,5.84,0,3.41-2.65,5.81-7.25,5.81a11.05,11.05,0,0,1-5.45-1.32Z"/></svg>