<svg id="Слой_1" data-name="Слой 1" xmlns="http://www.w3.org/2000/svg" xmlns:xlink="http://www.w3.org/1999/xlink" viewBox="0 0 2181.91 2181.91"><defs><style>.cls-1{fill:none;}.cls-2{fill:url(#Безымянный_градиент_46);}.cls-3{fill:#333343;}.cls-4{fill:#f0eae4;}.cls-5{fill:#f99746;}.cls-6{fill:#fff;}.cls-7{fill:#0050a8;}.cls-8{fill:#d7f2ff;}.cls-9{fill:#bd5600;}.cls-10{fill:#936037;}.cls-11{fill:#432918;}.cls-12{fill:#683c11;}.cls-13{fill:#f6f6f6;}.cls-14{clip-path:url(#clip-path);}.cls-15{fill:#f39200;}.cls-16{fill:#ffb27d;}.cls-17{fill:#efa26f;}.cls-18{fill:#ffc197;}.cls-19{fill:#2b478b;}.cls-20{fill:#9fc5ed;}.cls-21{fill:#ffd3b6;}.cls-22{fill:#ed7d2b;}.cls-23{fill:#f7faff;}.cls-24{fill:#cbe1fd;}.cls-25{fill:#9ec3f6;}.cls-26{fill:#f2f7ff;}.cls-27{fill:#a8d29f;}.cls-28{fill:#82b378;}.cls-29{fill:#ffb93e;}.cls-30{fill:#ffa412;}.cls-31{fill:#d1f2c9;}.cls-32{fill:#95c38b;}.cls-33{fill:#699dee;}.cls-34{fill:#92beff;}.cls-35{fill:#fcecdb;}.cls-36{fill:#efcbab;}</style><linearGradient id="Безымянный_градиент_46" x1="1088.41" y1="1426.56" x2="1088.41" y2="1530.48" gradientUnits="userSpaceOnUse"><stop offset="0.24" stop-color="#bd5600"/><stop offset="1" stop-color="#fff" stop-opacity="0"/></linearGradient><clipPath id="clip-path"><ellipse class="cls-1" cx="1271.45" cy="1223.03" rx="52.94" ry="121.78" transform="translate(-218.96 279.07) rotate(-11.54)"/></clipPath></defs><polygon class="cls-2" points="1193.53 1440.02 1087.97 1432.01 1087.97 1428.15 1075.53 1430.39 1041.4 1425.96 1043.24 1436.2 983.22 1441.51 846.56 1544.45 1062.68 1544.45 1087.97 1544.45 1330.25 1544.45 1193.53 1440.02"/><path class="cls-3" d="M1262.21,890.32h-.63V823.86A39.91,39.91,0,0,0,1221.67,784H979.82a39.91,39.91,0,0,0-39.91,39.91v66.46h-.63a5.21,5.21,0,0,0-5.21,5.21v46a5.21,5.21,0,0,0,5.21,5.21h.63v11h-.63a5.21,5.21,0,0,0-5.21,5.21v46a5.21,5.21,0,0,0,5.21,5.21h.63V1416.7a39.9,39.9,0,0,0,39.91,39.9h241.85a39.9,39.9,0,0,0,39.91-39.9V974.91h.63a5.21,5.21,0,0,0,5.21-5.21V895.53A5.21,5.21,0,0,0,1262.21,890.32Z"/><rect class="cls-4" x="951.53" y="793.82" width="298.44" height="652.91" rx="36.05"/><path class="cls-5" d="M1279.37,853.45a55,55,0,0,0-36,96.73l-8.24,23.89L1261,960.43a55.07,55.07,0,1,0,18.34-107Z"/><path class="cls-6" d="M1313.51,903.1A18.88,18.88,0,0,0,1279.37,892a18.88,18.88,0,1,0-26.55,26.25h0l26.55,20.68,26.55-20.68h0A18.84,18.84,0,0,0,1313.51,903.1Z"/><path class="cls-6" d="M1264.13,884.73a18.88,18.88,0,0,1,15.24,7.76,18.87,18.87,0,0,1,34.12,10.85c0-.08,0-.16,0-.24A18.88,18.88,0,0,0,1279.37,892a18.88,18.88,0,0,0-34.14,11.14c0,.08,0,.16,0,.24A18.89,18.89,0,0,1,1264.13,884.73Z"/><path class="cls-5" d="M879.87,889.8a21.87,21.87,0,0,1,14.29,38.43l3.28,9.49-10.29-5.42a21.88,21.88,0,1,1-7.28-42.5Z"/><path class="cls-6" d="M866.3,909.52a7.51,7.51,0,0,1,13.57-4.42,7.5,7.5,0,1,1,10.54,10.43h0l-10.54,8.22-10.55-8.22h0A7.49,7.49,0,0,1,866.3,909.52Z"/><path class="cls-6" d="M885.92,902.23a7.46,7.46,0,0,0-6,3.08,7.5,7.5,0,0,0-13.56,4.31s0-.07,0-.1a7.51,7.51,0,0,1,13.57-4.42,7.5,7.5,0,0,1,13.56,4.42s0,.07,0,.1A7.5,7.5,0,0,0,885.92,902.23Z"/><path class="cls-5" d="M1214.67,637.46a80.14,80.14,0,0,0-52.39,140.83l-12,34.77L1188,793.2a80.16,80.16,0,1,0,26.69-155.74Z"/><rect class="cls-6" x="1238.41" y="701.38" width="22.03" height="53.37"/><rect class="cls-6" x="1238.41" y="701.38" width="22.03" height="0.86"/><path class="cls-6" d="M1221.44,666.82a10.78,10.78,0,0,0-10.78,10.78v17h-37.59a10.78,10.78,0,1,0,0,21.56h3.56v24.35A16.48,16.48,0,0,0,1193.11,757h31.21a7.89,7.89,0,0,0,7.9-7.9V677.6A10.78,10.78,0,0,0,1221.44,666.82Z"/><path class="cls-6" d="M1173.07,695.13h37.59v-.55h-37.59a10.79,10.79,0,0,0-10.79,10.78c0,.1,0,.18,0,.28A10.77,10.77,0,0,1,1173.07,695.13Z"/><path class="cls-6" d="M1221.44,666.82a10.78,10.78,0,0,0-10.78,10.78v.55a10.78,10.78,0,1,1,21.56,0v-.55A10.78,10.78,0,0,0,1221.44,666.82Z"/><path class="cls-5" d="M947.79,725.85a64.34,64.34,0,0,1,42.06,113.07l9.63,27.92L969.22,850.9a64.37,64.37,0,1,1-21.43-125Z"/><path class="cls-7" d="M990.22,840l9.26,26.84-.6-.32-9-26.18Z"/><path class="cls-8" d="M969.85,795.08a34.53,34.53,0,0,0-23.3-32.63,24.95,24.95,0,1,1,34.94,34.88c1.16,2,3.65,4.15,9,2.77,0,0-7.74,9.25-18.62,1.63a25.36,25.36,0,0,1-2.77.44A34.52,34.52,0,0,0,969.85,795.08Z"/><path class="cls-8" d="M935.3,764a31.23,31.23,0,0,0-18.69,56.27c-1.44,2.53-4.57,5.2-11.28,3.48,0,0,9.7,11.57,23.31,2a31.75,31.75,0,0,0,6.66.73,31.26,31.26,0,0,0,0-62.52Z"/><path class="cls-6" d="M969.85,795.08a34.53,34.53,0,0,0-23.3-32.63,24.95,24.95,0,1,1,34.94,34.88c1.16,2,3.65,4.15,9,2.77,0,0-7.74,9.25-18.62,1.63a25.36,25.36,0,0,1-2.77.44A34.52,34.52,0,0,0,969.85,795.08Z"/><path class="cls-6" d="M935.3,764a31.23,31.23,0,0,0-18.69,56.27c-1.44,2.53-4.57,5.2-11.28,3.48,0,0,9.7,11.57,23.31,2a31.75,31.75,0,0,0,6.66.73,31.26,31.26,0,0,0,0-62.52Z"/><path class="cls-6" d="M966.56,795.24c0,.12,0,.24,0,.37a31.24,31.24,0,0,0-62.47,0c0-.12,0-.23,0-.34a31.26,31.26,0,1,1,62.51,0Z"/><path class="cls-6" d="M966.56,753.11A24.88,24.88,0,0,0,947,762.63c-.15-.06-.3-.13-.46-.18a24.95,24.95,0,0,1,45,14.89c0,.12,0,.22,0,.34A25,25,0,0,0,966.56,753.11Z"/><path class="cls-6" d="M916.3,820.72l.31.27c-1.38,2.4-4.32,4.9-10.4,3.64-.56-.53-.88-.9-.88-.9C911.62,825.34,914.74,823.09,916.3,820.72Z"/><path class="cls-6" d="M969.85,795.82a34.74,34.74,0,0,1-.62,6.33l-.12,0a34.32,34.32,0,0,0,.72-6.77C969.83,795.54,969.85,795.68,969.85,795.82Z"/><path class="cls-6" d="M981.49,798.06c.11-.08.2-.18.31-.26,1.27,1.85,3.76,3.57,8.7,2.3a10.86,10.86,0,0,1-.9.91C984.88,801.92,982.58,800,981.49,798.06Z"/><path class="cls-5" d="M928.09,986.18A51.82,51.82,0,0,1,962,1077.24l7.76,22.48-24.37-12.84a51.83,51.83,0,1,1-17.26-100.7Z"/><path class="cls-5" d="M962.26,1078.11l7.46,21.61-.49-.25L962,1078.38Z"/><path class="cls-6" d="M916.57,1064.57h0a4.15,4.15,0,0,1-4.14-4.14v-42.55a4.15,4.15,0,0,1,4.14-4.13h0a4.14,4.14,0,0,1,4.13,4.13v42.55A4.15,4.15,0,0,1,916.57,1064.57Z"/><path class="cls-6" d="M939.62,1064.57h0a4.15,4.15,0,0,1-4.14-4.14v-42.55a4.15,4.15,0,0,1,4.14-4.13h0a4.14,4.14,0,0,1,4.13,4.13v42.55A4.15,4.15,0,0,1,939.62,1064.57Z"/><path class="cls-6" d="M953.5,1050.68h0a4.15,4.15,0,0,1-4.13,4.14H906.82a4.15,4.15,0,0,1-4.14-4.14h0a4.15,4.15,0,0,1,4.14-4.13h42.55A4.14,4.14,0,0,1,953.5,1050.68Z"/><path class="cls-6" d="M953.5,1027.63h0a4.15,4.15,0,0,1-4.13,4.14H906.82a4.15,4.15,0,0,1-4.14-4.14h0a4.15,4.15,0,0,1,4.14-4.13h42.55A4.14,4.14,0,0,1,953.5,1027.63Z"/><rect class="cls-9" x="935.1" y="1264.7" width="67.4" height="32.96" rx="6.29" transform="translate(-236.71 219.7) rotate(-11.54)"/><rect class="cls-9" x="1001.95" y="1270.97" width="47.18" height="133.03" rx="9" transform="translate(-246.8 232.15) rotate(-11.54)"/><path class="cls-10" d="M1031.65,1301l-8.77-.49-25.89,15s25,4.31,50.21,10.11c-4-16.07-7.47-22-7.47-22S1040.42,1301.5,1031.65,1301Z"/><rect class="cls-11" x="1038.65" y="1303.83" width="15.37" height="39.86" rx="2.93" transform="translate(-243.71 236.13) rotate(-11.54)"/><path class="cls-5" d="M1283.22,1184.3s-28.71-43.64-54.38-88.7c-84.76,113.45-266.09,156-266.09,156v.06c-8.36,1.7-12.11,17.88-8.39,36.13s13.53,31.65,21.89,30h0c1.48-.26,184-31.66,305.9,39.2,6-51.52,15.26-102.92,15.26-102.92l-26-31Z"/><path class="cls-11" d="M1014.3,1235.86c-6.67,2.35-12.89,4.43-18.51,6.23-2.36,10.29-2.37,23.18.48,37.12s7.89,25.75,14.07,34.29c5.86-.55,12.37-1.07,19.41-1.52-5.73-3.22-14.52-15-18.75-35.77S1010.26,1241,1014.3,1235.86Z"/><path class="cls-11" d="M990,1243.93l-4.39,1.34c-4.76,7.53-6.17,21.36-3,36.75s9.82,27.47,17.11,32.56l4.51-.48c-7.64-2.75-15.75-16-19.13-32.59S983.93,1249.37,990,1243.93Z"/><path class="cls-12" d="M1085.38,1206.17q-9.5,4.65-18.72,8.78c-3.54,13.34-3.73,30.81.16,49.86s10.89,35,19.36,45.88q10.07.18,20.6.72c-9.17-4.67-21.2-21.87-26.8-49.29S1078.74,1214,1085.38,1206.17Z"/><path class="cls-12" d="M1123.88,1185.46q-9.54,5.64-19.07,10.74c-4.29,16.16-4.5,37.5.26,60.8s13.29,42.79,23.55,56q10.73,1,21.68,2.4c-12.07-7.31-25.81-29.58-32.23-61S1115.59,1196.86,1123.88,1185.46Z"/><ellipse class="cls-9" cx="1258.06" cy="1225.76" rx="62.48" ry="136.37" transform="translate(-219.78 276.44) rotate(-11.54)"/><ellipse class="cls-13" cx="1267.52" cy="1223.83" rx="63.28" ry="136.37" transform="translate(-219.2 278.29) rotate(-11.54)"/><ellipse class="cls-5" cx="1268.31" cy="1223.67" rx="62.48" ry="136.37" transform="translate(-219.15 278.45) rotate(-11.54)"/><ellipse class="cls-9" cx="1271.45" cy="1223.03" rx="52.94" ry="121.78" transform="translate(-218.96 279.07) rotate(-11.54)"/><g class="cls-14"><circle class="cls-15" cx="1212.96" cy="1234.97" r="59.69" transform="translate(-517.99 1219.41) rotate(-45)"/><path class="cls-12" d="M1213.09,1235.6a47.68,47.68,0,0,1,27.89-53.34,59.71,59.71,0,1,0,17.41,91.41A47.64,47.64,0,0,1,1213.09,1235.6Z"/></g><path class="cls-16" d="M1121.34,941.73s-9.68,19.35-19.5,32.71c-3.91,5.32-7.85,9.69-11.21,11.51a26.77,26.77,0,0,0-8.37,7.62,61.09,61.09,0,0,0-8.71,17.89l-25.13-38s.86-37.16,3.87-43.37c4.4-9.06,6.52-27.37,8.21-31,1.26-2.7,4.84-16.67,5.18-17.69.15-.44,1.34-1.12,2.89-1.12a4.51,4.51,0,0,1,3.88,3.66,41.74,41.74,0,0,1-.52,21.05c1,9.57-1.9,16.68.1,18.56.08.07.21,0,.41-.09,3.46-2.22,25-33.57,27.61-34.24C1102.85,888.47,1121.34,941.73,1121.34,941.73Z"/><path class="cls-5" d="M1081.11,1003.94s-.35,16.89-1.33,39.64H1016.4c14.49-30.89,27.08-56.9,27.08-56.9S1079.58,987.78,1081.11,1003.94Z"/><path class="cls-16" d="M1143.31,876.23l-7.78,11.41-7.64,11.19a1.75,1.75,0,0,1-1.59.71c-1.83-.18-4.1-2.82-5.86-4.28l-.18-.15a5.51,5.51,0,0,1-.73-7.74l11.67-14.11h0l3.46-4.18a5.52,5.52,0,0,1,7.74-.74l.18.15A5.51,5.51,0,0,1,1143.31,876.23Z"/><path class="cls-17" d="M1135.53,887.64l-7.64,11.19a1.75,1.75,0,0,1-1.59.71l4.9-26.28C1131.21,873.41,1132,885.2,1135.53,887.64Z"/><path class="cls-17" d="M1101.84,974.44c-3.91,5.32-7.85,9.69-11.21,11.51a26.77,26.77,0,0,0-8.37,7.62c-2.65-1.24-5.67-2.68-8.62-4.12a4.92,4.92,0,0,1-.21-8.74l.1-.05c3.3-1.89,6.68-8.55,6.68-8.55Z"/><path class="cls-18" d="M1065.5,882l-2,8.22a4.35,4.35,0,0,0,2.92.16C1067.53,889.76,1068.47,882.39,1065.5,882Z"/><rect class="cls-19" x="1072.45" y="866.43" width="59.44" height="111.89" rx="7.33"/><path class="cls-6" d="M1128.94,875v94a5.79,5.79,0,0,1-5.75,5.8h-42a5.8,5.8,0,0,1-5.76-5.8V875a5.79,5.79,0,0,1,5.76-5.79h42A5.79,5.79,0,0,1,1128.94,875Z"/><path class="cls-20" d="M1079.37,954.05v-5.51h1.68a2.55,2.55,0,0,1,1.93.7,2.89,2.89,0,0,1,.65,2,2.94,2.94,0,0,1-.65,2.07,2.57,2.57,0,0,1-2,.7Zm1-.91h.56a1.55,1.55,0,0,0,1.23-.44,2.17,2.17,0,0,0,.38-1.42,2,2,0,0,0-.39-1.38,1.58,1.58,0,0,0-1.23-.44h-.55Z"/><path class="cls-20" d="M1084.58,954.05v-5.51h3.58v.9h-2.54v1.3h1.85v.88h-1.85v1.49h2.65v.94Z"/><path class="cls-20" d="M1089.1,954.05v-5.51h1.06v4.57h2.32v.94Z"/><path class="cls-20" d="M1093.36,954.05v-5.51h1v5.51Z"/><path class="cls-20" d="M1096.81,954.05l-1.65-5.51h1l1.26,4.49,1.24-4.49h1l-1.64,5.51Z"/><path class="cls-20" d="M1100.43,954.05v-5.51H1104v.9h-2.55v1.3h1.86v.88h-1.86v1.49h2.66v.94Z"/><path class="cls-20" d="M1105,954.05v-5.51h1.86a2.49,2.49,0,0,1,1.56.41,1.72,1.72,0,0,1,.25,2.13,1.37,1.37,0,0,1-.76.5l1.22,2.47H1108l-1.06-2.23h-1v2.23Zm1-3.11h.9a1.22,1.22,0,0,0,.74-.18.72.72,0,0,0,.23-.58.71.71,0,0,0-.23-.58,1.22,1.22,0,0,0-.74-.18h-.9Z"/><path class="cls-20" d="M1110.87,954.05v-2.18l-1.59-3.33h1.09l1.06,2.29,1-2.29h1l-1.58,3.33v2.18Z"/><path class="cls-20" d="M1116.08,951.31a3.24,3.24,0,0,1,.6-2.08,2.26,2.26,0,0,1,3.36,0,3.85,3.85,0,0,1,0,4.16,2.06,2.06,0,0,1-1.68.75,2,2,0,0,1-1.67-.75A3.2,3.2,0,0,1,1116.08,951.31Zm1.05,0a2.65,2.65,0,0,0,.31,1.42,1.12,1.12,0,0,0,1.84,0,3.43,3.43,0,0,0,0-2.85,1.11,1.11,0,0,0-1.84,0A2.64,2.64,0,0,0,1117.13,951.31Z"/><path class="cls-20" d="M1121.54,954.05v-5.51H1125v.9h-2.43v1.29h1.83v.9h-1.83v2.42Z"/><path class="cls-20" d="M1079.37,962.36v-6.61h2.36a2.71,2.71,0,0,1,1.75.48,1.85,1.85,0,0,1,.57,1.48,1.88,1.88,0,0,1-.56,1.47,2.35,2.35,0,0,1-1.64.51h-1.22v2.67Zm1.26-3.72h.92a1.59,1.59,0,0,0,1-.22.83.83,0,0,0,.28-.71.83.83,0,0,0-.28-.72,1.68,1.68,0,0,0-1-.21h-.92Z"/><path class="cls-20" d="M1085.14,962.36v-6.61h2.24a3,3,0,0,1,1.87.48,2.07,2.07,0,0,1,.29,2.57,1.65,1.65,0,0,1-.9.59l1.46,3h-1.33l-1.28-2.68h-1.14v2.68Zm1.21-3.73h1.09a1.48,1.48,0,0,0,.88-.22.83.83,0,0,0,.28-.7.81.81,0,0,0-.28-.69,1.4,1.4,0,0,0-.88-.23h-1.09Z"/><path class="cls-20" d="M1090.81,959.07a3.88,3.88,0,0,1,.72-2.5,2.72,2.72,0,0,1,4,0,3.82,3.82,0,0,1,.73,2.5,3.88,3.88,0,0,1-.73,2.5,2.71,2.71,0,0,1-4,0A3.88,3.88,0,0,1,1090.81,959.07Zm1.26,0a3,3,0,0,0,.38,1.7,1.34,1.34,0,0,0,2.21,0,3.12,3.12,0,0,0,.38-1.7,3.2,3.2,0,0,0-.38-1.72,1.33,1.33,0,0,0-2.21,0A3.11,3.11,0,0,0,1092.07,959.07Z"/><path class="cls-20" d="M1097.39,962.36v-6.61h2a3,3,0,0,1,2.31.83,3.41,3.41,0,0,1,.79,2.45,3.55,3.55,0,0,1-.79,2.5,3.12,3.12,0,0,1-2.36.83Zm1.24-1.09h.68a1.86,1.86,0,0,0,1.48-.53,2.61,2.61,0,0,0,.45-1.71,2.44,2.44,0,0,0-.47-1.65,1.85,1.85,0,0,0-1.47-.53h-.67Z"/><path class="cls-20" d="M1103.62,959.93v-4.18h1.24V960a1.55,1.55,0,0,0,.3,1.07,1.24,1.24,0,0,0,1,.33,1.33,1.33,0,0,0,1-.32,1.55,1.55,0,0,0,.3-1.08v-4.23h1.21v4.38a2.29,2.29,0,0,1-.65,1.74,2.65,2.65,0,0,1-1.86.6,2.53,2.53,0,0,1-1.88-.63A2.58,2.58,0,0,1,1103.62,959.93Z"/><path class="cls-20" d="M1113.6,960.39l1.14.31a2.34,2.34,0,0,1-.87,1.32,2.62,2.62,0,0,1-1.56.45,2.29,2.29,0,0,1-2-.86,4.07,4.07,0,0,1-.66-2.52,4,4,0,0,1,.7-2.53,2.36,2.36,0,0,1,2-.89,2.34,2.34,0,0,1,1.47.44,2.18,2.18,0,0,1,.76,1.28l-1.15.28a1.41,1.41,0,0,0-.41-.72,1.13,1.13,0,0,0-.74-.24,1.09,1.09,0,0,0-1,.59,3.84,3.84,0,0,0-.33,1.8,3.44,3.44,0,0,0,.33,1.71,1.12,1.12,0,0,0,1,.56,1.3,1.3,0,0,0,.8-.26A1.44,1.44,0,0,0,1113.6,960.39Z"/><path class="cls-20" d="M1116.91,962.36v-5.52h-1.74v-1.09h4.73v1.09h-1.73v5.52Z"/><path class="cls-20" d="M1120.33,960.87l1.13-.5a2.12,2.12,0,0,0,.58.77,1.26,1.26,0,0,0,.77.24,1.23,1.23,0,0,0,.78-.23.74.74,0,0,0,.29-.61.66.66,0,0,0-.21-.51,2.13,2.13,0,0,0-.77-.41,1,1,0,0,0-.22-.08,7,7,0,0,1-1.35-.61,1.54,1.54,0,0,1-.58-.61,1.81,1.81,0,0,1-.2-.85,1.63,1.63,0,0,1,.6-1.3,2.36,2.36,0,0,1,1.56-.5,2.53,2.53,0,0,1,1.4.37,2.08,2.08,0,0,1,.83,1.08l-1.13.41a1.59,1.59,0,0,0-.49-.64,1.17,1.17,0,0,0-.71-.21,1,1,0,0,0-.63.19.63.63,0,0,0-.24.51c0,.34.38.66,1.15,1l.55.22a3.5,3.5,0,0,1,1.3.82,1.71,1.71,0,0,1,.34,1.11,1.81,1.81,0,0,1-.6,1.44,2.47,2.47,0,0,1-1.65.52,2.8,2.8,0,0,1-1.54-.4A2.52,2.52,0,0,1,1120.33,960.87Z"/><rect class="cls-19" x="1090.78" y="867.09" width="22.77" height="5.61" rx="2.81"/><path class="cls-16" d="M1139.43,919.31l-1.16.44-7.8,3a3.86,3.86,0,0,1-.55.17,5.31,5.31,0,0,1-6.3-3.25l-.12-.3a5.34,5.34,0,0,1,3.08-6.86l7.28-2.76.52-.2,1.17-.44a5.32,5.32,0,0,1,6.85,3.08l.11.3A5.32,5.32,0,0,1,1139.43,919.31Z"/><path class="cls-21" d="M1133.1,919.49a31.31,31.31,0,0,1-4.92,1.55,2.08,2.08,0,0,1-1.63-.81,4.87,4.87,0,0,1-1-1.77,5.16,5.16,0,0,1-.27-1.13,5.09,5.09,0,0,1,0-1.35,1.36,1.36,0,0,1,.75-1h0a30.16,30.16,0,0,1,4.74-1.85,2.05,2.05,0,0,1,2.55,1.14l.16.44.84,2.3A2,2,0,0,1,1133.1,919.49Z"/><path class="cls-18" d="M1133.1,919.49a31.31,31.31,0,0,1-4.92,1.55,2.08,2.08,0,0,1-1.63-.81,4.09,4.09,0,0,1-.18-.49,5,5,0,0,1-.27-1.13,4.62,4.62,0,0,1,0-1.34,1.34,1.34,0,0,1,.75-1h0a31.18,31.18,0,0,1,4.74-1.86,2.24,2.24,0,0,1,1.91.3l.84,2.3A2,2,0,0,1,1133.1,919.49Z"/><rect class="cls-16" x="1125.32" y="923.64" width="13.13" height="7.6" rx="3.45" transform="translate(-203.88 329.91) rotate(-15.23)"/><path class="cls-21" d="M1132.64,930a28.19,28.19,0,0,1-4.15.87,2,2,0,0,1-1.64-1.3,3.67,3.67,0,0,1-.31-.85,4.6,4.6,0,0,1-.14-.88,3.56,3.56,0,0,1,.14-1,1.06,1.06,0,0,1,.68-.69h0a26.91,26.91,0,0,1,4-1.13,1.7,1.7,0,0,1,2,1l.16.55.46,1.62A1.52,1.52,0,0,1,1132.64,930Z"/><path class="cls-18" d="M1132.64,930a28.19,28.19,0,0,1-4.15.87,2,2,0,0,1-1.64-1.3,3.4,3.4,0,0,1-.12-.83,3.24,3.24,0,0,1,.13-1,1.08,1.08,0,0,1,.68-.69h0a25.59,25.59,0,0,1,4-1.12,1.8,1.8,0,0,1,1.84.68l.46,1.62A1.52,1.52,0,0,1,1132.64,930Z"/><path class="cls-22" d="M1037.31,999.5s12.39,11.86,20.74,16.44l6.32-4.48v6.61s12.44,2.2,16.36,0v-18l-34.92-17.51Z"/><path class="cls-6" d="M1083.37,1016.64c-4.82,1-15.18-2.79-15.18-2.79l1.67-16.16-11.72,13.42c-6-2.22-15.29-8-20.83-11.61-2.75-1.79-4.58-3-4.58-3,7.82-12.58,15.69-24.35,15.69-24.35,2.31,4.62,7.77,8.63,13.69,11.84a117,117,0,0,0,21,8.45C1083.06,1002,1083.37,1016.64,1083.37,1016.64Z"/><path class="cls-16" d="M1139.24,907.78l-.13,0-7.88,2a6.54,6.54,0,0,1-8-4.17l-.47-1.63a6.06,6.06,0,0,1,4.24-7.3l2.6-.67,5.29-1.35a6.52,6.52,0,0,1,8,4.17l.47,1.63A6,6,0,0,1,1139.24,907.78Z"/><path class="cls-21" d="M1135.63,905.58l-3.83,1.72h0l-.46.1-.2,0H1131a.61.61,0,0,1-.53-.86,3.79,3.79,0,0,0,.22-2.6l-.09-.33h0l-.3-1.09a4.15,4.15,0,0,0-1.39-2.12l-.24-.18a1.1,1.1,0,0,1,.32-2h0l4.2-.63a2,2,0,0,1,2.33,1.55l.33,1.24.72,2.65C1136.92,904.12,1136.67,905.29,1135.63,905.58Z"/><path class="cls-18" d="M1135.63,905.58l-3.83,1.72h0l-.74.12a.61.61,0,0,1-.53-.86,3.79,3.79,0,0,0,.22-2.6l-.09-.33h0l-.3-1.09a4.15,4.15,0,0,0-1.39-2.12,1.12,1.12,0,0,1,.6-.43h0l4.2-.63a1.9,1.9,0,0,1,2.14,1.08l.72,2.65C1136.92,904.12,1136.67,905.29,1135.63,905.58Z"/><path class="cls-17" d="M1072.45,948.82s-1.73-15-3.31-18-2.94-8.8-.49-13.15,3.28-12.75,3.28-12.75c1,9.57-1.9,16.68.1,18.56.08.07.21,0,.41-.09Z"/><path class="cls-23" d="M1007.86,940.86h29.19a4.26,4.26,0,0,1,4.24,4.24v12.8a3.9,3.9,0,0,1-3.89,3.89h-.75l1.41,5.94-8.83-5.94h-21.62a4.24,4.24,0,0,1-4.23-4.23V945.34A4.5,4.5,0,0,1,1007.86,940.86Z"/><path class="cls-24" d="M1007.08,950.16h30.44a.76.76,0,0,0,.75-.75h0a.76.76,0,0,0-.75-.76h-30.44a.76.76,0,0,0-.76.76h0A.76.76,0,0,0,1007.08,950.16Z"/><path class="cls-24" d="M1007.08,953.54h30.44a.76.76,0,0,0,.75-.76h0a.76.76,0,0,0-.75-.75h-30.44a.76.76,0,0,0-.76.75h0A.76.76,0,0,0,1007.08,953.54Z"/><path class="cls-24" d="M1007.08,956.91h30.44a.76.76,0,0,0,.75-.75h0a.76.76,0,0,0-.75-.76h-30.44a.76.76,0,0,0-.76.76h0A.76.76,0,0,0,1007.08,956.91Z"/><path class="cls-24" d="M1023.66,945.82h12.92a.9.9,0,0,0,.9-.9h0a.9.9,0,0,0-.9-.9h-12.92a.91.91,0,0,0-.9.9h0A.91.91,0,0,0,1023.66,945.82Z"/><rect class="cls-24" x="1011.85" y="944.02" width="9.19" height="1.79" rx="0.9" transform="translate(2032.89 1889.84) rotate(-180)"/><polygon class="cls-25" points="1154.54 947.36 1172.9 953.36 1161.91 942.64 1160.79 945.26 1156.06 945.29 1154.54 947.36"/><polygon class="cls-6" points="1172.9 953.36 1158.65 942.52 1143.43 939.04 1172.9 953.36"/><polygon class="cls-6" points="1161.91 942.64 1172.9 953.36 1165.57 938.35 1161.91 942.64"/><polygon class="cls-25" points="1038.1 873.51 1020.94 875.96 1032.33 868.2 1032.9 870.69 1037.08 871.44 1038.1 873.51"/><polygon class="cls-6" points="1020.94 875.96 1035.22 868.6 1049.22 867.89 1020.94 875.96"/><polygon class="cls-6" points="1032.33 868.2 1020.94 875.96 1029.75 863.83 1032.33 868.2"/><path class="cls-6" d="M1083.5,875.09l-.6.43-.6-.43a.72.72,0,0,1,.6-.31A.73.73,0,0,1,1083.5,875.09Z"/><path class="cls-6" d="M1082.9,873.73a1.78,1.78,0,0,0-1.46.76l.38.27a1.33,1.33,0,0,1,1.08-.56,1.3,1.3,0,0,1,1.07.55l.38-.27A1.77,1.77,0,0,0,1082.9,873.73Z"/><path class="cls-6" d="M1082.9,871.74a3.76,3.76,0,0,0-3.08,1.6l.38.27a3.31,3.31,0,0,1,5.39,0l.38-.27A3.77,3.77,0,0,0,1082.9,871.74Z"/><path class="cls-6" d="M1082.9,872.83a2.69,2.69,0,0,0-2.2,1.14l.38.26a2.24,2.24,0,0,1,3.63,0l.38-.27A2.69,2.69,0,0,0,1082.9,872.83Z"/><path class="cls-16" d="M1194.05,1043.59h-46.48c-2.23-1.49-13.81-9.39-18.6-15.28-1-1.24-4.73-12-7.58-20.72-1.78-5.46-3.23-10.12-3.47-11.19a12.69,12.69,0,0,1-.18-2.11v0c-.12-3.56,0-10.45.21-15.92v-.09c0-.24,0-.48,0-.72h0v-.07c0-1,.07-1.85.09-2.66.08-2,.14-3.57.16-4.17v-.28h0c.08,0,2.31-1.23,5.3.92a7.82,7.82,0,0,1,2,3.42c.39,1,.75,2.25,1.09,3.51,1.31,4.88,2.24,10.7,2.74,12.26.81,2.52,10.31,13.61,10.91,14.3l0,0V987.3l-7.18-19.2-2.94-7.88-1.48-4a71.93,71.93,0,0,1-4.18-8.22,38.48,38.48,0,0,1-2.07-6.07c-.11-.47-.21-1-.28-1.41h0a10.22,10.22,0,0,1,.09-4.54,3.27,3.27,0,0,1,3.45-2.66c.13,0,.25,0,.37,0a2.05,2.05,0,0,1,.34.07,2.59,2.59,0,0,1,.6.24h0a2.27,2.27,0,0,1,.78.73l2.38,3.1,2.94,3.86c1.79,2.35,3.45,4.55,3.91,5.19,2.47,3.47,9.11,14.8,9.11,14.8l7.78.32a5.21,5.21,0,0,1,3.31,1.39c2.77,2.58,8.73,8.17,9.46,9,0,.28,4.64,2.51,8.22,4.49,2.56,1.08,7.43,4.92,7.43,4.92a8.64,8.64,0,0,1,2.16,2.62c1.67,3.63,6.19,35.21,8.36,50.82C1193.56,1040,1194,1043.33,1194.05,1043.59Z"/><path class="cls-17" d="M1146.15,961.39s7.21,11.76,8.17,12.29,4.66,1.27,5.08,0S1146.15,961.39,1146.15,961.39Z"/><path class="cls-17" d="M1182.38,981.54l0,0s-4.87-3.84-7.43-4.92c-3.29-1.82-7.46-3.85-8.13-4.38.77.87,6.14,6.95,8.2,7.4C1176.8,980,1180.92,981.14,1182.38,981.54Z"/><path class="cls-17" d="M1140.31,1004.8V987.3s4.16,7,4.47,10.77S1143.06,1008.06,1140.31,1004.8Z"/><path class="cls-21" d="M1125.22,940.56a33.12,33.12,0,0,1-2.08-4,2,2,0,0,1,.28-1.54,3.49,3.49,0,0,1,1.09-1.13,3.18,3.18,0,0,1,.77-.41,2.94,2.94,0,0,1,1-.19,1,1,0,0,1,.83.49h0a30.78,30.78,0,0,1,2.25,3.77A1.94,1.94,0,0,1,1129,940l-.29.21-1.5,1.1A1.42,1.42,0,0,1,1125.22,940.56Z"/><path class="cls-18" d="M1125.22,940.56a33.12,33.12,0,0,1-2.08-4,2,2,0,0,1,.28-1.54c.1-.08.2-.16.32-.24a3.72,3.72,0,0,1,.76-.41,3.32,3.32,0,0,1,1-.18,1,1,0,0,1,.84.49h0a29.74,29.74,0,0,1,2.26,3.78,2.28,2.28,0,0,1,.15,1.7l-1.5,1.1A1.42,1.42,0,0,1,1125.22,940.56Z"/><path class="cls-17" d="M1170.7,1036.4l-13.89,7.19h-9.24c-2.23-1.49-13.81-9.39-18.6-15.28-1-1.24-4.73-12-7.58-20.72h0c.38,1.16,8.34,18.12,10.61,20.05s14.17,13.15,17.46,13,20.14-4,21.19-4.26Z"/><path class="cls-6" d="M1198.64,1043.59h-50.07a203.79,203.79,0,0,1,22.08-7.18h0c8.55-2.16,17.35-3.47,22.13-1.51l0,.06Z"/><path class="cls-17" d="M1118,977.47h0c.84-.31,2-.51,2.6.45.9,1.5-2.43,14.71-2.85,16.37Z"/><path class="cls-18" d="M1118.24,970.36l-.28,8a4,4,0,0,0,2.63-.44C1121.55,977.2,1121,970.27,1118.24,970.36Z"/><path class="cls-26" d="M1083.37,1016.64c-4.82,1-15.18-2.79-15.18-2.79l1.67-16.16-11.72,13.42c-6-2.22-15.29-8-20.83-11.61,14.2-1.55,24.8-15.56,24.8-15.56a117,117,0,0,0,21,8.45C1083.06,1002,1083.37,1016.64,1083.37,1016.64Z"/><path class="cls-5" d="M1050.35,1002a2,2,0,1,1,1.94,2A1.95,1.95,0,0,1,1050.35,1002Z"/><path class="cls-27" d="M1101.63,901v.1l0-.1c-.18-.53-1-3.16-1.79-6.1-1.07-4-2-8.68-.78-9.11,2.29-.81,2.72,5.67,2.72,10.46C1101.76,898.63,1101.66,900.57,1101.63,901Z"/><path class="cls-27" d="M1103.87,895.76c-.82,1.84-1.54,3.38-1.95,4.31-.18.4-.3.69-.35.83,0-.23.15-.85.3-1.72h0c.23-1.31.57-3.19.94-5.24.89-5,2-10.92,2.24-11.77.44-1.5,2.51-4.69,3.9-1.91C1109.85,882.06,1106.37,890.23,1103.87,895.76Z"/><path class="cls-27" d="M1104,898.38c-.85.9-1.57,1.64-2,2l-.35.35s.22-.47.59-1.22.85-1.65,1.42-2.7c1.87-3.41,4.63-7.79,6.35-7.54C1112,889.6,1107.14,895.11,1104,898.38Z"/><path class="cls-28" d="M1101.63,901h0c-.18-.53-1-3.16-1.79-6.1a2.8,2.8,0,0,0,1.94,1.35C1101.76,898.63,1101.66,900.57,1101.63,901Z"/><path class="cls-28" d="M1103.87,895.76c-.82,1.84-1.54,3.38-1.95,4.31a7.8,7.8,0,0,1-.05-.89h0c.23-1.31.57-3.19.94-5.24A2.51,2.51,0,0,0,1103.87,895.76Z"/><path class="cls-28" d="M1104,898.38c-.85.9-1.57,1.64-2,2a4.68,4.68,0,0,1,.24-.87c.36-.7.85-1.65,1.42-2.7A3.64,3.64,0,0,0,1104,898.38Z"/><path class="cls-27" d="M1101.57,900.9l0,.09S1101.55,901,1101.57,900.9Z"/><path class="cls-22" d="M1102.72,907.49c-1.44,4.06-3.22,8.49-3.22,8.49l-4-1.21s.47-3,1.17-6.36c.81-3.9,1.27-7.84,2.93-8.87a3.19,3.19,0,0,1,1.43-.45,3.45,3.45,0,0,1,.72,0l.17,0,.41.1.16,0a2.91,2.91,0,0,1,.51.22,3,3,0,0,1,1.48,1.46C1105.11,902.71,1103.8,904.42,1102.72,907.49Z"/><path class="cls-29" d="M1100.75,912.46a24.34,24.34,0,0,0-.94,10.51,2.08,2.08,0,0,0,1.69,1.82c.62,0,1.85-1.13,2.55-2.58a5.74,5.74,0,0,0,.44-1.24c.7-3.35,2-7.37,3.62-9.43a24.38,24.38,0,0,1,7-6.34h0c.3-.17,7.25-5.24,7.25-5.24.69-.73-.13-1.55-.13-1.55a19,19,0,0,1-2.67,1.74c-2,1.16-5.55-.2-5.55-.2a3.39,3.39,0,0,0-3.15.19,25,25,0,0,0-5.4,4.42A21.77,21.77,0,0,0,1100.75,912.46Z"/><path class="cls-30" d="M1104.49,921c.7-3.35,2-7.37,3.62-9.43a24.38,24.38,0,0,1,7-6.34h0a1.62,1.62,0,0,0-.17-3c-2.25-1.36-11.43,8.73-10.84,20A5.74,5.74,0,0,0,1104.49,921Z"/><path class="cls-27" d="M1096.07,907.9a8,8,0,0,1-1.07,1.31,10.11,10.11,0,0,1-7.31,2.7,9.42,9.42,0,0,1-2-2.93h0a4.64,4.64,0,0,1,0-4.05,3.15,3.15,0,0,1,1.82-1.38c1.12-.34,2.27-.17,2.77-.67a4.93,4.93,0,0,1,2-1.16l.38-.11h0l.16,0h0a3.32,3.32,0,0,1,3.34,1.06,3.27,3.27,0,0,1,.55.9A4.66,4.66,0,0,1,1096.07,907.9Z"/><path class="cls-31" d="M1086.7,904.74s-1.06.84-.73,1.76,1.16.5,1.42-.14S1087.4,904.43,1086.7,904.74Z"/><path class="cls-32" d="M1096.13,902.64a3.27,3.27,0,0,1,.55.9c.57,1.27,1.35,4.65.41,6.12l-1.25,1.15c-1.6,1.57-4.93,1.13-8.15,1.1a9.61,9.61,0,0,1-2-2.93h0a7.85,7.85,0,0,0,7.74-1.71A8.22,8.22,0,0,0,1096.13,902.64Z"/><path class="cls-27" d="M1090.06,901c-.66-.4-1.33.15-2.1.46a8.11,8.11,0,0,1-2.26.29,10.47,10.47,0,0,1,1.62-1.75C1088.32,899.08,1090.06,901,1090.06,901Z"/><path class="cls-28" d="M1090.06,901a2.82,2.82,0,0,0-2.32-.57,15.94,15.94,0,0,0-2,1.32,10.47,10.47,0,0,1,1.62-1.75C1088.32,899.08,1090.06,901,1090.06,901Z"/><path class="cls-32" d="M1090.27,902.88a4.93,4.93,0,0,1,2-1.16c-1.32.49-2,2.16-2.54,2a8.7,8.7,0,0,0-2.2-.13C1088.62,903.21,1089.77,903.38,1090.27,902.88Z"/><path class="cls-32" d="M1092.78,901.58l-.16,0Z"/><path class="cls-28" d="M1089.79,903.65h0a4.15,4.15,0,0,1,.08-2.89,17.71,17.71,0,0,1,.81-1.91.11.11,0,0,1,.2,0l.08.24a.89.89,0,0,1-.08.73,5,5,0,0,0-.86,3.54C1090.06,903.52,1089.87,903.82,1089.79,903.65Z"/><path class="cls-19" d="M1098.46,907.85l-.13-.06a4.92,4.92,0,0,1,2.19-1.73,6.11,6.11,0,0,1,1.3-.34.13.13,0,0,1,.11,0l.11.12a.11.11,0,0,1-.07.18C1101.34,906.16,1099.34,906.54,1098.46,907.85Z"/><path class="cls-33" d="M1096,908.09c.66-1.66,1.6-1.28,2.75-.82s2.09.83,1.43,2.5a2.25,2.25,0,1,1-4.18-1.68Z"/><path class="cls-34" d="M1096.7,907.75a.86.86,0,0,1,.82-.57.56.56,0,0,1,.39.67.71.71,0,0,1-.75.51A.53.53,0,0,1,1096.7,907.75Z"/><path class="cls-35" d="M1112,908.51l3.57,25.41a5.25,5.25,0,0,1-5.19,6H1105a4.57,4.57,0,0,1-4.54-5.06l3-23.63Z"/><path class="cls-35" d="M1093.3,908.51a33.93,33.93,0,0,0,18.73,0l-3,31.46h-18.83Z"/><path class="cls-36" d="M1093.3,908.51l3.56,25.48a5.24,5.24,0,0,1-5.18,6h-5.38a4.57,4.57,0,0,1-4.53-5.07l2.56-26.39a25.32,25.32,0,0,0,4.32.25A33.93,33.93,0,0,0,1093.3,908.51Z"/><path class="cls-22" d="M1109.3,911.34a.67.67,0,1,0-1.34,0,.66.66,0,0,0,.33.58c.28,2.26-.16,4.1-1.28,5.23a5,5,0,0,1-4.46,1.1c-1.67-.27-2.77-2.12-3.4-3.62a17.23,17.23,0,0,1-.87-2.78.67.67,0,1,0-1.11-.51.69.69,0,0,0,.34.59c.36,1.65,1.69,6.55,4.92,7.07a8.05,8.05,0,0,0,1.35.12,5.13,5.13,0,0,0,3.77-1.43c1.28-1.3,1.81-3.35,1.5-5.83A.67.67,0,0,0,1109.3,911.34Z"/><path class="cls-6" d="M1182.89,895.18a2.18,2.18,0,0,0,0-.73,1.44,1.44,0,0,0-.31-.6,2.52,2.52,0,0,0-.61-.54,6.69,6.69,0,0,0-1-.54c-.65-.32-1.24-.64-1.76-1a6.53,6.53,0,0,1-1.31-1.07,3.52,3.52,0,0,1-.78-1.31,4.19,4.19,0,0,1,.33-3.12,3.46,3.46,0,0,1,1-1.08,4.36,4.36,0,0,1,1.39-.66,5.67,5.67,0,0,1,1.73-.2l.25-2.06,1.66.19-.25,2.09a5,5,0,0,1,1.56.67,4,4,0,0,1,1.13,1.07,4.06,4.06,0,0,1,.62,1.44,5.16,5.16,0,0,1,.07,1.77l-3-.36a2.54,2.54,0,0,0-.31-1.79,1.73,1.73,0,0,0-1.3-.73,2.19,2.19,0,0,0-.82,0,1.53,1.53,0,0,0-.6.29,1.45,1.45,0,0,0-.38.5,2,2,0,0,0-.19.65,1.79,1.79,0,0,0,0,.66,1.51,1.51,0,0,0,.29.58,3.11,3.11,0,0,0,.62.54,10.18,10.18,0,0,0,1,.57q1,.49,1.74,1a6.24,6.24,0,0,1,1.31,1.08,3.8,3.8,0,0,1,.78,1.31,3.69,3.69,0,0,1,.13,1.65,3.79,3.79,0,0,1-.47,1.49,3.58,3.58,0,0,1-1,1.07,4.11,4.11,0,0,1-1.39.63,6.15,6.15,0,0,1-1.75.19l-.22,1.92-1.65-.2.22-1.91a6.79,6.79,0,0,1-1.62-.57,4.7,4.7,0,0,1-1.33-1,4.17,4.17,0,0,1-.83-1.49,4.93,4.93,0,0,1-.14-2l3,.35a3.12,3.12,0,0,0,.06,1.17,1.83,1.83,0,0,0,.43.79,1.77,1.77,0,0,0,.68.47,3,3,0,0,0,.82.21,2.75,2.75,0,0,0,.87,0,1.8,1.8,0,0,0,.66-.28,1.27,1.27,0,0,0,.44-.48A1.66,1.66,0,0,0,1182.89,895.18Z"/><path d="M1033.24,1087.65c-.2-3.77-.44-8.29-.4-11.66h-.12c-.92,3.17-2,6.53-3.4,10.26l-4.77,13.09h-2.64l-4.37-12.85c-1.28-3.81-2.36-7.29-3.12-10.5h-.08c-.08,3.37-.28,7.89-.53,11.94l-.72,11.57h-3.32l1.88-27h4.45l4.6,13.06c1.13,3.32,2,6.28,2.73,9.09h.12c.68-2.73,1.64-5.69,2.84-9.09l4.81-13.06h4.44l1.69,27h-3.41Z"/><path d="M1060.36,1089.65c0,7.17-5,10.29-9.65,10.29-5.25,0-9.29-3.84-9.29-10,0-6.49,4.24-10.29,9.61-10.29C1056.6,1079.68,1060.36,1083.72,1060.36,1089.65Zm-15.38.2c0,4.25,2.45,7.45,5.89,7.45s5.89-3.16,5.89-7.53c0-3.28-1.64-7.45-5.81-7.45S1045,1086.17,1045,1089.85Z"/><path d="M1064.65,1099.5c.08-1.32.16-3.28.16-5v-23.43h3.49v12.17h.08a7.22,7.22,0,0,1,6.61-3.56c4.8,0,8.21,4,8.17,9.89,0,6.93-4.37,10.37-8.69,10.37a6.9,6.9,0,0,1-6.49-3.64h-.12l-.16,3.2Zm3.65-7.77a6.79,6.79,0,0,0,.16,1.29,5.43,5.43,0,0,0,5.29,4.12c3.68,0,5.88-3,5.88-7.45,0-3.88-2-7.21-5.76-7.21a5.61,5.61,0,0,0-5.37,4.33,6.94,6.94,0,0,0-.2,1.44Z"/><path d="M1091.53,1074.67a2.18,2.18,0,0,1-4.36,0,2.14,2.14,0,0,1,2.2-2.2A2.09,2.09,0,0,1,1091.53,1074.67Zm-3.92,24.83v-19.38h3.52v19.38Z"/><path d="M1097,1071.07h3.53v28.43H1097Z"/><path d="M1108.4,1090.45c.08,4.77,3.12,6.73,6.65,6.73a12.82,12.82,0,0,0,5.37-1l.6,2.52a15.78,15.78,0,0,1-6.45,1.2c-6,0-9.54-3.92-9.54-9.77s3.45-10.45,9.1-10.45c6.33,0,8,5.56,8,9.13a13.28,13.28,0,0,1-.12,1.64Zm10.33-2.52c0-2.24-.92-5.73-4.88-5.73-3.57,0-5.13,3.29-5.41,5.73Z"/><path d="M1139.49,1091l-2.81,8.49h-3.6l9.17-27h4.21l9.21,27h-3.73l-2.88-8.49Zm8.85-2.72-2.65-7.77c-.6-1.76-1-3.37-1.4-4.93h-.08c-.4,1.6-.84,3.25-1.36,4.89l-2.64,7.81Z"/><path d="M1175.78,1071.07v23.43c0,1.72,0,3.68.16,5h-3.17l-.16-3.36h-.08a7.16,7.16,0,0,1-6.6,3.8c-4.69,0-8.29-4-8.29-9.85,0-6.45,4-10.41,8.69-10.41a6.47,6.47,0,0,1,5.84,3h.08v-11.57Zm-3.53,16.94a6.21,6.21,0,0,0-.16-1.48,5.18,5.18,0,0,0-5.08-4.09c-3.65,0-5.81,3.21-5.81,7.49,0,3.93,1.92,7.17,5.73,7.17a5.29,5.29,0,0,0,5.16-4.2,6.25,6.25,0,0,0,.16-1.53Z"/><path d="M1181.15,1095.9a9.23,9.23,0,0,0,4.65,1.4c2.56,0,3.76-1.28,3.76-2.88s-1-2.61-3.6-3.57c-3.49-1.24-5.13-3.16-5.13-5.49,0-3.12,2.52-5.68,6.69-5.68a9.74,9.74,0,0,1,4.77,1.2l-.89,2.56a7.53,7.53,0,0,0-4-1.12c-2.08,0-3.25,1.2-3.25,2.64,0,1.61,1.17,2.33,3.69,3.29,3.36,1.28,5.09,3,5.09,5.85,0,3.4-2.65,5.8-7.25,5.8a11.05,11.05,0,0,1-5.45-1.32Z"/></svg>