<svg id="Слой_1" data-name="Слой 1" xmlns="http://www.w3.org/2000/svg" xmlns:xlink="http://www.w3.org/1999/xlink" viewBox="0 0 2181.91 2181.91"><defs><style>.cls-1{fill:none;}.cls-2{fill:url(#Безымянный_градиент_12);}.cls-3{fill:#333343;}.cls-4{fill:#ffebf6;}.cls-5{fill:#a3195b;}.cls-6{fill:#e71d73;}.cls-7{fill:#e6007e;}.cls-8{fill:#00a2ff;}.cls-9{fill:#ededed;}.cls-10{fill:#fff;}.cls-11{fill:#3eecff;}.cls-12{clip-path:url(#clip-path);}.cls-13{fill:#0050a8;}.cls-14{fill:#d7f2ff;}.cls-15{fill:url(#radial-gradient);}.cls-16{fill:#f1f2f2;}</style><linearGradient id="Безымянный_градиент_12" x1="1075.19" y1="1426.56" x2="1075.19" y2="1530.48" gradientUnits="userSpaceOnUse"><stop offset="0.23" stop-color="#bf0095"/><stop offset="1" stop-color="#fff" stop-opacity="0"/></linearGradient><clipPath id="clip-path"><ellipse class="cls-1" cx="1284.66" cy="1223.03" rx="52.94" ry="121.78" transform="translate(-218.69 281.71) rotate(-11.54)"/></clipPath><radialGradient id="radial-gradient" cx="1040.82" cy="1022.26" r="174.86" gradientUnits="userSpaceOnUse"><stop offset="0" stop-color="#fec053"/><stop offset="0.33" stop-color="#f2203e"/><stop offset="0.65" stop-color="#b729a8"/><stop offset="1" stop-color="#5342d6"/></radialGradient></defs><polygon class="cls-2" points="1180.31 1440.02 1074.75 1432.01 1074.75 1428.15 1062.31 1430.39 1028.18 1425.96 1030.02 1436.2 970 1441.51 833.35 1544.45 1049.46 1544.45 1074.75 1544.45 1317.03 1544.45 1180.31 1440.02"/><path class="cls-3" d="M1249,890.32h-.63V823.86a39.91,39.91,0,0,0-39.9-39.91H966.6a39.9,39.9,0,0,0-39.9,39.91v66.46h-.64a5.21,5.21,0,0,0-5.21,5.21v46a5.21,5.21,0,0,0,5.21,5.21h.64v11h-.64a5.21,5.21,0,0,0-5.21,5.21v46a5.21,5.21,0,0,0,5.21,5.21h.64V1416.7a39.9,39.9,0,0,0,39.9,39.9h241.86a39.9,39.9,0,0,0,39.9-39.9V974.91h.63a5.21,5.21,0,0,0,5.21-5.21V895.53A5.21,5.21,0,0,0,1249,890.32Z"/><rect class="cls-4" x="938.31" y="793.82" width="298.44" height="652.91" rx="36.05"/><rect class="cls-5" x="948.32" y="1264.7" width="67.4" height="32.96" rx="6.29" transform="translate(-236.44 222.34) rotate(-11.54)"/><rect class="cls-5" x="1015.16" y="1270.97" width="47.18" height="133.03" rx="9" transform="translate(-246.53 234.8) rotate(-11.54)"/><path class="cls-6" d="M1044.87,1301l-8.78-.49-25.89,15s25,4.31,50.22,10.11c-4-16.07-7.47-22-7.47-22S1053.64,1301.5,1044.87,1301Z"/><rect class="cls-5" x="1051.87" y="1303.83" width="15.37" height="39.86" rx="2.93" transform="translate(-243.44 238.77) rotate(-11.54)"/><path class="cls-7" d="M1296.43,1184.3s-28.7-43.64-54.37-88.7c-84.76,113.45-266.09,156-266.09,156v.06c-8.36,1.7-12.11,17.88-8.39,36.13s13.52,31.65,21.88,30h0c1.48-.26,184-31.66,305.9,39.2,5.95-51.52,15.26-102.92,15.26-102.92l-26-31Z"/><path class="cls-8" d="M1284.91,1224.16l25.62,30.55c.08-.46.13-.72.13-.72l-25.56-30.47Z"/><path class="cls-9" d="M1027.52,1235.86c-6.67,2.35-12.89,4.43-18.51,6.23-2.36,10.29-2.37,23.18.47,37.12s7.89,25.75,14.08,34.29c5.86-.55,12.37-1.07,19.41-1.52-5.73-3.22-14.52-15-18.75-35.77S1023.48,1241,1027.52,1235.86Z"/><path class="cls-9" d="M1003.17,1243.93c-1.51.47-3,.92-4.39,1.34-4.75,7.53-6.17,21.36-3,36.75s9.81,27.47,17.11,32.56l4.51-.48c-7.64-2.75-15.75-16-19.13-32.59S997.15,1249.37,1003.17,1243.93Z"/><path class="cls-9" d="M1098.6,1206.17q-9.49,4.65-18.72,8.78c-3.54,13.34-3.73,30.81.16,49.86s10.89,35,19.36,45.88c6.7.12,13.58.36,20.6.72-9.17-4.67-21.2-21.87-26.8-49.29S1092,1214,1098.6,1206.17Z"/><path class="cls-9" d="M1137.1,1185.46q-9.54,5.64-19.07,10.74c-4.29,16.16-4.5,37.5.26,60.8s13.28,42.79,23.55,56q10.73,1,21.68,2.4c-12.07-7.31-25.82-29.58-32.24-61S1128.8,1196.86,1137.1,1185.46Z"/><ellipse class="cls-5" cx="1271.28" cy="1225.76" rx="62.48" ry="136.37" transform="translate(-219.51 279.09) rotate(-11.54)"/><ellipse class="cls-10" cx="1280.74" cy="1223.83" rx="63.28" ry="136.37" transform="translate(-218.93 280.94) rotate(-11.54)"/><ellipse class="cls-7" cx="1281.53" cy="1223.67" rx="62.48" ry="136.37" transform="translate(-218.88 281.09) rotate(-11.54)"/><path class="cls-11" d="M1254.25,1090.06l-.57.15c33.68-6.18,72.94,47.82,87.92,121.2s0,138.44-33.37,146c.19,0,.38,0,.58-.09,33.8-6.9,49-72.32,33.93-146.11S1288.05,1083.16,1254.25,1090.06Z"/><ellipse class="cls-5" cx="1284.66" cy="1223.03" rx="52.94" ry="121.78" transform="translate(-218.69 281.71) rotate(-11.54)"/><g class="cls-12"><circle class="cls-6" cx="1226.18" cy="1234.97" r="59.69" transform="translate(-514.12 1228.75) rotate(-45)"/><path class="cls-5" d="M1226.31,1235.6a47.67,47.67,0,0,1,27.88-53.34,59.71,59.71,0,1,0,17.41,91.41A47.64,47.64,0,0,1,1226.31,1235.6Z"/><path class="cls-5" d="M1214.24,1176.49c-.31.06-.61.14-.92.21a59.67,59.67,0,0,1,23.87,116.92l.93-.16a59.69,59.69,0,0,0-23.88-117Z"/></g><path class="cls-7" d="M1266.15,853.45a55,55,0,0,0-36,96.73l-8.23,23.89,25.89-13.64a55.06,55.06,0,1,0,18.33-107Z"/><path class="cls-10" d="M1300.29,903.1A18.88,18.88,0,0,0,1266.15,892a18.88,18.88,0,1,0-26.55,26.25h0l26.55,20.68,26.55-20.68h0A18.84,18.84,0,0,0,1300.29,903.1Z"/><path class="cls-10" d="M1250.91,884.73a18.86,18.86,0,0,1,15.24,7.76,18.87,18.87,0,0,1,34.12,10.85c0-.08,0-.16,0-.24A18.88,18.88,0,0,0,1266.15,892,18.88,18.88,0,0,0,1232,903.1c0,.08,0,.16,0,.24A18.89,18.89,0,0,1,1250.91,884.73Z"/><path class="cls-7" d="M866.65,889.8A21.87,21.87,0,0,1,881,928.23l3.27,9.49-10.29-5.42a21.67,21.67,0,0,1-7.28,1.27,21.89,21.89,0,1,1,0-43.77Z"/><path class="cls-10" d="M853.09,909.52a7.5,7.5,0,0,1,13.56-4.42,7.5,7.5,0,1,1,10.54,10.43h0l-10.54,8.22-10.55-8.22h0A7.49,7.49,0,0,1,853.09,909.52Z"/><path class="cls-10" d="M872.7,902.23a7.46,7.46,0,0,0-6.05,3.08,7.5,7.5,0,0,0-13.56,4.31v-.1a7.5,7.5,0,0,1,13.56-4.42,7.5,7.5,0,0,1,13.56,4.42.34.34,0,0,1,0,.1A7.5,7.5,0,0,0,872.7,902.23Z"/><path class="cls-7" d="M1201.45,637.46a80.14,80.14,0,0,0-52.38,140.83l-12,34.77,37.68-19.86a80.16,80.16,0,1,0,26.69-155.74Z"/><rect class="cls-10" x="1225.2" y="701.38" width="22.03" height="53.37"/><rect class="cls-10" x="1225.2" y="701.38" width="22.03" height="0.86"/><path class="cls-10" d="M1208.22,666.82a10.78,10.78,0,0,0-10.78,10.78v17h-37.59a10.78,10.78,0,0,0,0,21.56h3.56v24.35A16.48,16.48,0,0,0,1179.89,757h31.22a7.89,7.89,0,0,0,7.89-7.9V677.6A10.78,10.78,0,0,0,1208.22,666.82Z"/><path class="cls-10" d="M1159.85,695.13h37.59v-.55h-37.59a10.78,10.78,0,0,0-10.78,10.78c0,.1,0,.18,0,.28A10.77,10.77,0,0,1,1159.85,695.13Z"/><path class="cls-10" d="M1208.22,666.82a10.78,10.78,0,0,0-10.78,10.78v.55a10.78,10.78,0,0,1,21.56,0v-.55A10.78,10.78,0,0,0,1208.22,666.82Z"/><path class="cls-7" d="M934.57,725.85a64.34,64.34,0,0,1,42.06,113.07l9.63,27.92L956,850.9a64.37,64.37,0,1,1-21.43-125Z"/><path class="cls-13" d="M977,840l9.25,26.84-.6-.32-9-26.18Z"/><path class="cls-14" d="M956.63,795.08a34.53,34.53,0,0,0-23.3-32.63,24.95,24.95,0,1,1,34.94,34.88c1.16,2,3.65,4.15,9,2.77,0,0-7.74,9.25-18.62,1.63a25,25,0,0,1-2.77.44A34.52,34.52,0,0,0,956.63,795.08Z"/><path class="cls-14" d="M922.08,764a31.23,31.23,0,0,0-18.68,56.27c-1.45,2.53-4.58,5.2-11.28,3.48,0,0,9.69,11.57,23.3,2a31.83,31.83,0,0,0,6.66.73,31.26,31.26,0,1,0,0-62.52Z"/><path class="cls-10" d="M956.63,795.08a34.53,34.53,0,0,0-23.3-32.63,24.95,24.95,0,1,1,34.94,34.88c1.16,2,3.65,4.15,9,2.77,0,0-7.74,9.25-18.62,1.63a25,25,0,0,1-2.77.44A34.52,34.52,0,0,0,956.63,795.08Z"/><path class="cls-10" d="M922.08,764a31.23,31.23,0,0,0-18.68,56.27c-1.45,2.53-4.58,5.2-11.28,3.48,0,0,9.69,11.57,23.3,2a31.83,31.83,0,0,0,6.66.73,31.26,31.26,0,1,0,0-62.52Z"/><path class="cls-10" d="M953.34,795.24c0,.12,0,.24,0,.37a31.24,31.24,0,0,0-62.47,0c0-.12,0-.23,0-.34a31.26,31.26,0,1,1,62.51,0Z"/><path class="cls-10" d="M953.34,753.11a24.85,24.85,0,0,0-19.54,9.52c-.16-.06-.31-.13-.47-.18a24.95,24.95,0,0,1,45,14.89c0,.12,0,.22,0,.34A25,25,0,0,0,953.34,753.11Z"/><path class="cls-10" d="M903.08,820.72l.32.27c-1.39,2.4-4.33,4.9-10.41,3.64a12,12,0,0,1-.87-.9C898.4,825.34,901.52,823.09,903.08,820.72Z"/><path class="cls-10" d="M956.63,795.82a34.74,34.74,0,0,1-.62,6.33l-.12,0a34.32,34.32,0,0,0,.72-6.77C956.61,795.54,956.63,795.68,956.63,795.82Z"/><path class="cls-10" d="M968.27,798.06c.11-.08.21-.18.31-.26,1.27,1.85,3.76,3.57,8.7,2.3a10.86,10.86,0,0,1-.9.91C971.66,801.92,969.36,800,968.27,798.06Z"/><path class="cls-7" d="M914.87,986.18a51.82,51.82,0,0,1,33.87,91.06l7.76,22.48-24.37-12.84a51.83,51.83,0,1,1-17.26-100.7Z"/><path class="cls-7" d="M949.05,1078.11l7.45,21.61-.48-.25-7.28-21.09Z"/><path class="cls-10" d="M903.35,1064.57h0a4.15,4.15,0,0,1-4.14-4.14v-42.55a4.15,4.15,0,0,1,4.14-4.13h0a4.15,4.15,0,0,1,4.14,4.13v42.55A4.15,4.15,0,0,1,903.35,1064.57Z"/><path class="cls-10" d="M926.4,1064.57h0a4.15,4.15,0,0,1-4.14-4.14v-42.55a4.15,4.15,0,0,1,4.14-4.13h0a4.15,4.15,0,0,1,4.14,4.13v42.55A4.15,4.15,0,0,1,926.4,1064.57Z"/><path class="cls-10" d="M940.29,1050.68h0a4.15,4.15,0,0,1-4.14,4.14H893.6a4.15,4.15,0,0,1-4.14-4.14h0a4.15,4.15,0,0,1,4.14-4.13h42.55A4.15,4.15,0,0,1,940.29,1050.68Z"/><path class="cls-10" d="M940.29,1027.63h0a4.15,4.15,0,0,1-4.14,4.14H893.6a4.15,4.15,0,0,1-4.14-4.14h0a4.15,4.15,0,0,1,4.14-4.13h42.55A4.15,4.15,0,0,1,940.29,1027.63Z"/><circle class="cls-15" cx="1095.1" cy="961.67" r="88.31"/><path class="cls-16" d="M1130.61,1023.75h-71A26.6,26.6,0,0,1,1033,997.17v-71a26.6,26.6,0,0,1,26.57-26.57h71a26.6,26.6,0,0,1,26.57,26.57v71A26.6,26.6,0,0,1,1130.61,1023.75Zm-71-109.67a12.09,12.09,0,0,0-12.07,12.08v71a12.09,12.09,0,0,0,12.07,12.08h71a12.09,12.09,0,0,0,12.07-12.08v-71a12.09,12.09,0,0,0-12.07-12.08Z"/><path class="cls-16" d="M1095.1,996a34.3,34.3,0,1,1,34.3-34.3A34.34,34.34,0,0,1,1095.1,996Zm0-54.1a19.8,19.8,0,1,0,19.8,19.8A19.82,19.82,0,0,0,1095.1,941.87Z"/><path class="cls-16" d="M1136.38,928.45a6.18,6.18,0,1,1-6.18-6.18A6.18,6.18,0,0,1,1136.38,928.45Z"/><path d="M977.93,1079.49v27h-3.48v-27Z"/><path d="M984.3,1092.34c0-2,0-3.64-.16-5.24h3.13l.2,3.2h.08a7.12,7.12,0,0,1,6.41-3.64c2.68,0,6.84,1.6,6.84,8.25v11.57h-3.52v-11.17c0-3.13-1.16-5.73-4.49-5.73a5,5,0,0,0-4.72,3.61,5.06,5.06,0,0,0-.24,1.64v11.65H984.3Z"/><path d="M1006.06,1102.88a9.23,9.23,0,0,0,4.64,1.4c2.57,0,3.77-1.28,3.77-2.88s-1-2.61-3.61-3.57c-3.48-1.24-5.13-3.16-5.13-5.49,0-3.12,2.53-5.68,6.69-5.68a9.67,9.67,0,0,1,4.77,1.2l-.88,2.56a7.54,7.54,0,0,0-4-1.12c-2.08,0-3.24,1.2-3.24,2.64,0,1.61,1.16,2.33,3.68,3.29,3.37,1.28,5.09,3,5.09,5.85,0,3.4-2.64,5.8-7.25,5.8a11.11,11.11,0,0,1-5.45-1.32Z"/><path d="M1026.65,1081.53v5.57h5v2.68h-5v10.46c0,2.4.68,3.76,2.64,3.76a7.83,7.83,0,0,0,2-.24l.16,2.64a8.62,8.62,0,0,1-3.12.48,4.9,4.9,0,0,1-3.81-1.48c-1-1-1.36-2.76-1.36-5v-10.58h-3v-2.68h3v-4.65Z"/><path d="M1046.4,1106.48l-.29-2.44H1046a7.21,7.21,0,0,1-5.92,2.88,5.52,5.52,0,0,1-5.93-5.56c0-4.69,4.16-7.25,11.65-7.21v-.4c0-1.61-.44-4.49-4.4-4.49a9.68,9.68,0,0,0-5.05,1.44l-.8-2.32a12.05,12.05,0,0,1,6.37-1.72c5.93,0,7.37,4,7.37,7.93v7.25a27.26,27.26,0,0,0,.32,4.64Zm-.53-9.89c-3.84-.08-8.21.6-8.21,4.37a3.12,3.12,0,0,0,3.33,3.36,4.82,4.82,0,0,0,4.68-3.24,3.68,3.68,0,0,0,.2-1.13Z"/><path d="M1071.67,1087.1c-.08,1.4-.16,3-.16,5.32v11.26c0,4.45-.88,7.17-2.76,8.85a10.29,10.29,0,0,1-7,2.32,12.53,12.53,0,0,1-6.45-1.6l.88-2.68a11,11,0,0,0,5.69,1.52c3.6,0,6.25-1.88,6.25-6.77v-2.16H1068a6.93,6.93,0,0,1-6.17,3.24c-4.81,0-8.25-4.08-8.25-9.45,0-6.57,4.28-10.29,8.73-10.29a6.44,6.44,0,0,1,6,3.36h.08l.16-2.92Zm-3.64,7.65a5,5,0,0,0-.2-1.6,5.08,5.08,0,0,0-4.93-3.73c-3.36,0-5.77,2.84-5.77,7.33,0,3.81,1.93,7,5.73,7a5.16,5.16,0,0,0,4.89-3.6,6.23,6.23,0,0,0,.28-1.89Z"/><path d="M1077.12,1093.15c0-2.29,0-4.25-.16-6.05h3.09l.12,3.8h.16a5.81,5.81,0,0,1,5.37-4.24,3.81,3.81,0,0,1,1,.12v3.32a5.29,5.29,0,0,0-1.2-.12c-2.49,0-4.25,1.88-4.73,4.53a9.91,9.91,0,0,0-.16,1.64v10.33h-3.49Z"/><path d="M1100.76,1106.48l-.28-2.44h-.12a7.23,7.23,0,0,1-5.93,2.88,5.52,5.52,0,0,1-5.93-5.56c0-4.69,4.17-7.25,11.66-7.21v-.4c0-1.61-.44-4.49-4.41-4.49a9.65,9.65,0,0,0-5,1.44l-.81-2.32a12.08,12.08,0,0,1,6.37-1.72c5.93,0,7.37,4,7.37,7.93v7.25a27.26,27.26,0,0,0,.32,4.64Zm-.52-9.89c-3.85-.08-8.21.6-8.21,4.37a3.11,3.11,0,0,0,3.32,3.36,4.82,4.82,0,0,0,4.69-3.24,3.68,3.68,0,0,0,.2-1.13Z"/><path d="M1109.33,1092.34c0-2,0-3.64-.16-5.24h3.09l.16,3.12h.12a6.68,6.68,0,0,1,6.09-3.56,5.72,5.72,0,0,1,5.48,3.88h.08a8.13,8.13,0,0,1,2.17-2.52,6.61,6.61,0,0,1,4.28-1.36c2.57,0,6.37,1.68,6.37,8.41v11.41h-3.44v-11c0-3.73-1.36-6-4.21-6a4.56,4.56,0,0,0-4.16,3.2,5.92,5.92,0,0,0-.28,1.77v12h-3.45v-11.61c0-3.09-1.36-5.33-4-5.33a5.26,5.26,0,0,0-4.65,5.25v11.69h-3.45Z"/><path d="M1155.73,1098l-2.81,8.49h-3.6l9.17-27h4.2l9.22,27h-3.73l-2.88-8.49Zm8.85-2.72-2.65-7.77c-.6-1.76-1-3.37-1.4-4.93h-.08c-.4,1.6-.84,3.25-1.36,4.89l-2.64,7.81Z"/><path d="M1192,1078v23.44c0,1.72,0,3.68.16,5H1189l-.17-3.36h-.08a7.16,7.16,0,0,1-6.6,3.8c-4.69,0-8.3-4-8.3-9.85,0-6.45,4-10.41,8.7-10.41a6.47,6.47,0,0,1,5.84,3h.08V1078Zm-3.53,17a6.21,6.21,0,0,0-.16-1.48,5.18,5.18,0,0,0-5.08-4.09c-3.65,0-5.81,3.2-5.81,7.49,0,3.93,1.92,7.17,5.73,7.17a5.29,5.29,0,0,0,5.16-4.21,6.11,6.11,0,0,0,.16-1.52Z"/><path d="M1197.39,1102.88a9.23,9.23,0,0,0,4.65,1.4c2.56,0,3.76-1.28,3.76-2.88s-1-2.61-3.6-3.57c-3.49-1.24-5.13-3.16-5.13-5.49,0-3.12,2.52-5.68,6.69-5.68a9.66,9.66,0,0,1,4.76,1.2l-.88,2.56a7.53,7.53,0,0,0-4-1.12c-2.08,0-3.25,1.2-3.25,2.64,0,1.61,1.17,2.33,3.69,3.29,3.36,1.28,5.09,3,5.09,5.85,0,3.4-2.65,5.8-7.25,5.8a11.05,11.05,0,0,1-5.45-1.32Z"/></svg>