<svg xmlns="http://www.w3.org/2000/svg" xmlns:xlink="http://www.w3.org/1999/xlink" viewBox="0 0 2181.91 2181.91"><defs><style>.cls-1{fill:none;}.cls-2{isolation:isolate;}.cls-3{fill:url(#Безымянный_градиент_41);}.cls-4{fill:#333343;}.cls-5{fill:#efdcfa;}.cls-6{fill:#440073;}.cls-7{fill:#662483;}.cls-8{fill:#00a2ff;}.cls-9{fill:#ededed;}.cls-10{fill:#fff;}.cls-11{fill:#3eecff;}.cls-12{fill:#951b81;}.cls-13{clip-path:url(#clip-path);}.cls-14{fill:#cc78fa;}.cls-15{fill:#530073;}.cls-16{fill:#a3195b;}.cls-17{fill:#0050a8;}.cls-18{fill:#d7f2ff;}.cls-19{fill:url(#linear-gradient);}.cls-20{fill:url(#linear-gradient-2);}.cls-21{fill:url(#linear-gradient-3);}.cls-22{fill:url(#linear-gradient-4);}.cls-23{fill:url(#linear-gradient-5);}.cls-24{fill:url(#linear-gradient-6);}.cls-25{fill:url(#linear-gradient-7);}.cls-26{fill:url(#linear-gradient-8);}.cls-27,.cls-35{mix-blend-mode:multiply;opacity:0.3;}.cls-27{fill:url(#linear-gradient-9);}.cls-28{fill:url(#linear-gradient-10);}.cls-29{fill:url(#linear-gradient-11);}.cls-30{fill:url(#linear-gradient-12);}.cls-31{fill:url(#linear-gradient-13);}.cls-32{fill:url(#linear-gradient-14);}.cls-33{fill:url(#linear-gradient-15);}.cls-34{fill:url(#linear-gradient-16);}.cls-35{fill:url(#linear-gradient-17);}.cls-36{fill:url(#linear-gradient-18);}.cls-37{fill:url(#linear-gradient-19);}.cls-38{fill:url(#linear-gradient-20);}.cls-39{fill:url(#linear-gradient-21);}.cls-40{fill:url(#linear-gradient-22);}.cls-41{fill:url(#linear-gradient-23);}.cls-42{fill:url(#linear-gradient-24);}</style><linearGradient id="Безымянный_градиент_41" x1="1075.19" y1="1426.56" x2="1075.19" y2="1530.48" gradientUnits="userSpaceOnUse"><stop offset="0.23" stop-color="#951b81"/><stop offset="1" stop-color="#fff" stop-opacity="0"/></linearGradient><clipPath id="clip-path"><ellipse class="cls-1" cx="1284.66" cy="1223.03" rx="52.94" ry="121.78" transform="translate(-218.69 281.71) rotate(-11.54)"/></clipPath><linearGradient id="linear-gradient" x1="1079.17" y1="952.87" x2="1026.56" y2="905.62" gradientUnits="userSpaceOnUse"><stop offset="0" stop-color="#f36f56"/><stop offset="1" stop-color="#ffc444"/></linearGradient><linearGradient id="linear-gradient-2" x1="1079.8" y1="952.87" x2="1027.18" y2="905.62" gradientUnits="userSpaceOnUse"><stop offset="0" stop-color="#ffc444"/><stop offset="1" stop-color="#f36f56"/></linearGradient><linearGradient id="linear-gradient-3" x1="1056.16" y1="933.6" x2="1024.66" y2="899.23" gradientUnits="userSpaceOnUse"><stop offset="0" stop-color="#444b8c"/><stop offset="1" stop-color="#26264f"/></linearGradient><linearGradient id="linear-gradient-4" x1="1033.79" y1="894.99" x2="1059.4" y2="970.94" gradientUnits="userSpaceOnUse"><stop offset="0" stop-color="#26264f"/><stop offset="1" stop-color="#444b8c"/></linearGradient><linearGradient id="linear-gradient-5" x1="1036.85" y1="890.77" x2="1067.37" y2="981.28" xlink:href="#linear-gradient-3"/><linearGradient id="linear-gradient-6" x1="1038.49" y1="894.99" x2="1064.1" y2="970.94" xlink:href="#linear-gradient-4"/><linearGradient id="linear-gradient-7" x1="1030.01" y1="876.04" x2="1077.66" y2="1017.36" xlink:href="#linear-gradient"/><linearGradient id="linear-gradient-8" x1="1030.85" y1="876.04" x2="1078.49" y2="1017.36" xlink:href="#linear-gradient-2"/><linearGradient id="linear-gradient-9" x1="1018.66" y1="880.15" x2="1066.3" y2="1021.48" xlink:href="#linear-gradient-2"/><linearGradient id="linear-gradient-10" x1="1055.59" y1="842.46" x2="1110.47" y2="943.72" xlink:href="#linear-gradient-3"/><linearGradient id="linear-gradient-11" x1="1023.93" y1="859.42" x2="1078.85" y2="960.75" xlink:href="#linear-gradient-3"/><linearGradient id="linear-gradient-12" x1="997.46" y1="873.96" x2="1052.33" y2="975.22" xlink:href="#linear-gradient-3"/><linearGradient id="linear-gradient-13" x1="1184.6" y1="954.45" x2="1018.1" y2="1041.52" gradientUnits="userSpaceOnUse"><stop offset="0" stop-color="#aa80f9"/><stop offset="1" stop-color="#6165d7"/></linearGradient><linearGradient id="linear-gradient-14" x1="1173.49" y1="717.41" x2="1139.67" y2="735.09" gradientTransform="translate(-166.99 311.34) rotate(-5.3)" xlink:href="#linear-gradient-3"/><linearGradient id="linear-gradient-15" x1="1238.82" y1="3369.1" x2="1182.56" y2="3398.52" gradientTransform="matrix(1, -0.09, -0.09, -1, 211.88, 4403.26)" xlink:href="#linear-gradient-3"/><linearGradient id="linear-gradient-16" x1="1287.28" y1="3372.11" x2="1236.78" y2="3398.52" gradientTransform="matrix(1, -0.09, -0.09, -1, 211.88, 4403.26)" xlink:href="#linear-gradient-3"/><linearGradient id="linear-gradient-17" x1="1147.7" y1="985.33" x2="1022.86" y2="1050.62" xlink:href="#linear-gradient-13"/><linearGradient id="linear-gradient-18" x1="1078.96" y1="942.57" x2="1022.71" y2="971.99" xlink:href="#linear-gradient-3"/><linearGradient id="linear-gradient-19" x1="1133.18" y1="942.57" x2="1076.93" y2="971.99" xlink:href="#linear-gradient-3"/><linearGradient id="linear-gradient-20" x1="1180.32" y1="946.27" x2="1131.15" y2="971.99" xlink:href="#linear-gradient-3"/><linearGradient id="linear-gradient-21" x1="1048.06" y1="938.02" x2="1027.73" y2="948.65" xlink:href="#linear-gradient-3"/><linearGradient id="linear-gradient-22" x1="1034.23" y1="933.39" x2="1031.19" y2="934.98" xlink:href="#linear-gradient-13"/><linearGradient id="linear-gradient-23" x1="1034.23" y1="949.07" x2="1031.19" y2="950.66" xlink:href="#linear-gradient-13"/><linearGradient id="linear-gradient-24" x1="1050.56" y1="949.07" x2="1047.52" y2="950.66" xlink:href="#linear-gradient-13"/></defs><g class="cls-2"><g id="Слой_1" data-name="Слой 1"><polygon class="cls-3" points="1180.31 1440.02 1074.75 1432.01 1074.75 1428.15 1062.31 1430.39 1028.18 1425.96 1030.02 1436.2 970 1441.51 833.35 1544.45 1049.46 1544.45 1074.75 1544.45 1317.03 1544.45 1180.31 1440.02"/><path class="cls-4" d="M1249,890.32h-.63V823.86a39.91,39.91,0,0,0-39.9-39.91H966.6a39.9,39.9,0,0,0-39.9,39.91v66.46h-.64a5.21,5.21,0,0,0-5.21,5.21v46a5.21,5.21,0,0,0,5.21,5.21h.64v11h-.64a5.21,5.21,0,0,0-5.21,5.21v46a5.21,5.21,0,0,0,5.21,5.21h.64V1416.7a39.9,39.9,0,0,0,39.9,39.9h241.86a39.9,39.9,0,0,0,39.9-39.9V974.91h.63a5.21,5.21,0,0,0,5.21-5.21V895.53A5.21,5.21,0,0,0,1249,890.32Z"/><rect class="cls-5" x="938.31" y="793.82" width="298.44" height="652.91" rx="36.05"/><rect class="cls-6" x="948.32" y="1264.7" width="67.4" height="32.96" rx="6.29" transform="translate(-236.44 222.34) rotate(-11.54)"/><rect class="cls-6" x="1015.16" y="1270.97" width="47.18" height="133.03" rx="9" transform="translate(-246.53 234.8) rotate(-11.54)"/><path class="cls-6" d="M1044.87,1301l-8.78-.49-25.89,15s25,4.31,50.22,10.11c-4-16.07-7.47-22-7.47-22S1053.64,1301.5,1044.87,1301Z"/><rect class="cls-7" x="1051.87" y="1303.83" width="15.37" height="39.86" rx="2.93" transform="translate(-243.44 238.77) rotate(-11.54)"/><path class="cls-7" d="M1296.43,1184.3s-28.7-43.64-54.37-88.7c-84.76,113.45-266.09,156-266.09,156v.06c-8.36,1.7-12.11,17.88-8.39,36.13s13.52,31.65,21.88,30h0c1.48-.26,184-31.66,305.9,39.2,5.95-51.52,15.26-102.92,15.26-102.92l-26-31Z"/><path class="cls-8" d="M1284.91,1224.16l25.62,30.55c.08-.46.13-.72.13-.72l-25.56-30.47Z"/><path class="cls-9" d="M1027.52,1235.86c-6.67,2.35-12.89,4.43-18.51,6.23-2.36,10.29-2.37,23.18.47,37.12s7.89,25.75,14.08,34.29c5.86-.55,12.37-1.07,19.41-1.52-5.73-3.22-14.52-15-18.75-35.77S1023.48,1241,1027.52,1235.86Z"/><path class="cls-9" d="M1003.17,1243.93c-1.51.47-3,.92-4.39,1.34-4.75,7.53-6.17,21.36-3,36.75s9.81,27.47,17.11,32.56l4.51-.48c-7.64-2.75-15.75-16-19.13-32.59S997.15,1249.37,1003.17,1243.93Z"/><path class="cls-9" d="M1098.6,1206.17q-9.49,4.65-18.72,8.78c-3.54,13.34-3.73,30.81.16,49.86s10.89,35,19.36,45.88c6.7.12,13.58.36,20.6.72-9.17-4.67-21.2-21.87-26.8-49.29S1092,1214,1098.6,1206.17Z"/><path class="cls-9" d="M1137.1,1185.46q-9.54,5.64-19.07,10.74c-4.29,16.16-4.5,37.5.26,60.8s13.28,42.79,23.55,56q10.73,1,21.68,2.4c-12.07-7.31-25.82-29.58-32.24-61S1128.8,1196.86,1137.1,1185.46Z"/><ellipse class="cls-6" cx="1271.28" cy="1225.76" rx="62.48" ry="136.37" transform="translate(-219.51 279.09) rotate(-11.54)"/><ellipse class="cls-10" cx="1280.74" cy="1223.83" rx="63.28" ry="136.37" transform="matrix(0.98, -0.2, 0.2, 0.98, -218.93, 280.94)"/><ellipse class="cls-7" cx="1281.53" cy="1223.67" rx="62.48" ry="136.37" transform="translate(-218.88 281.09) rotate(-11.54)"/><path class="cls-11" d="M1254.25,1090.06l-.57.15c33.68-6.18,72.94,47.82,87.92,121.2s0,138.44-33.37,146c.19,0,.38,0,.58-.09,33.8-6.9,49-72.32,33.93-146.11S1288.05,1083.16,1254.25,1090.06Z"/><ellipse class="cls-12" cx="1284.66" cy="1223.03" rx="52.94" ry="121.78" transform="translate(-218.69 281.71) rotate(-11.54)"/><g class="cls-13"><circle class="cls-14" cx="1226.18" cy="1234.97" r="59.69" transform="translate(-514.12 1228.75) rotate(-45)"/><path class="cls-15" d="M1226.31,1235.6a47.67,47.67,0,0,1,27.88-53.34,59.71,59.71,0,1,0,17.41,91.41A47.64,47.64,0,0,1,1226.31,1235.6Z"/><path class="cls-16" d="M1214.24,1176.49c-.31.06-.61.14-.92.21a59.67,59.67,0,0,1,23.87,116.92l.93-.16a59.69,59.69,0,0,0-23.88-117Z"/></g><path class="cls-12" d="M1266.15,853.45a55,55,0,0,0-36,96.73l-8.23,23.89,25.89-13.64a55.06,55.06,0,1,0,18.33-107Z"/><path class="cls-10" d="M1300.29,903.1A18.88,18.88,0,0,0,1266.15,892a18.88,18.88,0,1,0-26.55,26.25h0l26.55,20.68,26.55-20.68h0A18.84,18.84,0,0,0,1300.29,903.1Z"/><path class="cls-10" d="M1250.91,884.73a18.86,18.86,0,0,1,15.24,7.76,18.87,18.87,0,0,1,34.12,10.85c0-.08,0-.16,0-.24A18.88,18.88,0,0,0,1266.15,892,18.88,18.88,0,0,0,1232,903.1c0,.08,0,.16,0,.24A18.89,18.89,0,0,1,1250.91,884.73Z"/><path class="cls-12" d="M866.65,889.8A21.87,21.87,0,0,1,881,928.23l3.27,9.49-10.29-5.42a21.67,21.67,0,0,1-7.28,1.27,21.89,21.89,0,1,1,0-43.77Z"/><path class="cls-10" d="M853.09,909.52a7.5,7.5,0,0,1,13.56-4.42,7.5,7.5,0,1,1,10.54,10.43h0l-10.54,8.22-10.55-8.22h0A7.49,7.49,0,0,1,853.09,909.52Z"/><path class="cls-10" d="M872.7,902.23a7.46,7.46,0,0,0-6.05,3.08,7.5,7.5,0,0,0-13.56,4.31v-.1a7.5,7.5,0,0,1,13.56-4.42,7.5,7.5,0,0,1,13.56,4.42.34.34,0,0,1,0,.1A7.5,7.5,0,0,0,872.7,902.23Z"/><path class="cls-12" d="M1201.45,637.46a80.14,80.14,0,0,0-52.38,140.83l-12,34.77,37.68-19.86a80.16,80.16,0,1,0,26.69-155.74Z"/><rect class="cls-10" x="1225.2" y="701.38" width="22.03" height="53.37"/><rect class="cls-10" x="1225.2" y="701.38" width="22.03" height="0.86"/><path class="cls-10" d="M1208.22,666.82a10.78,10.78,0,0,0-10.78,10.78v17h-37.59a10.78,10.78,0,0,0,0,21.56h3.56v24.35A16.48,16.48,0,0,0,1179.89,757h31.22a7.89,7.89,0,0,0,7.89-7.9V677.6A10.78,10.78,0,0,0,1208.22,666.82Z"/><path class="cls-10" d="M1159.85,695.13h37.59v-.55h-37.59a10.78,10.78,0,0,0-10.78,10.78c0,.1,0,.18,0,.28A10.77,10.77,0,0,1,1159.85,695.13Z"/><path class="cls-10" d="M1208.22,666.82a10.78,10.78,0,0,0-10.78,10.78v.55a10.78,10.78,0,0,1,21.56,0v-.55A10.78,10.78,0,0,0,1208.22,666.82Z"/><path class="cls-12" d="M934.57,725.85a64.34,64.34,0,0,1,42.06,113.07l9.63,27.92L956,850.9a64.37,64.37,0,1,1-21.43-125Z"/><path class="cls-17" d="M977,840l9.25,26.84-.6-.32-9-26.18Z"/><path class="cls-18" d="M956.63,795.08a34.53,34.53,0,0,0-23.3-32.63,24.95,24.95,0,1,1,34.94,34.88c1.16,2,3.65,4.15,9,2.77,0,0-7.74,9.25-18.62,1.63a25,25,0,0,1-2.77.44A34.52,34.52,0,0,0,956.63,795.08Z"/><path class="cls-18" d="M922.08,764a31.23,31.23,0,0,0-18.68,56.27c-1.45,2.53-4.58,5.2-11.28,3.48,0,0,9.69,11.57,23.3,2a31.83,31.83,0,0,0,6.66.73,31.26,31.26,0,1,0,0-62.52Z"/><path class="cls-10" d="M956.63,795.08a34.53,34.53,0,0,0-23.3-32.63,24.95,24.95,0,1,1,34.94,34.88c1.16,2,3.65,4.15,9,2.77,0,0-7.74,9.25-18.62,1.63a25,25,0,0,1-2.77.44A34.52,34.52,0,0,0,956.63,795.08Z"/><path class="cls-10" d="M922.08,764a31.23,31.23,0,0,0-18.68,56.27c-1.45,2.53-4.58,5.2-11.28,3.48,0,0,9.69,11.57,23.3,2a31.83,31.83,0,0,0,6.66.73,31.26,31.26,0,1,0,0-62.52Z"/><path class="cls-10" d="M953.34,795.24c0,.12,0,.24,0,.37a31.24,31.24,0,0,0-62.47,0c0-.12,0-.23,0-.34a31.26,31.26,0,1,1,62.51,0Z"/><path class="cls-10" d="M953.34,753.11a24.85,24.85,0,0,0-19.54,9.52c-.16-.06-.31-.13-.47-.18a24.95,24.95,0,0,1,45,14.89c0,.12,0,.22,0,.34A25,25,0,0,0,953.34,753.11Z"/><path class="cls-10" d="M903.08,820.72l.32.27c-1.39,2.4-4.33,4.9-10.41,3.64a12,12,0,0,1-.87-.9C898.4,825.34,901.52,823.09,903.08,820.72Z"/><path class="cls-10" d="M956.63,795.82a34.74,34.74,0,0,1-.62,6.33l-.12,0a34.32,34.32,0,0,0,.72-6.77C956.61,795.54,956.63,795.68,956.63,795.82Z"/><path class="cls-10" d="M968.27,798.06c.11-.08.21-.18.31-.26,1.27,1.85,3.76,3.57,8.7,2.3a10.86,10.86,0,0,1-.9.91C971.66,801.92,969.36,800,968.27,798.06Z"/><path class="cls-12" d="M914.87,986.18a51.82,51.82,0,0,1,33.87,91.06l7.76,22.48-24.37-12.84a51.83,51.83,0,1,1-17.26-100.7Z"/><path class="cls-12" d="M949.05,1078.11l7.45,21.61-.48-.25-7.28-21.09Z"/><path class="cls-10" d="M903.35,1064.57h0a4.15,4.15,0,0,1-4.14-4.14v-42.55a4.15,4.15,0,0,1,4.14-4.13h0a4.15,4.15,0,0,1,4.14,4.13v42.55A4.15,4.15,0,0,1,903.35,1064.57Z"/><path class="cls-10" d="M926.4,1064.57h0a4.15,4.15,0,0,1-4.14-4.14v-42.55a4.15,4.15,0,0,1,4.14-4.13h0a4.15,4.15,0,0,1,4.14,4.13v42.55A4.15,4.15,0,0,1,926.4,1064.57Z"/><path class="cls-10" d="M940.29,1050.68h0a4.15,4.15,0,0,1-4.14,4.14H893.6a4.15,4.15,0,0,1-4.14-4.14h0a4.15,4.15,0,0,1,4.14-4.13h42.55A4.15,4.15,0,0,1,940.29,1050.68Z"/><path class="cls-10" d="M940.29,1027.63h0a4.15,4.15,0,0,1-4.14,4.14H893.6a4.15,4.15,0,0,1-4.14-4.14h0a4.15,4.15,0,0,1,4.14-4.13h42.55A4.15,4.15,0,0,1,940.29,1027.63Z"/><path class="cls-19" d="M1041.11,866.84c-28.54,0-52.48,23.26-52.48,52s23.94,50.35,52.48,48.44c27.48-1.85,49-25,49-51.85A48.54,48.54,0,0,0,1041.11,866.84Zm0,6.15a15,15,0,0,1,15.12,14.9,15.47,15.47,0,0,1-15.12,15.34,14.93,14.93,0,0,1-15.43-14.9A15.45,15.45,0,0,1,1041.11,873Zm3.6,43.93a3.74,3.74,0,0,1-3.6,3.69,3.45,3.45,0,0,1-3.62-3.45,3.73,3.73,0,0,1,3.62-3.69A3.44,3.44,0,0,1,1044.71,916.92Zm-33.4,16.54c-8.83.39-16.06-6.27-16.06-14.88s7.23-15.76,16.06-16A15,15,0,0,1,1027,917.51C1027,925.94,1020,933.08,1011.31,933.46Zm29.8,27.63a14.27,14.27,0,0,1-15.43-14.31,16.19,16.19,0,0,1,15.43-15.93,14.27,14.27,0,0,1,15.12,14.32A16.23,16.23,0,0,1,1041.11,961.09Zm28.66-30.18a14.19,14.19,0,0,1-14.85-14.34,15.38,15.38,0,0,1,14.85-15.33,14.19,14.19,0,0,1,14.54,14.35A15.39,15.39,0,0,1,1069.77,930.91Z"/><path class="cls-20" d="M1041.73,866.84c-28.53,0-52.47,23.26-52.47,52s23.94,50.35,52.47,48.44c27.49-1.85,49-25,49-51.85A48.54,48.54,0,0,0,1041.73,866.84Zm0,6.15a14.94,14.94,0,0,1,15.12,14.9,15.47,15.47,0,0,1-15.12,15.34,14.93,14.93,0,0,1-15.43-14.9A15.45,15.45,0,0,1,1041.73,873Zm3.6,43.93a3.74,3.74,0,0,1-3.6,3.69,3.44,3.44,0,0,1-3.61-3.45,3.73,3.73,0,0,1,3.61-3.69A3.44,3.44,0,0,1,1045.33,916.92Zm-33.4,16.54c-8.82.39-16-6.27-16-14.88s7.23-15.76,16-16a15,15,0,0,1,15.73,14.89C1027.66,925.94,1020.66,933.08,1011.93,933.46Zm29.8,27.63a14.27,14.27,0,0,1-15.43-14.31,16.2,16.2,0,0,1,15.43-15.93,14.27,14.27,0,0,1,15.12,14.32A16.23,16.23,0,0,1,1041.73,961.09Zm28.66-30.18a14.18,14.18,0,0,1-14.84-14.34,15.37,15.37,0,0,1,14.84-15.33,14.2,14.2,0,0,1,14.55,14.35A15.4,15.4,0,0,1,1070.39,930.91Z"/><path class="cls-21" d="M1073.52,916c0,17.39-14.06,32.25-31.79,33.23-18.15,1-33.2-12.89-33.2-31.05s15.05-33,33.2-33.27A31.07,31.07,0,0,1,1073.52,916Z"/><path class="cls-22" d="M1068.5,916.14A28.28,28.28,0,0,1,1041.73,944,26.06,26.06,0,0,1,1014,918a28.24,28.24,0,0,1,27.76-27.92A26.07,26.07,0,0,1,1068.5,916.14Z"/><path class="cls-23" d="M1078.22,916c0,17.39-14.06,32.25-31.79,33.23-18.15,1-33.2-12.89-33.2-31.05s15-33,33.2-33.27A31.07,31.07,0,0,1,1078.22,916Z"/><path class="cls-24" d="M1073.2,916.14A28.28,28.28,0,0,1,1046.43,944,26.06,26.06,0,0,1,1018.67,918a28.24,28.24,0,0,1,27.76-27.92A26.07,26.07,0,0,1,1073.2,916.14Z"/><path class="cls-25" d="M1045.6,866.84c-28.54,0-52.48,23.26-52.48,52s23.94,50.35,52.48,48.44c27.48-1.85,49-25,49-51.85A48.54,48.54,0,0,0,1045.6,866.84Zm0,6.15a14.94,14.94,0,0,1,15.12,14.9,15.47,15.47,0,0,1-15.12,15.34,14.93,14.93,0,0,1-15.43-14.9A15.45,15.45,0,0,1,1045.6,873Zm3.6,43.93a3.74,3.74,0,0,1-3.6,3.69,3.45,3.45,0,0,1-3.62-3.45,3.73,3.73,0,0,1,3.62-3.69A3.44,3.44,0,0,1,1049.2,916.92Zm-33.4,16.54c-8.83.39-16.06-6.27-16.06-14.88s7.23-15.76,16.06-16a15,15,0,0,1,15.72,14.89C1031.52,925.94,1024.52,933.08,1015.8,933.46Zm29.8,27.63a14.27,14.27,0,0,1-15.43-14.31,16.2,16.2,0,0,1,15.43-15.93,14.27,14.27,0,0,1,15.12,14.32A16.23,16.23,0,0,1,1045.6,961.09Zm28.66-30.18a14.18,14.18,0,0,1-14.84-14.34,15.37,15.37,0,0,1,14.84-15.33,14.19,14.19,0,0,1,14.54,14.35A15.39,15.39,0,0,1,1074.26,930.91Z"/><path class="cls-26" d="M1046.43,866.84c-28.53,0-52.47,23.26-52.47,52s23.94,50.35,52.47,48.44c27.49-1.85,49-25,49-51.85A48.54,48.54,0,0,0,1046.43,866.84Zm0,6.15a14.94,14.94,0,0,1,15.12,14.9,15.47,15.47,0,0,1-15.12,15.34,14.93,14.93,0,0,1-15.43-14.9A15.45,15.45,0,0,1,1046.43,873Zm3.6,43.93a3.74,3.74,0,0,1-3.6,3.69,3.44,3.44,0,0,1-3.61-3.45,3.73,3.73,0,0,1,3.61-3.69A3.44,3.44,0,0,1,1050,916.92Zm-33.4,16.54c-8.82.39-16-6.27-16-14.88s7.23-15.76,16-16a15,15,0,0,1,15.73,14.89C1032.36,925.94,1025.36,933.08,1016.63,933.46Zm29.8,27.63A14.27,14.27,0,0,1,1031,946.78a16.2,16.2,0,0,1,15.43-15.93,14.27,14.27,0,0,1,15.12,14.32A16.23,16.23,0,0,1,1046.43,961.09Zm28.66-30.18a14.18,14.18,0,0,1-14.84-14.34,15.37,15.37,0,0,1,14.84-15.33,14.2,14.2,0,0,1,14.55,14.35A15.4,15.4,0,0,1,1075.09,930.91Z"/><path class="cls-27" d="M1061.54,944.84c0,.11,0,.22,0,.33a16.23,16.23,0,0,1-15.12,15.92A14.27,14.27,0,0,1,1031,946.78a16.11,16.11,0,0,1,9-14.26,19,19,0,0,1-2.25-4.4c-3-8.48,2.73-11.92.56-20.11-3-11.09-15.12-11-19.73-21.46a19.86,19.86,0,0,1-1.33-10.78,52,52,0,0,0-23.3,43c0,28.7,23.94,50.35,52.47,48.44a52.78,52.78,0,0,0,36.06-17.87,32.89,32.89,0,0,0-8.31-3.14C1069.49,945.15,1065.65,945.35,1061.54,944.84Zm-44.91-11.38c-8.82.39-16-6.27-16-14.88s7.23-15.76,16-16a15,15,0,0,1,15.73,14.89C1032.36,925.94,1025.36,933.08,1016.63,933.46Z"/><path class="cls-28" d="M1181.45,928.31l-.17-1.82-.14-1.44-.17-1.75L1179.53,908a4.14,4.14,0,0,0-4.52-3.69l-15.73,1.44-31,2.83-23.84,2.17-4.18.39-50.69,4.62-26.9,2.45a4.16,4.16,0,0,0-2.81,1.45,4,4,0,0,0-.94,3l1.75,18.54a4.12,4.12,0,0,0,4.51,3.69l43.87-4,10.34-.94,23.83-2.18,31-2.83,23.83-2.17,21.33-1.94A2.28,2.28,0,0,0,1181.45,928.31Z"/><path class="cls-29" d="M1176.6,945.58h-153a4.14,4.14,0,0,0-4,4.28v100.28a4,4,0,0,0,4,4.1h153a4.09,4.09,0,0,0,4.07-3.64c0-.15,0-.31,0-.46V949.86A4.19,4.19,0,0,0,1176.6,945.58Z"/><path class="cls-30" d="M1018.91,921.64s.41-4,5.86-5.38C1021.48,920.38,1018.91,921.64,1018.91,921.64Z"/><path class="cls-31" d="M1180.63,947.9v100.28c0,.15.06.18,0,.32a3.91,3.91,0,0,1-4,3.51H1026.1a3.8,3.8,0,0,1-4-3.83V947.9a3.93,3.93,0,0,1,4-4h150.57A3.9,3.9,0,0,1,1180.63,947.9Z"/><path class="cls-10" d="M1175.12,902.3l-149.94,13.9a4.06,4.06,0,0,0-2.76,1.45,4.1,4.1,0,0,0-.93,3l1.72,18.54a4.08,4.08,0,0,0,4.44,3.69L1177.59,929a4.08,4.08,0,0,0,3.69-4.44L1179.56,906A4.1,4.1,0,0,0,1175.12,902.3Z"/><path class="cls-32" d="M1081,937.93l-30.54,2.83-28-23.11a4.06,4.06,0,0,1,2.76-1.45l26.47-2.45Z"/><polygon class="cls-33" points="1134.98 932.92 1105.64 908.74 1075.11 911.57 1104.44 935.75 1134.98 932.92"/><polygon class="cls-34" points="1181.65 928.6 1180.98 921.34 1159.63 903.74 1129.1 906.57 1158.43 930.75 1181.65 928.6"/><path class="cls-10" d="M1170.6,983.5a2.54,2.54,0,0,0-2.54-2.54H1034.94a2.54,2.54,0,0,0-2.53,2.54v59.29a2.53,2.53,0,0,0,2.53,2.53h133.12a2.53,2.53,0,0,0,2.54-2.53Zm-1.67,59.48a1.23,1.23,0,0,1-1.23,1.23H1034.47a1.23,1.23,0,0,1-1.23-1.23V983.59a1.23,1.23,0,0,1,1.23-1.23H1167.7a1.23,1.23,0,0,1,1.23,1.23Z"/><rect class="cls-10" x="1032.69" y="1028.89" width="137.08" height="1.11"/><rect class="cls-10" x="1100.67" y="1029.16" width="1.39" height="15.6"/><path class="cls-35" d="M1180.74,1048.5a4,4,0,0,1-4.07,3.51H1026.1a3.8,3.8,0,0,1-4-3.83V968.63c3.34-1.53,7.94-2.21,12.39-2.59l.24,0c-1.38.11,3.18,8.85,6.87,15,.26.46.52.89.77,1.31a31,31,0,0,0,3.19,4.65c14.51,12.66,36.32,8.09,53.71,12.35,10.82,2.65,21.48,8.19,28.84,16.72,3.2,3.7,5.41,8.27,7.82,12.66l.72,1.31c2.46,4.34,5.23,8.42,9.49,11.19a26.16,26.16,0,0,0,5.94,2.86,38.49,38.49,0,0,0,5,1.3c6.43,1.25,13.24,1.12,19.64,2.27C1178.06,1047.92,1179.41,1048.14,1180.74,1048.5Z"/><path class="cls-10" d="M1176.67,943.91H1026.1a3.93,3.93,0,0,0-4,4v22.75h158.53V947.9A3.9,3.9,0,0,0,1176.67,943.91Z"/><polygon class="cls-36" points="1079.66 943.91 1052.68 970.65 1022.01 970.65 1048.99 943.91 1079.66 943.91"/><polygon class="cls-37" points="1133.88 943.91 1106.9 970.65 1076.23 970.65 1103.21 943.91 1133.88 943.91"/><path class="cls-38" d="M1180.63,947.9v3.21l-19.51,19.54h-30.66l27-26.74h19.24A3.9,3.9,0,0,1,1180.63,947.9Z"/><path class="cls-39" d="M1054.11,949.82l-20.68-20.69a2.21,2.21,0,0,0-2.45-.49,2.24,2.24,0,0,0-1.36,2.11v20.89a2.23,2.23,0,0,0,.63,1.62,2.26,2.26,0,0,0,1.61.67l20.67-.21a2.28,2.28,0,0,0,1.58-3.9Z"/><circle class="cls-40" cx="1032.71" cy="934.18" r="1.71"/><circle class="cls-41" cx="1032.71" cy="949.86" r="1.71"/><circle class="cls-42" cx="1049.04" cy="949.86" r="1.71"/><path d="M1024.6,1106.48l-8.81-27h3.77l4.2,13.3c1.16,3.64,2.17,6.92,2.89,10.09h.08c.76-3.13,1.88-6.53,3.08-10.05l4.57-13.34h3.72l-9.65,27Z"/><path d="M1044.2,1081.65a2.19,2.19,0,0,1-4.37,0,2.14,2.14,0,0,1,2.2-2.2A2.1,2.1,0,0,1,1044.2,1081.65Zm-3.93,24.83V1087.1h3.52v19.38Z"/><path d="M1066.39,1078.05v23.43c0,1.72,0,3.68.16,5h-3.17l-.16-3.36h-.08a7.17,7.17,0,0,1-6.61,3.8c-4.68,0-8.29-4-8.29-9.85,0-6.45,4-10.41,8.69-10.41a6.48,6.48,0,0,1,5.85,3h.08v-11.57Zm-3.53,16.94a6.21,6.21,0,0,0-.16-1.48,5.18,5.18,0,0,0-5.08-4.09c-3.65,0-5.81,3.21-5.81,7.49,0,3.93,1.92,7.17,5.72,7.17a5.29,5.29,0,0,0,5.17-4.21,6.11,6.11,0,0,0,.16-1.52Z"/><path d="M1074.2,1097.43c.08,4.77,3.13,6.73,6.65,6.73a12.78,12.78,0,0,0,5.37-1l.6,2.52a15.74,15.74,0,0,1-6.45,1.2c-6,0-9.53-3.92-9.53-9.77s3.44-10.45,9.09-10.45c6.33,0,8,5.56,8,9.13a13.28,13.28,0,0,1-.12,1.64Zm10.33-2.52c0-2.24-.92-5.73-4.88-5.73-3.57,0-5.13,3.29-5.41,5.73Z"/><path d="M1109.85,1096.63c0,7.17-5,10.29-9.65,10.29-5.25,0-9.29-3.84-9.29-10,0-6.49,4.24-10.29,9.61-10.29C1106.09,1086.66,1109.85,1090.7,1109.85,1096.63Zm-15.38.2c0,4.25,2.45,7.45,5.89,7.45s5.89-3.16,5.89-7.53c0-3.28-1.64-7.45-5.81-7.45S1094.47,1093.15,1094.47,1096.83Z"/><path d="M1127.28,1098l-2.8,8.49h-3.61l9.18-27h4.2l9.21,27h-3.72l-2.88-8.49Zm8.85-2.72-2.64-7.77c-.6-1.76-1-3.37-1.4-4.93H1132c-.4,1.6-.84,3.25-1.36,4.89l-2.65,7.81Z"/><path d="M1163.58,1078.05v23.43c0,1.72,0,3.68.16,5h-3.17l-.16-3.36h-.08a7.17,7.17,0,0,1-6.61,3.8c-4.68,0-8.29-4-8.29-9.85,0-6.45,4-10.41,8.69-10.41a6.48,6.48,0,0,1,5.85,3h.08v-11.57Zm-3.53,16.94a6.21,6.21,0,0,0-.16-1.48,5.18,5.18,0,0,0-5.09-4.09c-3.64,0-5.8,3.21-5.8,7.49,0,3.93,1.92,7.17,5.72,7.17a5.29,5.29,0,0,0,5.17-4.21,6.11,6.11,0,0,0,.16-1.52Z"/><path d="M1169,1102.88a9.23,9.23,0,0,0,4.64,1.4c2.57,0,3.77-1.28,3.77-2.88s-1-2.61-3.61-3.57c-3.48-1.24-5.12-3.16-5.12-5.49,0-3.12,2.52-5.68,6.69-5.68a9.66,9.66,0,0,1,4.76,1.2l-.88,2.56a7.53,7.53,0,0,0-4-1.12c-2.09,0-3.25,1.2-3.25,2.64,0,1.61,1.16,2.33,3.69,3.29,3.36,1.28,5.08,3,5.08,5.85,0,3.4-2.64,5.8-7.25,5.8a11,11,0,0,1-5.44-1.32Z"/></g></g></svg>