<svg id="Слой_1" data-name="Слой 1" xmlns="http://www.w3.org/2000/svg" xmlns:xlink="http://www.w3.org/1999/xlink" viewBox="0 0 1095.27 1095.27"><defs><style>.cls-1{fill:none;}.cls-2{fill:url(#Безымянный_градиент_41);}.cls-3{fill:#333343;}.cls-4{fill:#efdcfa;}.cls-5{fill:#440073;}.cls-6{fill:#662483;}.cls-7{fill:#00a2ff;}.cls-8{fill:#ededed;}.cls-24,.cls-9{fill:#fff;}.cls-10{fill:#3eecff;}.cls-11{fill:#951b81;}.cls-12{clip-path:url(#clip-path);}.cls-13{fill:#cc78fa;}.cls-14{fill:#530073;}.cls-15{fill:#a3195b;}.cls-16{fill:#0050a8;}.cls-17{fill:#d7f2ff;}.cls-18{fill:#063;opacity:0.12;}.cls-19,.cls-26{fill:#e71d73;}.cls-19{opacity:0.52;}.cls-20{fill:#1d1d1b;}.cls-21{fill:url(#Безымянный_градиент_68);}.cls-22{fill:#9d9d9c;}.cls-23{fill:url(#linear-gradient);}.cls-24{opacity:0.5;}.cls-25{fill:#1d71b8;opacity:0.6;}.cls-27{fill:url(#linear-gradient-2);}.cls-28{fill:url(#linear-gradient-3);}.cls-29{fill:url(#linear-gradient-4);}.cls-30{fill:url(#linear-gradient-5);}.cls-31{fill:url(#linear-gradient-6);}.cls-32{fill:url(#linear-gradient-7);}.cls-33{fill:url(#linear-gradient-8);}.cls-34{fill:url(#linear-gradient-9);}.cls-35{fill:url(#linear-gradient-10);}.cls-36{fill:url(#linear-gradient-11);}.cls-37{fill:url(#linear-gradient-12);}.cls-38{fill:url(#linear-gradient-13);}.cls-39{fill:url(#linear-gradient-14);}.cls-40{fill:url(#linear-gradient-15);}.cls-41{fill:url(#linear-gradient-16);}.cls-42{fill:url(#linear-gradient-17);}.cls-43{fill:url(#linear-gradient-18);}.cls-44{fill:url(#linear-gradient-19);}.cls-45{fill:url(#linear-gradient-20);}.cls-46{fill:url(#linear-gradient-21);}.cls-47{fill:url(#linear-gradient-22);}.cls-48{fill:url(#linear-gradient-23);}.cls-49{fill:url(#linear-gradient-24);}.cls-50{fill:url(#linear-gradient-25);}.cls-51{fill:url(#linear-gradient-26);}.cls-52{fill:url(#linear-gradient-27);}.cls-53{fill:url(#linear-gradient-28);}.cls-54{fill:url(#linear-gradient-29);}.cls-55{fill:url(#linear-gradient-30);}.cls-56{fill:url(#linear-gradient-31);}.cls-57{fill:url(#linear-gradient-32);}.cls-58{fill:#ce41a4;}</style><linearGradient id="Безымянный_градиент_41" x1="531.87" y1="883.24" x2="531.87" y2="987.16" gradientUnits="userSpaceOnUse"><stop offset="0.23" stop-color="#951b81"/><stop offset="1" stop-color="#fff" stop-opacity="0"/></linearGradient><clipPath id="clip-path"><ellipse class="cls-1" cx="741.34" cy="679.71" rx="52.94" ry="121.78" transform="matrix(0.98, -0.2, 0.2, 0.98, -120.99, 162.04)"/></clipPath><linearGradient id="Безымянный_градиент_68" x1="534.07" y1="476.41" x2="571" y2="365.61" gradientUnits="userSpaceOnUse"><stop offset="0" stop-color="#fff"/><stop offset="1" stop-color="#3c3c3b"/></linearGradient><linearGradient id="linear-gradient" x1="547.89" y1="420.61" x2="441.76" y2="483.55" gradientUnits="userSpaceOnUse"><stop offset="0" stop-color="#53d8ff"/><stop offset="1" stop-color="#3840f7"/></linearGradient><linearGradient id="linear-gradient-2" x1="568.83" y1="456.06" x2="636.02" y2="443.36" gradientUnits="userSpaceOnUse"><stop offset="0" stop-color="#9cfffb"/><stop offset="1" stop-color="#9bfffa"/></linearGradient><linearGradient id="linear-gradient-3" x1="575.17" y1="447.73" x2="582.36" y2="447.73" gradientUnits="userSpaceOnUse"><stop offset="0" stop-color="#2c759e"/><stop offset="1" stop-color="#051042"/></linearGradient><linearGradient id="linear-gradient-4" x1="577.91" y1="447.77" x2="587.28" y2="447.77" gradientUnits="userSpaceOnUse"><stop offset="0" stop-color="#2b3582"/><stop offset="1" stop-color="#150e42"/></linearGradient><linearGradient id="linear-gradient-5" x1="568.65" y1="438.16" x2="582.02" y2="438.16" xlink:href="#linear-gradient-4"/><linearGradient id="linear-gradient-6" x1="591.85" y1="429.19" x2="560.26" y2="465.37" xlink:href="#linear-gradient-3"/><linearGradient id="linear-gradient-7" x1="585.05" y1="433.56" x2="566.9" y2="454.35" gradientUnits="userSpaceOnUse"><stop offset="0" stop-color="#50e7b7"/><stop offset="1" stop-color="#323992"/></linearGradient><linearGradient id="linear-gradient-8" x1="582.05" y1="431.02" x2="570.09" y2="447.56" xlink:href="#linear-gradient-7"/><linearGradient id="linear-gradient-9" x1="582.95" y1="437.47" x2="584.06" y2="437.47" gradientUnits="userSpaceOnUse"><stop offset="0" stop-color="#e40045"/><stop offset="1" stop-color="#5c0e16"/></linearGradient><linearGradient id="linear-gradient-10" x1="587.14" y1="441.11" x2="591.34" y2="441.11" xlink:href="#linear-gradient-4"/><linearGradient id="linear-gradient-11" x1="587.99" y1="436.95" x2="590.36" y2="436.95" xlink:href="#linear-gradient-4"/><linearGradient id="linear-gradient-12" x1="556.88" y1="464.44" x2="684.97" y2="440.22" xlink:href="#linear-gradient-3"/><linearGradient id="linear-gradient-13" x1="559.76" y1="464.25" x2="681.86" y2="441.17" xlink:href="#linear-gradient-4"/><linearGradient id="linear-gradient-14" x1="584.49" y1="449.4" x2="591.01" y2="449.4" xlink:href="#linear-gradient-2"/><linearGradient id="linear-gradient-15" x1="66.57" y1="405.44" x2="56.63" y2="419.17" gradientTransform="matrix(0.99, -0.12, 0.12, 0.99, 477.22, 58.37)" xlink:href="#linear-gradient-4"/><linearGradient id="linear-gradient-16" x1="535.9" y1="385.1" x2="530.88" y2="419.64" gradientUnits="userSpaceOnUse"><stop offset="0" stop-color="#cb236d"/><stop offset="1" stop-color="#4c246d"/></linearGradient><linearGradient id="linear-gradient-17" x1="-5201.19" y1="497.08" x2="-5222.71" y2="513.98" gradientTransform="matrix(-1, 0, 0, 1, -4694.86, 0)" xlink:href="#linear-gradient-4"/><linearGradient id="linear-gradient-18" x1="6605.13" y1="501.25" x2="6624.17" y2="494.97" gradientTransform="translate(-6096.88)" xlink:href="#linear-gradient-4"/><linearGradient id="linear-gradient-19" x1="6610.81" y1="492.46" x2="6609.68" y2="502.32" gradientTransform="translate(-6096.88)" gradientUnits="userSpaceOnUse"><stop offset="0" stop-color="#f9b776"/><stop offset="1" stop-color="#f47960"/></linearGradient><linearGradient id="linear-gradient-20" x1="6627.8" y1="497.08" x2="6606.28" y2="513.98" gradientTransform="translate(-6096.88)" xlink:href="#linear-gradient-4"/><linearGradient id="linear-gradient-21" x1="6618.8" y1="500.56" x2="6636.53" y2="494.71" gradientTransform="translate(-6096.88)" xlink:href="#linear-gradient-4"/><linearGradient id="linear-gradient-22" x1="6620.01" y1="493.51" x2="6618.88" y2="503.37" xlink:href="#linear-gradient-19"/><linearGradient id="linear-gradient-23" x1="6614.41" y1="464.66" x2="6612.74" y2="511.23" gradientTransform="translate(-6096.88)" xlink:href="#linear-gradient-3"/><linearGradient id="linear-gradient-24" x1="526.03" y1="432.56" x2="499.54" y2="469.79" gradientUnits="userSpaceOnUse"><stop offset="0" stop-color="#fdf53f"/><stop offset="1" stop-color="#d93c65"/></linearGradient><linearGradient id="linear-gradient-25" x1="533.76" y1="438.05" x2="507.26" y2="475.29" xlink:href="#linear-gradient-24"/><linearGradient id="linear-gradient-26" x1="6613.31" y1="429.3" x2="6608.99" y2="447.94" xlink:href="#linear-gradient-19"/><linearGradient id="linear-gradient-27" x1="7868" y1="-136.49" x2="7859.26" y2="-129.8" gradientTransform="translate(-7224.94 -970.97) rotate(11.24)" xlink:href="#linear-gradient-19"/><linearGradient id="linear-gradient-28" x1="7861.85" y1="-141.79" x2="7869.99" y2="-131.31" gradientTransform="translate(-7224.94 -970.97) rotate(11.24)" xlink:href="#linear-gradient-4"/><linearGradient id="linear-gradient-29" x1="7866.92" y1="-137.91" x2="7858.17" y2="-131.22" gradientTransform="translate(-7224.94 -970.97) rotate(11.24)" xlink:href="#linear-gradient-19"/><linearGradient id="linear-gradient-30" x1="539.66" y1="435.4" x2="513.17" y2="460.91" gradientTransform="matrix(1, 0, 0, 1, 0, 0)" xlink:href="#linear-gradient-19"/><linearGradient id="linear-gradient-31" x1="519.67" y1="427.99" x2="493.25" y2="465.11" xlink:href="#linear-gradient-24"/><linearGradient id="linear-gradient-32" x1="513.91" y1="454.01" x2="484.37" y2="489.02" gradientTransform="matrix(1, 0, 0, 1, 0, 0)" xlink:href="#linear-gradient-19"/></defs><polygon class="cls-2" points="636.99 896.7 531.43 888.69 531.43 884.84 518.99 887.07 484.87 882.65 486.7 892.88 426.68 898.19 290.03 1001.13 506.15 1001.13 531.43 1001.13 773.72 1001.13 636.99 896.7"/><path class="cls-3" d="M705.67,347H705V280.54a39.91,39.91,0,0,0-39.9-39.91H423.28a39.9,39.9,0,0,0-39.9,39.91V347h-.64a5.21,5.21,0,0,0-5.21,5.21v46a5.21,5.21,0,0,0,5.21,5.21h.64v11h-.64a5.21,5.21,0,0,0-5.21,5.21v46a5.21,5.21,0,0,0,5.21,5.21h.64V873.38a39.9,39.9,0,0,0,39.9,39.9H665.14a39.9,39.9,0,0,0,39.9-39.9V431.59h.63a5.21,5.21,0,0,0,5.21-5.21V352.21A5.21,5.21,0,0,0,705.67,347Z"/><rect class="cls-4" x="394.99" y="250.5" width="298.44" height="652.91" rx="36.05"/><rect class="cls-5" x="405" y="721.38" width="67.4" height="32.96" rx="6.29" transform="translate(-138.74 102.67) rotate(-11.54)"/><rect class="cls-5" x="471.85" y="727.65" width="47.18" height="133.03" rx="9" transform="translate(-148.84 115.14) rotate(-11.54)"/><path class="cls-5" d="M501.55,757.69l-8.77-.49-25.9,15s25,4.31,50.22,10.11c-4-16.07-7.47-22-7.47-22S510.32,758.18,501.55,757.69Z"/><rect class="cls-6" x="508.55" y="760.51" width="15.37" height="39.86" rx="2.93" transform="translate(-145.72 119.07) rotate(-11.54)"/><path class="cls-6" d="M753.12,641s-28.71-43.64-54.38-88.7c-84.76,113.45-266.09,156-266.09,156v.06c-8.36,1.71-12.11,17.88-8.39,36.13s13.52,31.65,21.88,29.95h0c1.48-.26,184-31.66,305.9,39.2,5.95-51.52,15.26-102.92,15.26-102.92l-26-31Z"/><path class="cls-7" d="M741.59,680.84l25.62,30.55c.08-.46.13-.72.13-.72L741.78,680.2Z"/><path class="cls-8" d="M484.2,692.54c-6.67,2.35-12.89,4.43-18.51,6.23-2.36,10.29-2.37,23.18.47,37.13s7.9,25.74,14.08,34.28c5.86-.55,12.37-1.07,19.41-1.52-5.73-3.22-14.52-15-18.75-35.77S480.16,697.67,484.2,692.54Z"/><path class="cls-8" d="M459.85,700.61,455.47,702c-4.76,7.53-6.18,21.36-3,36.75s9.81,27.47,17.11,32.56l4.51-.48c-7.64-2.75-15.75-16-19.13-32.59S453.83,706.05,459.85,700.61Z"/><path class="cls-8" d="M555.28,662.85q-9.49,4.65-18.72,8.78c-3.54,13.34-3.73,30.81.16,49.86s10.89,35,19.36,45.88c6.71.13,13.58.36,20.6.73-9.17-4.68-21.2-21.88-26.8-49.3S548.63,670.68,555.28,662.85Z"/><path class="cls-8" d="M593.78,642.14q-9.54,5.64-19.07,10.74c-4.29,16.16-4.5,37.5.26,60.8s13.29,42.79,23.55,56q10.72,1,21.68,2.39c-12.07-7.31-25.82-29.58-32.24-61S585.49,653.54,593.78,642.14Z"/><ellipse class="cls-5" cx="727.96" cy="682.44" rx="62.48" ry="136.37" transform="translate(-121.8 159.42) rotate(-11.54)"/><ellipse class="cls-9" cx="737.42" cy="680.51" rx="63.28" ry="136.37" transform="translate(-121.23 161.27) rotate(-11.54)"/><ellipse class="cls-6" cx="738.21" cy="680.35" rx="62.48" ry="136.37" transform="translate(-121.18 161.42) rotate(-11.54)"/><path class="cls-10" d="M710.93,546.74l-.57.15c33.68-6.18,72.94,47.82,87.92,121.2s0,138.44-33.37,146c.19,0,.38,0,.58-.09,33.8-6.9,49-72.31,33.93-146.11S744.74,539.84,710.93,546.74Z"/><ellipse class="cls-11" cx="741.34" cy="679.71" rx="52.94" ry="121.78" transform="matrix(0.98, -0.2, 0.2, 0.98, -120.99, 162.04)"/><g class="cls-12"><circle class="cls-13" cx="682.86" cy="691.65" r="59.69" transform="translate(-289.07 685.43) rotate(-45)"/><path class="cls-14" d="M683,692.28a47.67,47.67,0,0,1,27.88-53.34,59.7,59.7,0,1,0,17.41,91.42A47.66,47.66,0,0,1,683,692.28Z"/><path class="cls-15" d="M670.92,633.17c-.31.06-.61.14-.92.21A59.67,59.67,0,0,1,693.87,750.3l.93-.16a59.69,59.69,0,0,0-23.88-117Z"/></g><path class="cls-11" d="M722.83,310.13a55,55,0,0,0-36,96.73l-8.23,23.89,25.89-13.64a55.06,55.06,0,1,0,18.33-107Z"/><path class="cls-9" d="M757,359.78a18.88,18.88,0,0,0-34.14-11.14,18.88,18.88,0,1,0-26.54,26.25h0l26.54,20.69,26.55-20.69h0A18.83,18.83,0,0,0,757,359.78Z"/><path class="cls-9" d="M707.59,341.41a18.86,18.86,0,0,1,15.24,7.76A18.87,18.87,0,0,1,757,360a1.94,1.94,0,0,0,0-.24,18.88,18.88,0,0,0-34.14-11.14,18.88,18.88,0,0,0-34.14,11.14c0,.08,0,.16,0,.24A18.89,18.89,0,0,1,707.59,341.41Z"/><path class="cls-11" d="M323.33,346.48a21.87,21.87,0,0,1,14.3,38.43l3.27,9.49L330.61,389a21.67,21.67,0,0,1-7.28,1.27,21.89,21.89,0,1,1,0-43.77Z"/><path class="cls-9" d="M309.77,366.2a7.5,7.5,0,0,1,13.56-4.42,7.5,7.5,0,1,1,10.55,10.43h0l-10.55,8.22-10.55-8.22h0A7.49,7.49,0,0,1,309.77,366.2Z"/><path class="cls-9" d="M329.38,358.91a7.46,7.46,0,0,0-6.05,3.08,7.5,7.5,0,0,0-13.56,4.31v-.1a7.5,7.5,0,0,1,13.56-4.42,7.5,7.5,0,0,1,13.56,4.42v.1A7.51,7.51,0,0,0,329.38,358.91Z"/><path class="cls-11" d="M658.14,94.14A80.14,80.14,0,0,0,605.75,235l-12,34.77,37.69-19.85A80.17,80.17,0,1,0,658.14,94.14Z"/><rect class="cls-9" x="681.88" y="158.06" width="22.03" height="53.37"/><rect class="cls-9" x="681.88" y="158.06" width="22.03" height="0.86"/><path class="cls-9" d="M664.9,123.5a10.78,10.78,0,0,0-10.78,10.78v17H616.53a10.78,10.78,0,1,0,0,21.56h3.56v24.35a16.48,16.48,0,0,0,16.48,16.48h31.22a7.9,7.9,0,0,0,7.9-7.9V134.28A10.79,10.79,0,0,0,664.9,123.5Z"/><path class="cls-9" d="M616.53,151.81h37.59v-.55H616.53A10.78,10.78,0,0,0,605.75,162a2.66,2.66,0,0,0,0,.28A10.77,10.77,0,0,1,616.53,151.81Z"/><path class="cls-9" d="M664.9,123.5a10.78,10.78,0,0,0-10.78,10.78v.55a10.79,10.79,0,0,1,21.57,0v-.55A10.79,10.79,0,0,0,664.9,123.5Z"/><path class="cls-11" d="M391.25,182.53A64.34,64.34,0,0,1,433.31,295.6l9.63,27.92-30.26-15.94a64.37,64.37,0,1,1-21.43-125Z"/><path class="cls-16" d="M433.69,296.68l9.25,26.84-.6-.31-9-26.19Z"/><path class="cls-17" d="M413.31,251.76A34.53,34.53,0,0,0,390,219.13,24.95,24.95,0,1,1,425,254c1.16,2,3.66,4.15,9,2.78,0,0-7.74,9.24-18.62,1.62a25,25,0,0,1-2.77.44A34.52,34.52,0,0,0,413.31,251.76Z"/><path class="cls-17" d="M378.77,220.67a31.22,31.22,0,0,0-18.69,56.26c-1.45,2.53-4.58,5.2-11.28,3.48,0,0,9.69,11.57,23.3,2a31.25,31.25,0,1,0,6.67-61.78Z"/><path class="cls-9" d="M413.31,251.76A34.53,34.53,0,0,0,390,219.13,24.95,24.95,0,1,1,425,254c1.16,2,3.66,4.15,9,2.78,0,0-7.74,9.24-18.62,1.62a25,25,0,0,1-2.77.44A34.52,34.52,0,0,0,413.31,251.76Z"/><path class="cls-9" d="M378.77,220.67a31.22,31.22,0,0,0-18.69,56.26c-1.45,2.53-4.58,5.2-11.28,3.48,0,0,9.69,11.57,23.3,2a31.25,31.25,0,1,0,6.67-61.78Z"/><path class="cls-9" d="M410,251.92c0,.12,0,.24,0,.37a31.24,31.24,0,0,0-62.47,0c0-.12,0-.23,0-.34a31.26,31.26,0,0,1,62.51,0Z"/><path class="cls-9" d="M410,209.79a24.85,24.85,0,0,0-19.54,9.52c-.16-.06-.31-.13-.47-.18A24.95,24.95,0,0,1,435,234c0,.12,0,.23,0,.34A25,25,0,0,0,410,209.79Z"/><path class="cls-9" d="M359.76,277.4l.32.27c-1.38,2.4-4.33,4.9-10.4,3.64a11.22,11.22,0,0,1-.88-.9C355.08,282,358.2,279.77,359.76,277.4Z"/><path class="cls-9" d="M413.31,252.5a33.8,33.8,0,0,1-.62,6.33l-.12,0a34.32,34.32,0,0,0,.72-6.77C413.29,252.22,413.31,252.36,413.31,252.5Z"/><path class="cls-9" d="M425,254.74c.11-.08.21-.18.31-.26,1.27,1.86,3.76,3.57,8.7,2.31a12,12,0,0,1-.9.9C428.34,258.6,426,256.64,425,254.74Z"/><path class="cls-11" d="M371.55,442.87a51.82,51.82,0,0,1,33.88,91l7.75,22.48-24.37-12.84a51.83,51.83,0,1,1-17.26-100.69Z"/><path class="cls-11" d="M405.73,534.79l7.45,21.61-.48-.25-7.27-21.09Z"/><path class="cls-9" d="M360,521.25h0a4.15,4.15,0,0,1-4.14-4.13V474.57a4.15,4.15,0,0,1,4.14-4.14h0a4.15,4.15,0,0,1,4.14,4.14v42.55A4.15,4.15,0,0,1,360,521.25Z"/><path class="cls-9" d="M383.08,521.25h0a4.15,4.15,0,0,1-4.14-4.13V474.57a4.15,4.15,0,0,1,4.14-4.14h0a4.15,4.15,0,0,1,4.14,4.14v42.55A4.15,4.15,0,0,1,383.08,521.25Z"/><path class="cls-9" d="M397,507.37h0a4.15,4.15,0,0,1-4.14,4.13H350.28a4.15,4.15,0,0,1-4.14-4.13h0a4.15,4.15,0,0,1,4.14-4.14h42.55A4.15,4.15,0,0,1,397,507.37Z"/><path class="cls-9" d="M397,484.32h0a4.15,4.15,0,0,1-4.14,4.13H350.28a4.15,4.15,0,0,1-4.14-4.13h0a4.15,4.15,0,0,1,4.14-4.14h42.55A4.15,4.15,0,0,1,397,484.32Z"/><path d="M475.51,559.88c-.56,0-1-.36-1.33-1.07l-8-19a1.5,1.5,0,0,1-.13-1,1.17,1.17,0,0,1,.74-.74,1.2,1.2,0,0,1,1.89.68l7.59,18h-.94l7.4-18a1.2,1.2,0,0,1,1.88-.68,1.27,1.27,0,0,1,.71.74,1.52,1.52,0,0,1-.09,1l-8.1,19a1.58,1.58,0,0,1-1.46,1.07Z"/><path d="M490.4,540.73a1.38,1.38,0,0,1-1.54-1.57v-.95a1.36,1.36,0,0,1,1.54-1.53h1a1.33,1.33,0,0,1,1.48,1.53v.95c0,1-.5,1.57-1.48,1.57Zm.46,19.15a1.21,1.21,0,0,1-1.37-1.37V544.76a1.37,1.37,0,1,1,2.73,0v13.75A1.21,1.21,0,0,1,490.86,559.88Z"/><path d="M504.58,559.88a5.58,5.58,0,0,1-6.37-6.37v-3.74a5.58,5.58,0,0,1,6.37-6.38h6.31v-5a1.37,1.37,0,0,1,2.73,0v20.16a1.37,1.37,0,1,1-2.73,0v-.23a4.79,4.79,0,0,1-2,1.19,10,10,0,0,1-3.07.41Zm0-2.73h1.24a10.25,10.25,0,0,0,3.61-.56c1-.36,1.46-.93,1.46-1.69v-8.78h-6.31a4,4,0,0,0-2.88.78,4.08,4.08,0,0,0-.76,2.87v3.74a3,3,0,0,0,3.64,3.64Z"/><path d="M522,552.76v.78a4.06,4.06,0,0,0,.76,2.85,4.15,4.15,0,0,0,2.88.76h2.67a7.38,7.38,0,0,0,2.45-.31,1.69,1.69,0,0,0,1.06-1.09,2.19,2.19,0,0,1,.5-.94,1.27,1.27,0,0,1,1-.33,1.38,1.38,0,0,1,1,.36,1.08,1.08,0,0,1,.23,1,4.28,4.28,0,0,1-1.92,3,8,8,0,0,1-4.32,1h-2.67a6.55,6.55,0,0,1-4.8-1.56,6.48,6.48,0,0,1-1.57-4.78v-3.77c0-2.21.52-3.82,1.57-4.86a6.5,6.5,0,0,1,4.8-1.52h2.67a5.56,5.56,0,0,1,6.37,6.38v1.62a1.21,1.21,0,0,1-1.36,1.37Zm3.64-6.64a4.06,4.06,0,0,0-2.88.73,4.21,4.21,0,0,0-.76,2.92V550h10v-.26a3,3,0,0,0-3.64-3.65Z"/><path d="M546.27,559.88a5.56,5.56,0,0,1-6.37-6.34v-3.77a5.56,5.56,0,0,1,6.37-6.38h2.67a5.57,5.57,0,0,1,6.37,6.38v3.74a5.57,5.57,0,0,1-6.37,6.37Zm-3.64-6.34a4,4,0,0,0,.76,2.85,4.15,4.15,0,0,0,2.88.76h2.67a3,3,0,0,0,3.64-3.64v-3.74a3,3,0,0,0-3.64-3.65h-2.67a6.09,6.09,0,0,0-2.2.32,1.94,1.94,0,0,0-1.12,1.11,6.14,6.14,0,0,0-.32,2.22Z"/><path d="M570.46,559.75a1.21,1.21,0,0,1-.78-1.79l7.74-19.06a1.61,1.61,0,0,1,1.53-1.07H579a1.48,1.48,0,0,1,1.43,1.07L588.31,558a1.37,1.37,0,1,1-2.53,1L584,554.74H573.89L572.22,559A1.18,1.18,0,0,1,570.46,559.75ZM575,552h7.93l-4-9.85Z"/><path d="M598.1,559.88a5.58,5.58,0,0,1-6.37-6.37v-3.74a5.58,5.58,0,0,1,6.37-6.38h6.31v-5a1.37,1.37,0,0,1,2.73,0v20.16a1.37,1.37,0,1,1-2.73,0v-.23a4.79,4.79,0,0,1-2,1.19,10,10,0,0,1-3.07.41Zm0-2.73h1.24a10.25,10.25,0,0,0,3.61-.56c1-.36,1.46-.93,1.46-1.69v-8.78H598.1a4,4,0,0,0-2.88.78,4.08,4.08,0,0,0-.76,2.87v3.74a3,3,0,0,0,3.64,3.64Z"/><path d="M617.45,559.88a5.54,5.54,0,0,1-3.27-.86,3.88,3.88,0,0,1-1.54-2.56,1.15,1.15,0,0,1,.27-1.07A1.4,1.4,0,0,1,614,555a1.25,1.25,0,0,1,1,.33,2.66,2.66,0,0,1,.49,1,1,1,0,0,0,.66.65,4.25,4.25,0,0,0,1.36.17h5.33a2.53,2.53,0,0,0,1.71-.42,3.6,3.6,0,0,0,0-3.45,2.52,2.52,0,0,0-1.71-.43h-5.23a4.18,4.18,0,0,1-4.72-4.71,4.89,4.89,0,0,1,1.17-3.57,4.75,4.75,0,0,1,3.55-1.18h5.07c2.55,0,4,1.08,4.52,3.22a1.09,1.09,0,0,1-.26,1.06,1.48,1.48,0,0,1-1.07.37,1.25,1.25,0,0,1-.95-.33,2.36,2.36,0,0,1-.48-.94,1,1,0,0,0-.6-.52,4.15,4.15,0,0,0-1.16-.13h-5.07a2.37,2.37,0,0,0-1.61.38,2.43,2.43,0,0,0-.38,1.64,2.33,2.33,0,0,0,.4,1.58,2.29,2.29,0,0,0,1.59.4h5.23a4.9,4.9,0,1,1,0,9.76Z"/><path class="cls-18" d="M446.15,432.56l4.83-5.51s21.69-19.18,22.46-40.82,10.37-24.54,33.35-25.9c19.42-1.15,41.87-4.41,59.92,7.87a44.88,44.88,0,0,0,26.8,7.8l21-.72a44.59,44.59,0,0,1,28,8.66c12.05,8.84,25,25.13,19.73,52.82a86.2,86.2,0,0,0-1.56,14.42L660.37,463A19,19,0,0,1,642,481.85L484.8,485.29A56.56,56.56,0,0,1,442,466.94a17.09,17.09,0,0,1-4.48-11.9A35.16,35.16,0,0,1,446.15,432.56Z"/><path class="cls-19" d="M452.37,432l4.54-5.07S477.3,409.29,478,389.4s9.75-22.57,31.37-23.81c18.27-1,39.39-4,56.38,7.26A42.93,42.93,0,0,0,591,380l19.71-.65a42.62,42.62,0,0,1,26.3,8c11.34,8.14,23.71,23.12,18.74,48.59a78.61,78.61,0,0,0-1.31,13.26l-.2,10.83a17.76,17.76,0,0,1-17.39,17.36l-148,3.11a54,54,0,0,1-40.33-16.89,15.57,15.57,0,0,1-4.24-10.95A31.81,31.81,0,0,1,452.37,432Z"/><path class="cls-15" d="M646.1,366.28c1.46,11.7,8.73,83.84-29.64,106.86a1.82,1.82,0,0,1-2.75-1.43c-.62-8.6-1-35.92,14.77-68.17,11.39-23.27,15.56-33.76,16.88-37.35A.38.38,0,0,1,646.1,366.28Z"/><path class="cls-20" d="M613.71,472.18a.46.46,0,0,1-.22-.06.46.46,0,0,1-.19-.63c10.08-18.53,17-38.83,21-52.6,4.46-15.28,6.52-26.39,6.5-27.3a.47.47,0,0,1,.32-.53.46.46,0,0,1,.58.3c.21.67-2,12.29-6.36,27.28-4.05,13.95-11,34.52-21.24,53.3A.46.46,0,0,1,613.71,472.18Z"/><path class="cls-15" d="M620.08,477c9,1.73,35.74,2.82,45.58-41.49a1.25,1.25,0,0,0-2.15-1.12c-4,4.48-11.26,12.09-17.38,14.44-19,7.25-25.82,18.93-28.08,24.39A2.76,2.76,0,0,0,620.08,477Z"/><path class="cls-20" d="M619.2,475.84a.48.48,0,0,1-.45-.34.47.47,0,0,1,.32-.58,70.93,70.93,0,0,0,28.7-16.74A63.82,63.82,0,0,0,657.29,447a.46.46,0,0,1,.79.49,64.24,64.24,0,0,1-9.67,11.33,71.77,71.77,0,0,1-29.08,17Z"/><path class="cls-15" d="M493.63,441.81s.73-19.27-8.07-24.56-25.64-8.75-25.87-36.43c-.14-16.21-.44-23.3-.67-26.39a1.83,1.83,0,0,1,2.19-1.93c8.38,1.71,35.6,8.62,41.06,27.34C508.74,402,493.63,441.81,493.63,441.81Z"/><path class="cls-20" d="M467.56,360.35l.68.64c.43.43,1.07,1.05,1.85,1.88s1.72,1.84,2.76,3c.52.6,1.08,1.23,1.64,1.92l.87,1.05.89,1.13.92,1.17.93,1.24,1,1.28L480,375c.32.46.66.92,1,1.39l1,1.45c.32.49.66,1,1,1.48l.95,1.55c.32.51.65,1,1,1.57l.94,1.62c.31.54.63,1.08.94,1.64l.9,1.69.91,1.7c.28.58.56,1.17.85,1.75l.85,1.75.11.22,0,.07,0,.05.05.12.19.44.39.89a63.55,63.55,0,0,1,2.61,7.38,71.15,71.15,0,0,1,1.66,7.37c.41,2.42.66,4.78.83,7s.23,4.36.23,6.32-.09,3.75-.2,5.33-.26,3-.4,4.1-.29,2-.39,2.62l-.13.69-.05.24a.5.5,0,0,1-1-.17v0l0-.22.09-.68c.08-.59.18-1.47.29-2.59s.21-2.48.27-4,.09-3.33.07-5.25-.12-4-.32-6.21-.5-4.49-.91-6.86a70.2,70.2,0,0,0-1.66-7.2,62.25,62.25,0,0,0-2.52-7.17l-.39-.89-.19-.45-.05-.11-.05-.09-.1-.22-.83-1.74-.82-1.73c-.29-.56-.59-1.12-.88-1.69l-.87-1.67-.91-1.64-.9-1.61c-.3-.53-.62-1.05-.93-1.57l-.92-1.54-.94-1.49-.92-1.45c-.3-.48-.62-.94-.93-1.4l-.9-1.36-.92-1.3-.88-1.26-.88-1.18-.85-1.14-.83-1.07c-.53-.71-1.05-1.36-1.54-2-1-1.23-1.87-2.27-2.61-3.12s-1.33-1.51-1.74-1.95l-.63-.68a.28.28,0,0,1,.39-.41Z"/><path class="cls-15" d="M477.22,485.25c1.21.93-9.23-19.55-8-48.13.58-13.47,3.88-29.83-2.27-37.64-5.12-6.5-26.85-7.47-34-7.62a1.06,1.06,0,0,0-.85,1.71c2.74,3.45,8.48,11.43,9,18.4.65,9.18,7.79,16.39,14.89,19.39s10.91,5.3,12.11,17.86S473.8,482.61,477.22,485.25Z"/><path class="cls-20" d="M441.91,397.54l.6.15c.38.1.95.26,1.65.5s1.55.54,2.5.95a33.43,33.43,0,0,1,3.14,1.5,34,34,0,0,1,3.5,2.18,28.13,28.13,0,0,1,3.55,3,25.24,25.24,0,0,1,3.17,3.81,23.3,23.3,0,0,1,2.39,4.53l.22.61.12.3.09.31c.13.41.26.82.38,1.23l.64,2.42c.21.81.41,1.61.61,2.4s.39,1.57.57,2.34c.37,1.54.71,3,1,4.46s.59,2.76.82,4l.34,1.78.28,1.62c.17,1,.31,1.9.42,2.63s.19,1.31.24,1.7l.07.61a.19.19,0,0,1-.17.22.21.21,0,0,1-.22-.16h0l-.11-.59-.32-1.68c-.27-1.45-.71-3.5-1.26-6-.28-1.23-.58-2.57-.91-4s-.7-2.89-1.08-4.42-.8-3.1-1.22-4.71c-.21-.8-.43-1.61-.65-2.42-.11-.4-.24-.79-.36-1.18l-.09-.3-.1-.29-.22-.58a23.75,23.75,0,0,0-5.28-8.08,29.48,29.48,0,0,0-3.38-2.95,31.39,31.39,0,0,0-3.37-2.22c-1.09-.63-2.11-1.16-3-1.59s-1.75-.77-2.44-1-1.23-.46-1.6-.58l-.57-.17a.15.15,0,0,1-.11-.2.15.15,0,0,1,.18-.11Z"/><path class="cls-15" d="M475.67,488.9c.81.43-4.57-8.83-5-17s-2.25-22.08-9.29-30.41S446.66,432.41,437,440c-8.09,6.31-13.13,9.49-16.09,10.09a1.11,1.11,0,0,0-.75,1.63c1.9,3.49,7.26,11.52,16.27,11,11.5-.72,25.43-8.2,29.67-2s3.7,9.72,3.83,12.67S470.31,486.07,475.67,488.9Z"/><path class="cls-20" d="M440.24,450l.35-.32c.23-.2.56-.5,1-.85s1-.78,1.66-1.24a26.49,26.49,0,0,1,2.28-1.41,22.44,22.44,0,0,1,2.9-1.33,15.11,15.11,0,0,1,3.49-.85c.32,0,.64-.05,1-.07h1l.49,0,.5.07a4.26,4.26,0,0,1,.49.1c.17,0,.32.06.5.12a20.52,20.52,0,0,1,3.67,1.44,16.69,16.69,0,0,1,3.24,2.31l.69.7c.11.12.23.23.33.35l.31.37c.2.25.41.49.6.75l.54.77.26.38.23.4.45.78c.28.53.52,1,.77,1.56s.43,1,.63,1.52.34,1,.5,1.44l.12.35.1.34.18.66c.12.43.24.83.32,1.22l.25,1.09c.08.33.15.64.19.92l.31,1.76a.17.17,0,0,1-.34.07h0l-.42-1.72c-.06-.28-.14-.58-.23-.9l-.3-1.06c-.09-.38-.24-.77-.37-1.19l-.21-.64-.11-.33-.13-.34c-.17-.45-.34-.92-.53-1.4l-.66-1.45c-.25-.49-.5-1-.79-1.49l-.45-.73-.24-.38-.25-.36-.53-.72c-.19-.24-.39-.46-.58-.69l-.3-.35-.32-.33-.66-.64a15.64,15.64,0,0,0-3.06-2.13,18.78,18.78,0,0,0-3.51-1.36,9.18,9.18,0,0,0-1.74-.3h-.89c-.29,0-.58,0-.87.06a13.93,13.93,0,0,0-3.3.73,21.26,21.26,0,0,0-2.84,1.18c-.86.42-1.62.85-2.29,1.25s-1.24.78-1.7,1.1l-1.06.76-.37.27a.17.17,0,0,1-.25,0,.2.2,0,0,1,0-.25Z"/><path class="cls-21" d="M629.44,480.43a2.91,2.91,0,0,1-2.9,2.89H470.16a2.9,2.9,0,0,1-2.89-2.89L466,390.56a5,5,0,0,1,5.3-4.46l152.84-4a7.28,7.28,0,0,1,7.47,7.45Z"/><path class="cls-15" d="M626.58,477.66a2.74,2.74,0,0,1-2.74,2.73H473.93a2.74,2.74,0,0,1-2.73-2.73L470,396.07A6.73,6.73,0,0,1,477,389.5l146.48-3.93a5.07,5.07,0,0,1,3.75,1.5,5.13,5.13,0,0,1,1.5,3.74Z"/><path class="cls-9" d="M472.82,438.73a.23.23,0,0,1-.24-.23l-.1-6.62a.24.24,0,0,1,.23-.23.23.23,0,0,1,.24.23l.1,6.61a.23.23,0,0,1-.23.24Z"/><path class="cls-9" d="M472.58,422.52a.25.25,0,0,1-.24-.23L472,397a5.35,5.35,0,0,1,1.56-4,7.31,7.31,0,0,1,4.89-1.69L525.2,390a.25.25,0,0,1,.24.23.24.24,0,0,1-.23.24l-46.79,1.25a6.91,6.91,0,0,0-4.57,1.56,4.93,4.93,0,0,0-1.41,3.69l.37,25.34a.23.23,0,0,1-.23.24Z"/><path class="cls-22" d="M477.8,473.13c.16-6.74.1-66.45-.29-71.61s7.65-6.12,20-6.71,116.37-2.87,119-3.09c6-.49,7.27,8.51,6.66,28-.45,14.68-1.2,38.86-1.55,50a6.13,6.13,0,0,1-6.12,5.95c-25,.07-121,.34-127.38.53C480.8,476.45,477.74,475.8,477.8,473.13Z"/><path class="cls-15" d="M638.17,490.78H461.7a4,4,0,0,1-3.95-3.95h0a4,4,0,0,1,3.95-3.95H638.17a4,4,0,0,1,4,3.95h0A4,4,0,0,1,638.17,490.78Z"/><path class="cls-9" d="M608.48,467.31H490.39a3.12,3.12,0,0,1-3.06-3.24V403.43a3.14,3.14,0,0,1,3-3.22v0L608.45,398a3.09,3.09,0,0,1,2.24.93,3.3,3.3,0,0,1,.93,2.29v62.84A3.19,3.19,0,0,1,608.48,467.31Zm-118.1-66.63a2.66,2.66,0,0,0-2.58,2.75v60.64a2.65,2.65,0,0,0,2.59,2.77H608.48a2.73,2.73,0,0,0,2.68-2.77V401.23a2.76,2.76,0,0,0-.81-2,2.6,2.6,0,0,0-1.9-.79Z"/><rect class="cls-23" x="492.46" y="408.78" width="73.69" height="45.71" rx="2.27"/><path class="cls-9" d="M599,423.93H574a2.91,2.91,0,0,1-2.94-2.95v-9.53a2.89,2.89,0,0,1,2.94-2.91h25a3.19,3.19,0,0,1,3.27,2.91V421A3.21,3.21,0,0,1,599,423.93ZM574,409a2.41,2.41,0,0,0-2.48,2.44V421a2.47,2.47,0,0,0,2.48,2.49h25a2.76,2.76,0,0,0,2.8-2.49v-9.53A2.71,2.71,0,0,0,599,409Z"/><path class="cls-9" d="M599,443.06H574a2.84,2.84,0,0,1-2.94-2.87v-9.53a2.94,2.94,0,0,1,2.94-3h25a3.26,3.26,0,0,1,3.27,3v9.53A3.14,3.14,0,0,1,599,443.06Zm-25-14.93a2.49,2.49,0,0,0-2.48,2.53v9.53a2.39,2.39,0,0,0,2.48,2.4h25a2.69,2.69,0,0,0,2.8-2.4v-9.53a2.78,2.78,0,0,0-2.8-2.53Z"/><path class="cls-9" d="M599,462.18H574a2.77,2.77,0,0,1-2.94-2.78v-9.53a3,3,0,0,1,2.94-3.08h25a3.31,3.31,0,0,1,3.27,3.08v9.53A3.06,3.06,0,0,1,599,462.18Zm-25-14.93a2.56,2.56,0,0,0-2.48,2.62v9.53a2.32,2.32,0,0,0,2.48,2.31h25a2.63,2.63,0,0,0,2.8-2.31v-9.53a2.86,2.86,0,0,0-2.8-2.62Z"/><path class="cls-24" d="M540,457.48c-7.05,0-39-.09-46.06,0a1.44,1.44,0,0,0-1.43,1.39v.77a1.39,1.39,0,0,0,1.36,1.39l46,1.05a1.61,1.61,0,0,0,1.1-.39,1.49,1.49,0,0,0,.52-1v-1.81A1.47,1.47,0,0,0,540,457.48Z"/><path class="cls-9" d="M611.39,404.81H487.56a.23.23,0,0,1,0-.46H611.39a.23.23,0,1,1,0,.46Z"/><path class="cls-9" d="M596.45,403h-.2a1.43,1.43,0,0,1-1.42-1.42v-.2a1.42,1.42,0,0,1,1.42-1.41h.2a1.42,1.42,0,0,1,1.42,1.41v.2A1.43,1.43,0,0,1,596.45,403Zm-.2-2.57a1,1,0,0,0-1,.95v.2a1,1,0,0,0,1,1h.2a1,1,0,0,0,.95-1v-.2a1,1,0,0,0-.95-.95Z"/><path class="cls-9" d="M601.81,403h-.2a1.42,1.42,0,0,1-1.41-1.42v-.2a1.41,1.41,0,0,1,1.41-1.41h.2a1.42,1.42,0,0,1,1.42,1.41v.2A1.43,1.43,0,0,1,601.81,403Zm-.2-2.57a1,1,0,0,0-1,.95v.2a1,1,0,0,0,1,1h.2a1,1,0,0,0,1-1v-.2a1,1,0,0,0-1-.95Z"/><path class="cls-9" d="M607.41,403h-.2a1.43,1.43,0,0,1-1.42-1.42v-.2a1.42,1.42,0,0,1,1.42-1.41h.2a1.42,1.42,0,0,1,1.42,1.41v.2A1.43,1.43,0,0,1,607.41,403Zm-.2-2.57a1,1,0,0,0-1,.95v.2a1,1,0,0,0,1,1h.2a1,1,0,0,0,1-1v-.2a1,1,0,0,0-1-.95Z"/><path class="cls-9" d="M497.36,422.07a.24.24,0,0,1-.24-.23V413a.24.24,0,0,1,.24-.23h6.76a.24.24,0,0,1,0,.47h-6.53v8.63A.23.23,0,0,1,497.36,422.07Z"/><path class="cls-9" d="M561.25,422.07a.23.23,0,0,1-.23-.23v-8.63h-6.53a.24.24,0,0,1,0-.47h6.76a.24.24,0,0,1,.24.23v8.87A.24.24,0,0,1,561.25,422.07Z"/><path class="cls-9" d="M504.12,449.12h-6.76a.23.23,0,0,1-.24-.23v-8.63a.23.23,0,0,1,.24-.23.23.23,0,0,1,.23.23v8.39h6.53a.23.23,0,0,1,.23.24A.23.23,0,0,1,504.12,449.12Z"/><path class="cls-9" d="M561.25,449.12h-6.76a.23.23,0,0,1-.23-.23.23.23,0,0,1,.23-.24H561v-8.39a.23.23,0,0,1,.23-.23.23.23,0,0,1,.24.23v8.63A.23.23,0,0,1,561.25,449.12Z"/><path class="cls-9" d="M528,443.06a11.31,11.31,0,1,1,11.3-11.32h0A11.32,11.32,0,0,1,528,443.06Zm0-22.16a10.85,10.85,0,1,0,10.84,10.85h0A10.86,10.86,0,0,0,528,420.9Z"/><path class="cls-9" d="M524.88,437.48a.58.58,0,0,1-.59-.58L524,426.83a.94.94,0,0,1,.43-.82.92.92,0,0,1,.92-.07l10,4.66a1,1,0,0,1,0,1.7L526.58,437a.58.58,0,0,1-.8-.24.59.59,0,0,1,.25-.8l8.38-4.47-9.2-4.3.26,9.7a.59.59,0,0,1-.58.61Z"/><path class="cls-25" d="M556.17,368.83c-.51-4.38,4.47-10.55,13.48-5.1.24-2.07,11.54-8.51,16.78,5,.89-3.28,9.1-1.64,10.57,3.92,3.09-1.37,10.5,5.52.69,6.71-12.54,1.51-41.25,1.07-46.4-6.45S556.17,368.83,556.17,368.83Z"/><path class="cls-25" d="M606.43,362.78c-.33-2.8,2.86-6.76,8.64-3.26.16-1.33,7.41-5.47,10.77,3.23.57-2.11,5.83-1.05,6.78,2.51,2-.88,6.73,3.54.44,4.3-8,1-26.46.7-29.76-4.13S606.43,362.78,606.43,362.78Z"/><path class="cls-9" d="M519.24,389.18a.45.45,0,0,1-.4-.24l-1.27-2.32a12.34,12.34,0,0,1-3.65-.83l-2.15,1.54a.45.45,0,0,1-.53,0l-2.72-1.93a.45.45,0,0,1-.17-.5l.74-2.54a12.39,12.39,0,0,1-2-3.16l-2.61-.43a.47.47,0,0,1-.38-.38l-.56-3.28a.44.44,0,0,1,.23-.48l2.32-1.28a12.35,12.35,0,0,1,.83-3.64l-1.54-2.15a.45.45,0,0,1,0-.53l1.93-2.72a.47.47,0,0,1,.5-.18l2.54.75a12.39,12.39,0,0,1,3.16-2l.43-2.61a.47.47,0,0,1,.38-.38l3.28-.56a.44.44,0,0,1,.48.23l1.28,2.32a12.35,12.35,0,0,1,3.64.83l2.15-1.55a.47.47,0,0,1,.53,0l2.72,1.93a.46.46,0,0,1,.18.5l-.75,2.54a12.39,12.39,0,0,1,2,3.16l2.61.43a.47.47,0,0,1,.38.38l.56,3.28a.45.45,0,0,1-.23.48l-2.32,1.27a12.34,12.34,0,0,1-.83,3.65l1.55,2.15a.47.47,0,0,1,0,.53l-1.93,2.72a.44.44,0,0,1-.5.17l-2.54-.74a12.39,12.39,0,0,1-3.16,2l-.43,2.61a.46.46,0,0,1-.38.38l-3.28.56Zm-5.38-3.92.12.05a11.7,11.7,0,0,0,3.74.85h.13l1.4,2.55,3.27-.57.47-2.86.12-.05a12,12,0,0,0,3.25-2l.09-.09,2.79.82,1.92-2.72-1.7-2.35,0-.12a11.7,11.7,0,0,0,.85-3.74v-.13l2.55-1.4-.57-3.27-2.86-.47,0-.12a12,12,0,0,0-2-3.25l-.09-.09.82-2.79-2.72-1.92-2.35,1.7-.12-.05a11.7,11.7,0,0,0-3.74-.85h-.13l-1.39-2.55-3.28.57-.47,2.86-.12,0a12,12,0,0,0-3.25,2l-.09.09-2.78-.82-1.92,2.72,1.69,2.35,0,.12a11.7,11.7,0,0,0-.85,3.74v.13L504,375l.57,3.28,2.86.47.05.12a12,12,0,0,0,2,3.25l.09.09-.82,2.79,2.72,1.91Zm4.65-2.74a8.25,8.25,0,0,1-7.54-4.93.23.23,0,0,1,.12-.31.24.24,0,0,1,.31.12,7.8,7.8,0,1,0,.77-7.65,7.36,7.36,0,0,0-.81,1.45.24.24,0,0,1-.31.12.23.23,0,0,1-.12-.31,8.26,8.26,0,1,1,9,11.39A8.39,8.39,0,0,1,518.51,382.52Z"/><path class="cls-9" d="M518.47,377.45h-.26a3.19,3.19,0,0,1-1.82-5.6h0a3.17,3.17,0,0,1,4.49.35,3.19,3.19,0,0,1-2.41,5.26Zm-1.78-5.26a2.73,2.73,0,0,0-.3,3.84,2.72,2.72,0,0,0,4.14-3.54,2.73,2.73,0,0,0-3.84-.3Z"/><path class="cls-9" d="M544.06,380.16h0l-1.59-.2a.33.33,0,0,1-.29-.27l-.25-1.18a6,6,0,0,1-1.48-.84l-1.14.39a.35.35,0,0,1-.38-.12l-1-1.26a.35.35,0,0,1,0-.4l.66-1a5.79,5.79,0,0,1-.45-1.64l-1.08-.53a.35.35,0,0,1-.19-.35l.2-1.59a.35.35,0,0,1,.27-.3l1.18-.24a5.87,5.87,0,0,1,.85-1.48l-.39-1.14a.36.36,0,0,1,.11-.39l1.27-1a.33.33,0,0,1,.39,0l1,.66a5.94,5.94,0,0,1,1.65-.45l.53-1.08a.32.32,0,0,1,.35-.19l1.59.2a.34.34,0,0,1,.29.27l.25,1.18a6,6,0,0,1,1.48.84l1.14-.39a.35.35,0,0,1,.38.12l1,1.26a.35.35,0,0,1,0,.4l-.66,1a6.14,6.14,0,0,1,.45,1.64l1.08.54a.34.34,0,0,1,.19.35l-.2,1.58a.35.35,0,0,1-.27.3l-1.18.24a5.87,5.87,0,0,1-.85,1.48l.39,1.15a.35.35,0,0,1-.11.38l-1.27,1a.33.33,0,0,1-.39,0l-1-.66a5.94,5.94,0,0,1-1.65.45l-.53,1.09A.36.36,0,0,1,544.06,380.16Zm-1.48-.66,1.41.18.61-1.23.13,0a5.55,5.55,0,0,0,1.74-.47l.12-.06,1.15.76,1.12-.88-.44-1.3.08-.1a5.83,5.83,0,0,0,.9-1.57l0-.12,1.35-.28L551,373l-1.24-.61v-.13a5.77,5.77,0,0,0-.48-1.74l0-.12.75-1.15-.87-1.13-1.3.45-.1-.09a5.68,5.68,0,0,0-1.57-.89l-.13,0-.28-1.34-1.41-.18-.61,1.23-.13,0a5.55,5.55,0,0,0-1.74.47l-.12.06-1.15-.75-1.12.87.44,1.3-.08.1a5.83,5.83,0,0,0-.9,1.57l0,.12-1.35.28-.18,1.42,1.24.6v.13a5.91,5.91,0,0,0,.48,1.75l.05.11-.75,1.15.87,1.13,1.3-.44.1.08a5.68,5.68,0,0,0,1.57.89l.13.05Zm1.59-2.55a4.09,4.09,0,0,1-3.24-1.58,4.19,4.19,0,0,1-.83-2,.24.24,0,0,1,.21-.26.23.23,0,0,1,.25.2,3.69,3.69,0,0,0,.74,1.79,3.63,3.63,0,1,0,.64-5.09,3.51,3.51,0,0,0-.55.54.24.24,0,0,1-.33,0,.22.22,0,0,1,0-.32,4,4,0,0,1,.63-.61,4.09,4.09,0,1,1,2.51,7.33Z"/><path class="cls-26" d="M561.83,501.47a.84.84,0,0,0,.77-.49l17.57-39.55a.79.79,0,0,0-.44-1.06.85.85,0,0,0-1.1.42l-17.57,39.55a.8.8,0,0,0,.44,1.06A.78.78,0,0,0,561.83,501.47Z"/><path class="cls-26" d="M598,501.47a.85.85,0,0,1-.77-.49l-17.57-39.55a.79.79,0,0,1,.44-1.06.85.85,0,0,1,1.1.42l17.57,39.55a.8.8,0,0,1-.44,1.06A.78.78,0,0,1,598,501.47Z"/><path class="cls-26" d="M580.65,503.26a.83.83,0,0,1-.52-.75l-.77-43.26a.8.8,0,0,1,.82-.81.85.85,0,0,1,.85.82l.77,43.26a.8.8,0,0,1-.82.81A.72.72,0,0,1,580.65,503.26Z"/><path class="cls-27" d="M581.78,459.76a1.4,1.4,0,0,1-1.53,1.25h0a1.16,1.16,0,0,1-1.26-1.25V448.18a1.28,1.28,0,0,1,1.26-1.39h0a1.51,1.51,0,0,1,1.53,1.39Z"/><path class="cls-28" d="M575.17,445.16l.2,3a.5.5,0,0,0,.53.46h1.68v1c0,.41,0,.66.44.66h1.12l2.29,0,.93-5.15Z"/><path class="cls-29" d="M577.91,445.16l1.19,5.15,3.74.06a.74.74,0,0,0,.75-.65l.17-1.25,1.28,0a1.87,1.87,0,0,0,1.87-1.49l.37-1.84Z"/><path class="cls-30" d="M578.9,430.7h-2a1.14,1.14,0,0,0-1.27,1.05l-.07,1.51h-4.74a2.15,2.15,0,0,0-2.08,2.13l-.11,8.09a2.1,2.1,0,0,0,2.08,2.14H582Z"/><path class="cls-31" d="M592.92,443.44l-.44-8.14a2.15,2.15,0,0,0-2.08-2h-5.83v-1.71a1.58,1.58,0,0,0-1.61-1.27l-3.57.22a1.31,1.31,0,0,0-.95.49,1.11,1.11,0,0,0-.25.94l.25,1.33h-3.67a2,2,0,0,0-1.86,2.23v8.06a1.89,1.89,0,0,0,1.86,2.07h16.08a2.09,2.09,0,0,0,1.51-.64A2.05,2.05,0,0,0,592.92,443.44Z"/><path class="cls-32" d="M585.35,436.53a1.31,1.31,0,0,0-1-.47h-8.73a1.4,1.4,0,0,0-1.35,1.34V442a1.37,1.37,0,0,0,1.35,1.31h8.13a1.28,1.28,0,0,0,1.26-1.12l.6-4.61A1.31,1.31,0,0,0,585.35,436.53Z"/><path class="cls-33" d="M580,433.13a.62.62,0,0,1-.6-.49l-.07-.36a.78.78,0,0,1,.12-.58.71.71,0,0,1,.48-.3h2.53a.89.89,0,0,1,.74.76v.1a.66.66,0,0,1-.61.61l-2.49.26Zm-.07-1.5a.48.48,0,0,0-.35.21.53.53,0,0,0-.09.39l.08.37a.44.44,0,0,0,.47.35l2.62-.25c.22,0,.54-.21.54-.44v-.1c0-.24-.5-.53-.74-.53Z"/><circle class="cls-34" cx="583.51" cy="437.47" r="0.55"/><path class="cls-35" d="M588.11,440.72a5.35,5.35,0,0,1,.14-1.53c.13,0,1.92,0,1.92,0v1.54h1.17v1.4h-1.52l.09.94h-1.66l0-1.2-1.13.25v-1.39Z"/><circle class="cls-36" cx="589.17" cy="436.95" r="1.19"/><path class="cls-37" d="M583.64,460.33c0,.68-.89,1.15-1.68,1.15h-6.5a1.24,1.24,0,0,1-1.38-1.15v-.05c0-.69.6-1.13,1.38-1.13H582c.79,0,1.68.44,1.68,1.13Z"/><path class="cls-38" d="M585.27,460.36c0,.7-.66,1.12-1.44,1.12h-6.5a1,1,0,0,1-1.15-1.12v-.05a1,1,0,0,1,1.15-1.16h6.5a1.29,1.29,0,0,1,1.44,1.16Z"/><path class="cls-39" d="M585.24,446.82c.18-.05,5.77,4.75,5.77,4.75l-.9.42-5.49-3.93S584.06,447.16,585.24,446.82Z"/><path class="cls-40" d="M590.9,450.91a.75.75,0,0,0-.87,0c-.45.35-1,.93-.27,1.42,1.06.75,5.57,4.4,6.19,3.93S597.61,455.34,590.9,450.91Z"/><path class="cls-41" d="M526.91,424.25S554,410.86,545.15,401s-25.4-5.92-26.23,4.46S538.2,413.4,526.91,424.25Z"/><path class="cls-9" d="M542.86,403.78h-12a.23.23,0,0,1-.23-.24.23.23,0,0,1,.23-.23h12a.23.23,0,0,1,.23.23A.23.23,0,0,1,542.86,403.78Z"/><path class="cls-9" d="M527.34,403.78h-3.55a.23.23,0,0,1-.23-.24.23.23,0,0,1,.23-.23h3.55a.23.23,0,0,1,.23.23A.23.23,0,0,1,527.34,403.78Z"/><path class="cls-9" d="M543.26,406.2h-4.49a.23.23,0,0,1-.24-.23.24.24,0,0,1,.24-.24h4.49a.23.23,0,0,1,.23.24A.23.23,0,0,1,543.26,406.2Z"/><path class="cls-9" d="M532.17,406.2h-8A.23.23,0,0,1,524,406a.23.23,0,0,1,.23-.24h8a.24.24,0,0,1,.24.24A.23.23,0,0,1,532.17,406.2Z"/><path class="cls-9" d="M543.66,408.62H531.72a.23.23,0,0,1,0-.46h11.94a.23.23,0,1,1,0,.46Z"/><path class="cls-9" d="M528.73,408.62h-4.14a.23.23,0,0,1,0-.46h4.14a.23.23,0,1,1,0,.46Z"/><path class="cls-42" d="M513.37,501.4A7.78,7.78,0,0,0,516,501v.44a.3.3,0,0,1-.28.29l-7.94-.05a.37.37,0,0,1-.3-.53A59.41,59.41,0,0,0,513.37,501.4Z"/><path class="cls-43" d="M515.55,498.35a1.46,1.46,0,0,0-1.45-1.06l-.67,0a10.09,10.09,0,0,0-6,3.78l0,.06c1,.08,3.7.28,5.93.21a7.81,7.81,0,0,0,2.59-.37A10.46,10.46,0,0,0,515.55,498.35Z"/><path class="cls-44" d="M512.38,495l.56,2.67a.43.43,0,0,0,.37.36,4.17,4.17,0,0,0,.86,0,.55.55,0,0,0,.43-.65l-.38-2.37Z"/><path class="cls-45" d="M523.88,501.4a7.73,7.73,0,0,1-2.58-.37v.44a.3.3,0,0,0,.28.29l7.94-.05a.36.36,0,0,0,.29-.53A59,59,0,0,1,523.88,501.4Z"/><path class="cls-46" d="M529.81,501.18s0,0,0-.06a10.14,10.14,0,0,0-6-3.78l-1.69,0a8,8,0,0,0-.77,3.74,7.73,7.73,0,0,0,2.58.37A59,59,0,0,0,529.81,501.18Z"/><path class="cls-47" d="M521.75,494.72c0,.13.25,2,.34,2.79a.36.36,0,0,0,.31.33,3.84,3.84,0,0,0,1.17,0,.51.51,0,0,0,.38-.51v-3Z"/><path class="cls-48" d="M520.39,459.69a150.84,150.84,0,0,1,4,35.07.77.77,0,0,1-.6.74,8.62,8.62,0,0,1-1.9.22.71.71,0,0,1-.67-.59c-.57-3.36-3.86-22.29-5.73-25.36,0,0-1.24,16.86-.84,25.61a.42.42,0,0,1-.37.43,6.81,6.81,0,0,1-1.52,0,.55.55,0,0,1-.49-.48c-.41-2.84-2.76-19.77-2.66-32,0-.69,1.82-3.68,1.82-3.68Z"/><path class="cls-49" d="M512.11,435.66s-7.25-1.05-5.28,8.12,3.25,14,3.63,17.78c1.29.84,9.6,0,9.93-.16s.44.2.42-1.44,2.68-14.87,2.9-15.66,6.65,8.87,5.72,3.16-5.64-13-10.78-12.56A64.09,64.09,0,0,0,512.11,435.66Z"/><path class="cls-50" d="M523.71,444.3s5.54,6.57,6.28,6.57,1.36-2.47,1.36-2.47l-3.82-6.54Z"/><path class="cls-51" d="M513.17,430.75l-.53,5.43s3.05.92,5.27-.65l-1.56-4.93Z"/><path class="cls-52" d="M518.89,425.53a22.47,22.47,0,0,1,.56,5.58c-.26,1.82-.1,3.08-2.27,3a4.52,4.52,0,0,1-4.31-3.43s-.95-3.07-.39-4.14S518.89,425.53,518.89,425.53Z"/><path class="cls-53" d="M513.84,429.55l.13,0a.31.31,0,0,0,.22-.37c-.18-.63-.5-2,.3-2.2,1-.21,5-.23,6.07-1.41a2.55,2.55,0,0,0-.28-3.63.15.15,0,0,0-.2,0l-.12.15a.14.14,0,0,1-.25-.08h0a.15.15,0,0,0-.25-.09c-.33.35-1.14.87-3,.84-2.68,0-4.59.67-5,2.45a.14.14,0,0,1-.24.07.76.76,0,0,0-.94,0c-.83.46-.84,2.06.46,3.64a.15.15,0,0,1-.05.23c-.32.12-.83.48.14,1.27a3.74,3.74,0,0,0,2.19,1,.15.15,0,0,0,.15-.15l0-1.64a.14.14,0,0,1,.17-.14Z"/><path class="cls-54" d="M513.84,429.89s-.14-2.31-1.25-1.89,0,2.56.8,2.8Z"/><path class="cls-55" d="M536.07,435.4a4,4,0,0,0-1.56-3.1,3.32,3.32,0,0,0-.41-.28,4.11,4.11,0,0,0-1.2-.47c-.45-.7-.49,4.08-.49,4.08h0l-.12.18a2,2,0,0,1,0-.35c.1-.88-.58-1-.58-.84s-.27,1.54-.36,2.08,1.37,2.36,1.55,2.59h0l0,0s-3.53,11.32-3.15,11.53c.19.1,2.69,2.08,3.7,1s1.62-10.87,1.73-12.58c0,0,.66-.45.83-2.3h0a1.11,1.11,0,0,0,0-.23.28.28,0,0,0,0-.09A10.73,10.73,0,0,0,536.07,435.4Z"/><path class="cls-56" d="M509.82,435.87c-.25-.22-8.5,1.22-8.5,17.05v5.84l3.21.19,3.8-13.34S512,437.9,509.82,435.87Z"/><path class="cls-57" d="M501.08,458.76l3.33.19.75,8.88a3.31,3.31,0,0,1,.69,2.35c0,1.63-.21,1.8-.46,1.58s-.18-1.07-.52-1.34-.55.79-.27,1.42,1.31,3.65.3,2.71a6.34,6.34,0,0,1-2-4,7,7,0,0,1,.34-2.51Z"/><polygon class="cls-11" points="574.05 373.82 574.4 377.23 571.94 376 574.05 373.82"/><path class="cls-11" d="M558.53,373.44l10,7.12a.86.86,0,0,0,.66.15.85.85,0,0,0,.56-.38L576.56,370a.35.35,0,0,0,0-.39.36.36,0,0,0-.36-.14Z"/><polygon class="cls-6" points="574.05 373.82 558.53 373.44 572.96 375.49 573.1 376.43 574.05 373.82"/><polygon class="cls-11" points="572.31 376.48 574.4 377.23 572.96 375.49 572.31 376.48"/><path class="cls-58" d="M576.11,377.6l.18,0,.38.09.57.11a.17.17,0,0,1,.14.21.16.16,0,0,1-.2.14l-.58-.11-.4-.09-.18,0a.19.19,0,0,1-.13-.22.18.18,0,0,1,.22-.13Z"/><path class="cls-58" d="M578.38,378l1.16.13a.19.19,0,0,1,.15.2.18.18,0,0,1-.19.16l-1.16-.13a.18.18,0,0,1,0-.36Z"/><path class="cls-58" d="M580.69,378.23l1.16,0a.18.18,0,0,1,.17.18.17.17,0,0,1-.18.17l-1.16,0a.18.18,0,1,1,0-.36Z"/><path class="cls-58" d="M583,378.23l.58,0,.58,0h0a.17.17,0,0,1,.19.16.18.18,0,0,1-.16.19l-.58,0-.59,0c-.1,0-.21-.07-.21-.17s.13-.18.13-.19H583Z"/><path class="cls-58" d="M585.31,378s.28,0,.57-.07l.57-.1a.17.17,0,0,1,.2.13.18.18,0,0,1-.13.21l-.58.11-.58.09a.17.17,0,0,1-.2-.15c0-.1.05-.22.15-.22Z"/><path class="cls-58" d="M587.57,377.56l.56-.16.55-.18a.18.18,0,0,1,.22.11.18.18,0,0,1-.11.22l-.56.18-.57.16h0a.17.17,0,1,1-.09-.33Z"/><path class="cls-58" d="M589.76,376.82l.53-.23.52-.25a.18.18,0,0,1,.23.08.17.17,0,0,1-.08.23l-.53.25-.54.24h0a.18.18,0,0,1-.23-.09.19.19,0,0,1,.1-.23Z"/><path class="cls-58" d="M591.82,375.8l.49-.31.09-.06.09-.06.15-.1.15-.1a.17.17,0,0,1,.24,0,.18.18,0,0,1,0,.24l-.15.1-.15.11-.09.06-.1.06-.49.3a.18.18,0,0,1-.24-.05.17.17,0,0,1,.06-.23Z"/><path class="cls-58" d="M593.72,374.49l.92-.73a.17.17,0,0,1,.21.27l-.92.72a.16.16,0,0,1-.23,0,.17.17,0,0,1,0-.24Z"/><path class="cls-58" d="M595.52,373l.86-.79a.17.17,0,0,1,.24,0,.18.18,0,0,1,0,.24l-.87.78a.16.16,0,0,1-.22-.24Z"/><path class="cls-58" d="M597.2,371.42l.8-.85a.17.17,0,0,1,.24,0,.16.16,0,0,1,0,.23l-.79.85a.17.17,0,0,1-.25-.23Z"/><path class="cls-58" d="M598.74,369.69l.36-.46.33-.46a.16.16,0,0,1,.23,0,.16.16,0,0,1,0,.23s-.16.25-.34.48-.36.47-.36.47h0a.17.17,0,0,1-.23,0,.18.18,0,0,1,0-.24Z"/><path class="cls-58" d="M600,367.79s.14-.25.27-.51.22-.53.22-.53a.17.17,0,0,1,.31.12s-.11.28-.24.55-.27.53-.27.53h0a.15.15,0,0,1-.22.06.16.16,0,0,1-.07-.22Z"/><path class="cls-58" d="M600.82,365.66l0-.17a2.25,2.25,0,0,0,0-.38,3.62,3.62,0,0,0,0-.56.16.16,0,1,1,.32-.05h0a3.65,3.65,0,0,1,0,.61c0,.15,0,.3,0,.42l0,.18a.15.15,0,0,1-.18.14.16.16,0,0,1-.14-.18h0Z"/><path class="cls-58" d="M600.49,363.51l-.09-.15a1.3,1.3,0,0,0-.1-.15l-.12-.14a1.68,1.68,0,0,0-.43-.31.16.16,0,0,1,.13-.29h0a1.88,1.88,0,0,1,.52.37.84.84,0,0,1,.15.18,1.16,1.16,0,0,1,.11.16,1.06,1.06,0,0,1,.1.17h0a.16.16,0,0,1-.28.16Z"/><path class="cls-58" d="M598.69,362.48h-.18c-.11,0-.25,0-.39,0s-.56,0-.56,0a.15.15,0,0,1-.18-.13.16.16,0,0,1,.13-.19h0s.3,0,.6-.05h.6a.16.16,0,0,1,.15.17.15.15,0,0,1-.17.15Z"/><path class="cls-58" d="M596.49,362.84l-.15.08a1.7,1.7,0,0,0-.31.21,1.2,1.2,0,0,0-.25.26l-.07.09,0,0a.17.17,0,0,1-.22.06.16.16,0,0,1-.06-.22l0,0a.66.66,0,0,1,.08-.13,1.51,1.51,0,0,1,.31-.31,2.76,2.76,0,0,1,.35-.24l.17-.09h0a.15.15,0,0,1,.21.08A.16.16,0,0,1,596.49,362.84Z"/><path class="cls-58" d="M595.42,364.55v.05a.57.57,0,0,0,0,.12,2,2,0,0,0,.07.37,3.27,3.27,0,0,0,.19.52.16.16,0,0,1-.28.14h0a3.2,3.2,0,0,1-.22-.57,2.55,2.55,0,0,1-.08-.42c0-.05,0-.11,0-.14v-.05a.16.16,0,0,1,.15-.16.15.15,0,0,1,.17.15Z"/><path class="cls-58" d="M596.3,366.56l.11.14.25.3.4.41a.15.15,0,0,1,0,.22.16.16,0,0,1-.23,0h0s-.21-.21-.41-.43l-.27-.31-.11-.14a.16.16,0,0,1,0-.23.17.17,0,0,1,.23,0Z"/><path class="cls-58" d="M597.94,368.14s.23.17.48.32.49.3.49.3a.16.16,0,0,1,.06.21.15.15,0,0,1-.21.06s-.26-.14-.51-.3l-.34-.22-.15-.11a.16.16,0,0,1,.18-.26Z"/><path class="cls-58" d="M599.94,369.26l.54.21.54.18a.16.16,0,0,1,.11.2.17.17,0,0,1-.2.1l-.56-.19-.55-.22h0a.15.15,0,1,1,.12-.28Z"/><path class="cls-58" d="M602.14,370l.56.12.57.11a.15.15,0,0,1,.13.17.15.15,0,0,1-.18.13l-.58-.1-.57-.12h0a.16.16,0,0,1-.12-.19.16.16,0,0,1,.19-.12Z"/><path class="cls-58" d="M604.42,370.33l.58.05h.21l.18,0h.19a.15.15,0,0,1,.14.16.15.15,0,0,1-.16.14H605l-.58-.05a.15.15,0,0,1-.14-.16.15.15,0,0,1,.17-.14Z"/><path class="cls-58" d="M606.73,370.53s.29,0,.58,0,.58-.05.58-.05a.15.15,0,0,1,.16.13.15.15,0,0,1-.14.16l-.59,0h-.59c-.08,0-.15,0-.15-.11s.06-.11.15-.11Z"/><path class="cls-58" d="M609,370.32l1.16-.15a.16.16,0,0,1,.17.13.16.16,0,0,1-.14.17l-1.15.15a.15.15,0,0,1,0-.3Z"/><path class="cls-58" d="M611.33,370l1.14-.25a.16.16,0,0,1,.18.12.15.15,0,0,1-.12.18l-1.13.25a.15.15,0,0,1-.18-.12.15.15,0,0,1,.11-.18Z"/><path class="cls-58" d="M613.59,369.43l1.12-.32a.15.15,0,0,1,.08.28l-1.12.33a.14.14,0,0,1-.18-.1.15.15,0,0,1,.1-.19Z"/><path class="cls-58" d="M615.81,368.75l1.1-.39a.15.15,0,0,1,.19.09.17.17,0,0,1-.09.19l-1.1.39a.15.15,0,1,1-.1-.28Z"/><path class="cls-58" d="M618,367.94l1.08-.43a.15.15,0,0,1,.11.27l-1.08.44a.15.15,0,0,1-.19-.08.16.16,0,0,1,.08-.2Z"/><path class="cls-58" d="M620.14,367.06l1.07-.47a.15.15,0,0,1,.2.08.15.15,0,0,1-.08.19l-1.07.47a.14.14,0,0,1-.19-.08.15.15,0,0,1,.07-.19Z"/><path class="cls-58" d="M622.28,366.12l1.06-.48a.14.14,0,0,1,.19.07.15.15,0,0,1-.07.19l-1.06.48a.15.15,0,0,1-.2-.07.14.14,0,0,1,.08-.19Z"/><path class="cls-58" d="M624.4,365.15l1.06-.48a.14.14,0,0,1,.19.07.15.15,0,0,1-.07.19l-1.06.48a.13.13,0,0,1-.19-.07.13.13,0,0,1,.07-.19Z"/><path class="cls-58" d="M626.52,364.18l1.07-.47a.14.14,0,0,1,.18.07.14.14,0,0,1-.07.19l-1.06.48a.14.14,0,0,1-.19-.08.15.15,0,0,1,.07-.19Z"/><path class="cls-58" d="M628.66,363.24l1.07-.45a.15.15,0,0,1,.19.08.13.13,0,0,1-.08.18l-1.07.46a.15.15,0,1,1-.11-.27Z"/><path class="cls-58" d="M630.82,362.36l1.09-.42a.15.15,0,0,1,.18.09.14.14,0,0,1-.08.18l-1.09.41a.14.14,0,0,1-.1-.26Z"/><path class="cls-58" d="M633,361.55l1.11-.36a.14.14,0,0,1,.17.09.13.13,0,0,1-.09.18l-1.11.36a.14.14,0,0,1-.17-.09.14.14,0,0,1,.09-.18Z"/><path class="cls-58" d="M635.25,360.87l1.13-.29a.13.13,0,0,1,.17.1.14.14,0,0,1-.1.17l-1.13.29a.16.16,0,0,1-.17-.1.14.14,0,0,1,.1-.17Z"/><path class="cls-58" d="M637.53,360.33l.18,0,.4-.07.57-.1a.14.14,0,0,1,.16.11.15.15,0,0,1-.11.16l-1.15.2h0a.13.13,0,0,1-.16-.11A.15.15,0,0,1,637.53,360.33Z"/><path class="cls-58" d="M639.85,360l1.16-.16a.11.11,0,0,1,.14.09.12.12,0,0,1-.12.14l-1.16.12c-.07,0-.13,0-.14-.08s0-.11.12-.11Z"/><path class="cls-58" d="M642.18,359.8s.29,0,.58,0h.59a.12.12,0,0,1,.12.12.12.12,0,0,1-.12.13h-1.16a.12.12,0,0,1-.14-.1.12.12,0,0,1,.13-.12Z"/><path class="cls-58" d="M644.52,359.8l.59.06.58.07a.12.12,0,0,1,.1.14.12.12,0,0,1-.13.1l-.58-.07-.58-.05a.13.13,0,0,1,0-.25Z"/><path class="cls-58" d="M646.85,360l.64.2a.15.15,0,0,1,.08.17.12.12,0,0,1-.14.1l-.64-.15c-.06,0-.1-.12-.08-.19a.16.16,0,0,1,.14-.13Z"/></svg>